{"glyphs":{"0":{"ha":907,"x_min":97,"x_max":810,"o":"m 356 -4 q 166 58 235 -4 q 97 246 97 121 l 97 775 q 167 965 97 899 q 356 1032 238 1032 l 560 1032 q 747 964 685 1032 q 810 775 810 896 l 810 246 q 743 59 810 122 q 558 -4 676 -4 l 356 -4 m 525 122 q 669 265 669 122 l 669 763 q 531 907 669 907 l 381 907 q 274 869 313 907 q 236 763 236 832 l 236 265 q 275 158 236 194 q 385 122 314 122 l 525 122 z "},"1":{"ha":507,"x_min":56,"x_max":397,"o":"m 257 897 l 56 851 l 56 940 l 271 1033 l 397 1033 l 397 0 l 257 0 l 257 897 z "},"2":{"ha":821,"x_min":72,"x_max":760,"o":"m 72 113 l 439 469 q 551 606 518 544 q 585 744 585 668 q 540 860 585 819 q 385 900 496 900 l 104 900 l 104 1008 q 414 1032 285 1032 q 653 963 582 1032 q 724 764 724 894 q 683 578 724 660 q 547 406 642 496 l 260 128 l 760 128 l 760 0 l 72 0 l 72 113 z "},"3":{"ha":810,"x_min":58,"x_max":722,"o":"m 436 -8 q 58 13 221 -8 l 58 122 l 386 122 q 531 152 482 122 q 581 260 581 182 l 581 319 q 534 419 581 388 q 417 453 488 450 l 157 464 l 157 568 l 411 579 q 527 610 486 582 q 568 700 568 639 l 568 758 q 378 900 568 900 l 89 900 l 89 1010 q 432 1032 261 1033 q 636 967 567 1031 q 706 788 706 903 l 706 704 q 663 575 706 621 q 564 515 621 529 q 673 446 624 501 q 722 303 722 390 l 722 236 q 647 55 722 118 q 436 -8 572 -8 z "},"4":{"ha":836,"x_min":35,"x_max":806,"o":"m 536 247 l 64 247 l 35 319 l 404 1024 l 547 1024 l 199 367 l 536 367 l 536 618 l 565 719 l 676 719 l 676 367 l 806 367 l 806 271 l 676 247 l 676 1 l 536 1 l 536 247 z "},"5":{"ha":865,"x_min":106,"x_max":786,"o":"m 458 -7 q 106 10 279 -7 l 106 119 l 463 119 q 597 161 549 119 q 646 271 646 203 l 646 371 q 608 472 646 436 q 494 508 569 508 l 394 508 q 303 483 336 508 q 261 406 271 458 l 129 406 l 158 1024 l 750 1024 l 750 899 l 279 899 l 264 563 q 324 610 283 592 q 422 628 365 628 l 540 628 q 722 563 657 628 q 786 394 786 499 l 786 243 q 699 56 786 118 q 458 -7 613 -7 z "},"6":{"ha":858,"x_min":90,"x_max":778,"o":"m 381 -4 q 221 40 283 -4 q 124 197 158 85 q 90 507 90 308 q 185 907 90 782 q 460 1032 279 1032 q 717 1015 590 1032 l 717 907 l 468 907 q 291 823 351 907 q 231 572 231 739 q 497 590 331 590 q 709 537 640 590 q 778 369 778 483 l 778 225 q 712 51 778 106 q 536 -4 646 -4 l 381 -4 m 507 121 q 604 149 569 121 q 639 249 639 178 l 639 344 q 597 445 639 419 q 461 471 554 471 l 231 471 q 250 258 231 335 q 307 151 269 182 q 406 121 344 121 l 507 121 z "},"7":{"ha":760,"x_min":42,"x_max":710,"o":"m 532 883 l 42 883 l 42 1024 l 669 1024 l 710 957 l 347 0 l 190 0 l 532 883 z "},"8":{"ha":886,"x_min":103,"x_max":783,"o":"m 358 -4 q 103 206 103 -4 l 103 350 q 140 462 103 415 q 229 519 178 508 q 147 592 169 546 q 124 700 124 638 l 124 818 q 187 979 124 928 q 353 1031 250 1031 l 546 1031 q 706 980 649 1031 q 764 818 764 929 l 764 700 q 738 598 764 649 q 664 535 713 547 q 755 471 726 522 q 783 357 783 419 l 783 206 q 721 44 783 93 q 546 -4 658 -4 l 358 -4 m 511 582 q 600 616 572 582 q 628 699 628 650 l 628 786 q 600 884 628 856 q 517 913 572 913 l 381 913 q 288 883 317 913 q 260 786 260 854 l 260 699 q 290 613 260 643 q 381 582 319 582 l 511 582 m 517 115 q 614 143 583 115 q 644 228 644 171 l 644 344 q 614 435 644 407 q 513 463 583 463 l 381 463 q 287 433 331 463 q 243 344 243 403 l 243 228 q 381 115 243 115 l 517 115 z "},"9":{"ha":858,"x_min":83,"x_max":771,"o":"m 401 -7 q 144 10 271 -7 l 144 119 l 393 119 q 570 203 510 119 q 631 453 631 286 q 364 435 532 435 q 152 488 221 435 q 83 656 83 542 l 83 801 q 149 974 83 919 q 325 1029 215 1029 l 481 1029 q 640 985 578 1029 q 737 828 703 940 q 771 518 771 717 q 676 118 771 243 q 401 -7 582 -7 m 631 554 q 611 767 631 690 q 554 874 592 843 q 456 904 517 904 l 354 904 q 257 876 292 904 q 222 776 222 847 l 222 681 q 265 581 222 607 q 400 554 307 554 l 631 554 z "},"\r":{"ha":371,"x_min":0,"x_max":0,"o":""}," ":{"ha":371,"x_min":0,"x_max":0,"o":""},"A":{"ha":942,"x_min":40,"x_max":901,"o":"m 382 1024 l 560 1024 l 901 0 l 756 0 l 665 268 l 274 268 l 185 0 l 40 0 l 382 1024 m 631 394 l 469 903 l 307 394 l 631 394 z "},"Á":{"ha":942,"x_min":40,"x_max":901,"o":"m 382 1024 l 560 1024 l 901 0 l 756 0 l 665 268 l 274 268 l 185 0 l 40 0 l 382 1024 m 631 394 l 469 903 l 307 394 l 631 394 m 569 1290 l 686 1290 l 517 1099 l 435 1099 l 569 1290 z "},"Ă":{"ha":942,"x_min":40,"x_max":901,"o":"m 382 1024 l 560 1024 l 901 0 l 756 0 l 665 268 l 274 268 l 185 0 l 40 0 l 382 1024 m 631 394 l 469 903 l 307 394 l 631 394 m 460 1093 q 325 1142 375 1093 q 275 1294 275 1190 l 340 1294 q 373 1192 340 1225 q 457 1158 406 1158 q 579 1294 579 1158 l 647 1294 q 597 1141 647 1189 q 460 1093 546 1093 z "},"Ắ":{"ha":942,"x_min":40,"x_max":901,"o":"m 382 1024 l 560 1024 l 901 0 l 756 0 l 665 268 l 274 268 l 185 0 l 40 0 l 382 1024 m 631 394 l 469 903 l 307 394 l 631 394 m 547 1449 l 664 1449 l 494 1257 l 413 1257 l 547 1449 m 342 1240 q 374 1165 342 1189 q 456 1140 406 1140 q 547 1163 514 1140 q 579 1240 579 1186 l 647 1240 q 597 1119 647 1157 q 460 1081 546 1081 q 325 1119 375 1081 q 275 1240 275 1158 l 342 1240 z "},"Ặ":{"ha":942,"x_min":40,"x_max":901,"o":"m 382 1024 l 560 1024 l 901 0 l 756 0 l 665 268 l 274 268 l 185 0 l 40 0 l 382 1024 m 631 394 l 469 903 l 307 394 l 631 394 m 460 1093 q 325 1142 375 1093 q 275 1294 275 1190 l 340 1294 q 373 1192 340 1225 q 457 1158 406 1158 q 579 1294 579 1158 l 647 1294 q 597 1141 647 1189 q 460 1093 546 1093 m 435 -299 q 417 -292 424 -299 q 411 -275 411 -286 l 411 -158 q 435 -133 411 -133 l 500 -133 q 524 -158 524 -133 l 524 -275 q 517 -292 524 -286 q 500 -299 511 -299 l 435 -299 z "},"Ằ":{"ha":942,"x_min":40,"x_max":901,"o":"m 382 1024 l 560 1024 l 901 0 l 756 0 l 665 268 l 274 268 l 185 0 l 40 0 l 382 1024 m 631 394 l 469 903 l 307 394 l 631 394 m 268 1449 l 383 1449 l 519 1257 l 438 1257 l 268 1449 m 342 1240 q 374 1165 342 1189 q 456 1140 406 1140 q 547 1163 514 1140 q 579 1240 579 1186 l 647 1240 q 597 1119 647 1157 q 460 1081 546 1081 q 325 1119 375 1081 q 275 1240 275 1158 l 342 1240 z "},"Ẳ":{"ha":942,"x_min":40,"x_max":901,"o":"m 382 1024 l 560 1024 l 901 0 l 756 0 l 665 268 l 274 268 l 185 0 l 40 0 l 382 1024 m 631 394 l 469 903 l 307 394 l 631 394 m 435 1263 q 489 1293 472 1274 q 506 1336 506 1313 q 492 1376 506 1363 q 444 1390 478 1390 q 397 1382 419 1390 l 397 1439 q 463 1449 425 1449 q 551 1420 521 1449 q 581 1340 581 1392 q 435 1199 581 1240 l 435 1263 m 460 1081 q 325 1119 375 1081 q 275 1240 275 1158 l 342 1240 q 374 1165 342 1189 q 456 1140 406 1140 q 547 1163 514 1140 q 579 1240 579 1186 l 647 1240 q 597 1119 647 1157 q 460 1081 546 1081 z "},"Ẵ":{"ha":942,"x_min":40,"x_max":901,"o":"m 382 1024 l 560 1024 l 901 0 l 756 0 l 665 268 l 274 268 l 185 0 l 40 0 l 382 1024 m 631 394 l 469 903 l 307 394 l 631 394 m 360 1413 q 409 1406 386 1413 q 465 1383 432 1399 q 510 1366 492 1372 q 547 1360 528 1360 q 597 1374 578 1360 q 615 1417 615 1389 l 686 1417 q 653 1320 682 1350 q 569 1290 625 1290 q 522 1297 544 1290 q 465 1318 499 1304 q 417 1337 435 1331 q 381 1343 399 1343 q 333 1328 351 1343 q 314 1289 315 1314 l 243 1289 q 360 1413 250 1413 m 342 1240 q 374 1165 342 1189 q 456 1140 406 1140 q 547 1163 514 1140 q 579 1240 579 1186 l 647 1240 q 597 1119 647 1157 q 460 1081 546 1081 q 325 1119 375 1081 q 275 1240 275 1158 l 342 1240 z "},"Â":{"ha":942,"x_min":40,"x_max":901,"o":"m 382 1024 l 560 1024 l 901 0 l 756 0 l 665 268 l 274 268 l 185 0 l 40 0 l 382 1024 m 631 394 l 469 903 l 307 394 l 631 394 m 425 1289 l 522 1289 l 671 1099 l 588 1099 l 471 1225 l 344 1099 l 261 1099 l 425 1289 z "},"Ấ":{"ha":942,"x_min":40,"x_max":901,"o":"m 382 1024 l 560 1024 l 901 0 l 756 0 l 665 268 l 274 268 l 185 0 l 40 0 l 382 1024 m 631 394 l 469 903 l 307 394 l 631 394 m 810 1388 l 672 1208 l 590 1208 l 693 1388 l 810 1388 m 522 1240 l 671 1099 l 588 1099 l 471 1175 l 344 1099 l 261 1099 l 425 1240 l 522 1240 z "},"Ậ":{"ha":942,"x_min":40,"x_max":901,"o":"m 382 1024 l 560 1024 l 901 0 l 756 0 l 665 268 l 274 268 l 185 0 l 40 0 l 382 1024 m 631 394 l 469 903 l 307 394 l 631 394 m 425 1289 l 522 1289 l 671 1099 l 588 1099 l 471 1225 l 344 1099 l 261 1099 l 425 1289 m 435 -299 q 417 -292 424 -299 q 411 -275 411 -286 l 411 -158 q 435 -133 411 -133 l 500 -133 q 524 -158 524 -133 l 524 -275 q 517 -292 524 -286 q 500 -299 511 -299 l 435 -299 z "},"Ầ":{"ha":942,"x_min":40,"x_max":901,"o":"m 382 1024 l 560 1024 l 901 0 l 756 0 l 665 268 l 274 268 l 185 0 l 40 0 l 382 1024 m 631 394 l 469 903 l 307 394 l 631 394 m 246 1388 l 350 1208 l 268 1208 l 129 1388 l 246 1388 m 522 1240 l 671 1099 l 588 1099 l 471 1175 l 344 1099 l 261 1099 l 425 1240 l 522 1240 z "},"Ẩ":{"ha":942,"x_min":40,"x_max":901,"o":"m 382 1024 l 560 1024 l 901 0 l 756 0 l 665 268 l 274 268 l 185 0 l 40 0 l 382 1024 m 631 394 l 469 903 l 307 394 l 631 394 m 622 1235 q 683 1297 683 1253 q 672 1332 683 1321 q 633 1343 660 1343 q 585 1335 618 1343 l 585 1385 q 651 1396 618 1396 q 727 1372 701 1396 q 753 1306 753 1347 q 622 1172 753 1208 l 622 1235 m 425 1240 l 522 1240 l 671 1099 l 588 1099 l 471 1175 l 344 1099 l 261 1099 l 425 1240 z "},"Ẫ":{"ha":942,"x_min":40,"x_max":901,"o":"m 382 1024 l 560 1024 l 901 0 l 756 0 l 665 268 l 274 268 l 185 0 l 40 0 l 382 1024 m 631 394 l 469 903 l 307 394 l 631 394 m 360 1425 q 409 1418 386 1425 q 465 1396 432 1411 q 510 1378 492 1385 q 547 1372 528 1372 q 597 1387 578 1372 q 615 1429 615 1401 l 686 1429 q 653 1333 682 1363 q 569 1303 625 1303 q 463 1331 529 1303 q 412 1349 432 1343 q 374 1356 392 1356 q 332 1341 349 1356 q 314 1301 315 1326 l 243 1301 q 360 1425 250 1425 m 671 1099 l 588 1099 l 471 1175 l 344 1099 l 261 1099 l 425 1240 l 522 1240 l 671 1099 z "},"Ȁ":{"ha":942,"x_min":40,"x_max":901,"o":"m 382 1024 l 560 1024 l 901 0 l 756 0 l 665 268 l 274 268 l 185 0 l 40 0 l 382 1024 m 631 394 l 469 903 l 307 394 l 631 394 m 174 1290 l 289 1290 l 425 1099 l 343 1099 l 174 1290 m 390 1290 l 506 1290 l 642 1099 l 560 1099 l 390 1290 z "},"Ä":{"ha":942,"x_min":40,"x_max":901,"o":"m 382 1024 l 560 1024 l 901 0 l 756 0 l 665 268 l 274 268 l 185 0 l 40 0 l 382 1024 m 631 394 l 469 903 l 307 394 l 631 394 m 268 1122 q 251 1129 257 1122 q 244 1146 244 1136 l 244 1263 q 268 1288 244 1288 l 333 1288 q 357 1263 357 1288 l 357 1146 q 351 1128 357 1135 q 333 1122 344 1122 l 268 1122 m 586 1122 q 568 1129 575 1122 q 561 1146 561 1136 l 561 1263 q 586 1288 561 1288 l 650 1288 q 674 1263 674 1288 l 674 1146 q 667 1128 674 1135 q 650 1122 661 1122 l 586 1122 z "},"Ạ":{"ha":942,"x_min":40,"x_max":901,"o":"m 382 1024 l 560 1024 l 901 0 l 756 0 l 665 268 l 274 268 l 185 0 l 40 0 l 382 1024 m 631 394 l 469 903 l 307 394 l 631 394 m 435 -299 q 417 -292 424 -299 q 411 -275 411 -286 l 411 -158 q 435 -133 411 -133 l 500 -133 q 524 -158 524 -133 l 524 -275 q 517 -292 524 -286 q 500 -299 511 -299 l 435 -299 z "},"À":{"ha":942,"x_min":40,"x_max":901,"o":"m 382 1024 l 560 1024 l 901 0 l 756 0 l 665 268 l 274 268 l 185 0 l 40 0 l 382 1024 m 631 394 l 469 903 l 307 394 l 631 394 m 272 1290 l 388 1290 l 524 1099 l 442 1099 l 272 1290 z "},"Ả":{"ha":942,"x_min":40,"x_max":901,"o":"m 382 1024 l 560 1024 l 901 0 l 756 0 l 665 268 l 274 268 l 185 0 l 40 0 l 382 1024 m 631 394 l 469 903 l 307 394 l 631 394 m 436 1132 q 490 1163 474 1143 q 507 1206 507 1182 q 493 1246 507 1232 q 446 1260 479 1260 q 399 1251 422 1260 l 399 1308 q 464 1318 426 1318 q 552 1290 522 1318 q 582 1210 582 1261 q 436 1068 582 1110 l 436 1132 z "},"Ȃ":{"ha":942,"x_min":40,"x_max":901,"o":"m 382 1024 l 560 1024 l 901 0 l 756 0 l 665 268 l 274 268 l 185 0 l 40 0 l 382 1024 m 631 394 l 469 903 l 307 394 l 631 394 m 467 1296 q 601 1247 551 1296 q 651 1094 651 1199 l 586 1094 q 553 1198 586 1165 q 469 1231 519 1231 q 347 1094 347 1231 l 279 1094 q 330 1248 279 1200 q 467 1296 381 1296 z "},"Ā":{"ha":942,"x_min":40,"x_max":901,"o":"m 382 1024 l 560 1024 l 901 0 l 756 0 l 665 268 l 274 268 l 185 0 l 40 0 l 382 1024 m 631 394 l 469 903 l 307 394 l 631 394 m 274 1228 l 649 1228 l 649 1144 l 274 1144 l 274 1228 z "},"Ą":{"ha":942,"x_min":40,"x_max":901,"o":"m 382 1024 l 560 1024 l 901 0 l 756 0 l 665 268 l 274 268 l 185 0 l 40 0 l 382 1024 m 631 394 l 469 903 l 307 394 l 631 394 m 803 -261 q 694 -226 732 -261 q 656 -137 656 -190 q 681 -59 656 -94 q 756 0 706 -24 l 808 0 q 726 -107 726 -46 q 754 -168 726 -146 q 831 -190 782 -190 l 842 -190 l 842 -258 q 803 -261 819 -261 z "},"Å":{"ha":942,"x_min":40,"x_max":901,"o":"m 382 1024 l 560 1024 l 901 0 l 756 0 l 665 268 l 274 268 l 185 0 l 40 0 l 382 1024 m 631 394 l 469 903 l 307 394 l 631 394 m 471 1063 q 349 1097 389 1063 q 310 1214 310 1132 q 349 1331 310 1296 q 471 1367 389 1367 q 590 1332 551 1367 q 628 1214 628 1297 q 590 1097 628 1131 q 471 1063 551 1063 m 471 1118 q 540 1139 519 1118 q 561 1214 561 1160 q 540 1290 561 1268 q 471 1311 519 1311 q 399 1290 421 1311 q 376 1214 376 1268 q 399 1139 376 1160 q 471 1118 421 1118 z "},"Ǻ":{"ha":942,"x_min":40,"x_max":901,"o":"m 471 1063 q 349 1097 389 1063 q 310 1214 310 1132 q 344 1326 310 1290 q 447 1367 378 1361 l 569 1539 l 686 1539 l 529 1361 q 603 1315 579 1350 q 628 1214 628 1281 q 590 1097 628 1131 q 471 1063 551 1063 m 471 1311 q 399 1290 421 1311 q 376 1214 376 1268 q 399 1139 376 1160 q 471 1118 421 1118 q 540 1139 519 1118 q 561 1214 561 1160 q 540 1290 561 1268 q 471 1311 519 1311 m 901 0 l 756 0 l 665 268 l 274 268 l 185 0 l 40 0 l 382 1024 l 560 1024 l 901 0 m 631 394 l 469 903 l 307 394 l 631 394 z "},"Ã":{"ha":942,"x_min":40,"x_max":901,"o":"m 382 1024 l 560 1024 l 901 0 l 756 0 l 665 268 l 274 268 l 185 0 l 40 0 l 382 1024 m 631 394 l 469 903 l 307 394 l 631 394 m 224 1113 q 265 1233 226 1194 q 360 1271 304 1271 q 419 1260 392 1271 q 482 1228 447 1249 q 532 1201 513 1210 q 572 1193 551 1193 q 627 1215 607 1193 q 649 1276 647 1236 l 719 1276 q 682 1156 718 1199 q 582 1114 646 1114 q 524 1125 551 1114 q 463 1157 497 1136 q 412 1184 433 1175 q 369 1193 390 1193 q 317 1172 338 1193 q 294 1113 296 1151 l 224 1113 z "},"Æ":{"ha":1346,"x_min":40,"x_max":1271,"o":"m 882 -6 q 722 33 776 -6 q 663 163 668 71 l 663 267 l 342 267 l 178 0 l 40 0 l 511 813 q 651 975 572 926 q 858 1024 731 1024 q 1271 1008 1021 1024 l 1271 894 l 885 894 q 810 874 832 894 q 789 807 789 853 l 789 572 l 1210 564 l 1210 456 l 789 446 l 789 236 q 820 149 789 174 q 914 125 851 125 l 1271 125 l 1271 11 q 882 -6 1032 -6 m 663 386 l 663 832 l 404 386 l 663 386 z "},"Ǽ":{"ha":1346,"x_min":40,"x_max":1271,"o":"m 882 -6 q 722 33 776 -6 q 663 163 668 71 l 663 267 l 342 267 l 178 0 l 40 0 l 511 813 q 651 975 572 926 q 858 1024 731 1024 q 1271 1008 1021 1024 l 1271 894 l 885 894 q 810 874 832 894 q 789 807 789 853 l 789 572 l 1210 564 l 1210 456 l 789 446 l 789 236 q 820 149 789 174 q 914 125 851 125 l 1271 125 l 1271 11 q 882 -6 1032 -6 m 663 386 l 663 832 l 404 386 l 663 386 m 838 1290 l 954 1290 l 785 1099 l 703 1099 l 838 1290 z "},"B":{"ha":849,"x_min":101,"x_max":790,"o":"m 101 1024 l 482 1024 q 754 760 754 1024 q 715 608 754 668 q 611 532 675 549 q 736 453 682 514 q 790 283 790 392 q 717 65 790 129 q 497 0 643 0 l 101 0 l 101 1024 m 486 579 q 584 625 547 579 q 621 749 621 671 q 481 899 621 899 l 242 899 l 242 579 l 486 579 m 493 125 q 615 166 572 125 q 657 307 657 207 q 610 427 657 383 q 493 471 564 471 l 242 471 l 242 125 l 493 125 z "},"Ḃ":{"ha":849,"x_min":101,"x_max":790,"o":"m 101 1024 l 482 1024 q 754 760 754 1024 q 715 608 754 668 q 611 532 675 549 q 736 453 682 514 q 790 283 790 392 q 717 65 790 129 q 497 0 643 0 l 101 0 l 101 1024 m 486 579 q 584 625 547 579 q 621 749 621 671 q 481 899 621 899 l 242 899 l 242 579 l 486 579 m 493 125 q 615 166 572 125 q 657 307 657 207 q 610 427 657 383 q 493 471 564 471 l 242 471 l 242 125 l 493 125 m 372 1132 q 355 1139 361 1132 q 349 1156 349 1146 l 349 1272 q 372 1297 349 1297 l 438 1297 q 461 1272 461 1297 l 461 1156 q 455 1138 461 1144 q 438 1132 449 1132 l 372 1132 z "},"C":{"ha":808,"x_min":76,"x_max":749,"o":"m 440 -8 q 231 33 308 -8 q 115 187 154 74 q 76 515 76 300 q 117 832 76 719 q 236 988 157 944 q 446 1032 315 1032 q 601 1020 518 1032 q 749 992 685 1008 l 749 886 q 626 900 704 893 q 471 907 549 907 q 319 876 372 907 q 240 760 265 844 q 215 514 215 676 q 239 263 215 347 q 315 148 263 179 q 469 117 368 117 q 749 133 638 117 l 749 26 q 440 -8 610 -8 z "},"Ć":{"ha":808,"x_min":76,"x_max":749,"o":"m 440 -8 q 231 33 308 -8 q 115 187 154 74 q 76 515 76 300 q 117 832 76 719 q 236 988 157 944 q 446 1032 315 1032 q 601 1020 518 1032 q 749 992 685 1008 l 749 886 q 626 900 704 893 q 471 907 549 907 q 319 876 372 907 q 240 760 265 844 q 215 514 215 676 q 239 263 215 347 q 315 148 263 179 q 469 117 368 117 q 749 133 638 117 l 749 26 q 440 -8 610 -8 m 546 1290 l 663 1290 l 493 1099 l 411 1099 l 546 1290 z "},"Č":{"ha":808,"x_min":76,"x_max":749,"o":"m 440 -8 q 231 33 308 -8 q 115 187 154 74 q 76 515 76 300 q 117 832 76 719 q 236 988 157 944 q 446 1032 315 1032 q 601 1020 518 1032 q 749 992 685 1008 l 749 886 q 626 900 704 893 q 471 907 549 907 q 319 876 372 907 q 240 760 265 844 q 215 514 215 676 q 239 263 215 347 q 315 148 263 179 q 469 117 368 117 q 749 133 638 117 l 749 26 q 440 -8 610 -8 m 246 1289 l 329 1289 l 446 1164 l 571 1289 l 656 1289 l 492 1099 l 394 1099 l 246 1289 z "},"Ç":{"ha":808,"x_min":76,"x_max":749,"o":"m 471 907 q 319 876 372 907 q 240 760 265 844 q 215 514 215 676 q 239 263 215 347 q 315 148 263 179 q 469 117 368 117 q 749 133 638 117 l 749 26 q 501 -7 638 -1 l 458 -74 q 557 -164 557 -82 q 522 -240 557 -214 q 419 -267 486 -267 l 367 -267 l 367 -210 l 396 -207 q 467 -149 467 -199 q 383 -90 467 -96 l 436 -8 q 230 34 306 -7 q 115 188 154 75 q 76 515 76 301 q 117 832 76 719 q 236 988 157 944 q 446 1032 315 1032 q 601 1020 518 1032 q 749 992 685 1008 l 749 886 q 626 900 704 893 q 471 907 549 907 z "},"Ḉ":{"ha":808,"x_min":76,"x_max":749,"o":"m 493 1099 l 411 1099 l 546 1290 l 663 1290 l 493 1099 m 471 907 q 319 876 372 907 q 240 760 265 844 q 215 514 215 676 q 239 263 215 347 q 315 148 263 179 q 469 117 368 117 q 749 133 638 117 l 749 26 q 501 -7 638 -1 l 458 -74 q 557 -164 557 -82 q 522 -240 557 -214 q 419 -267 486 -267 l 367 -267 l 367 -210 l 396 -207 q 467 -149 467 -199 q 383 -90 467 -96 l 436 -8 q 230 34 306 -7 q 115 188 154 75 q 76 515 76 301 q 117 832 76 719 q 236 988 157 944 q 446 1032 315 1032 q 601 1020 518 1032 q 749 992 685 1008 l 749 886 q 626 900 704 893 q 471 907 549 907 z "},"Ĉ":{"ha":808,"x_min":76,"x_max":749,"o":"m 440 -8 q 231 33 308 -8 q 115 187 154 74 q 76 515 76 300 q 117 832 76 719 q 236 988 157 944 q 446 1032 315 1032 q 601 1020 518 1032 q 749 992 685 1008 l 749 886 q 626 900 704 893 q 471 907 549 907 q 319 876 372 907 q 240 760 265 844 q 215 514 215 676 q 239 263 215 347 q 315 148 263 179 q 469 117 368 117 q 749 133 638 117 l 749 26 q 440 -8 610 -8 m 401 1289 l 499 1289 l 647 1099 l 564 1099 l 447 1225 l 321 1099 l 238 1099 l 401 1289 z "},"Ċ":{"ha":808,"x_min":76,"x_max":749,"o":"m 440 -8 q 231 33 308 -8 q 115 187 154 74 q 76 515 76 300 q 117 832 76 719 q 236 988 157 944 q 446 1032 315 1032 q 601 1020 518 1032 q 749 992 685 1008 l 749 886 q 626 900 704 893 q 471 907 549 907 q 319 876 372 907 q 240 760 265 844 q 215 514 215 676 q 239 263 215 347 q 315 148 263 179 q 469 117 368 117 q 749 133 638 117 l 749 26 q 440 -8 610 -8 m 411 1132 q 394 1139 400 1132 q 388 1156 388 1146 l 388 1272 q 411 1297 388 1297 l 476 1297 q 500 1272 500 1297 l 500 1156 q 494 1138 500 1144 q 476 1132 488 1132 l 411 1132 z "},"D":{"ha":935,"x_min":101,"x_max":858,"o":"m 101 1024 l 515 1024 q 779 894 700 1024 q 858 511 858 765 q 772 131 858 263 q 515 0 685 0 l 101 0 l 101 1024 m 503 125 q 718 511 718 125 q 695 742 718 657 q 626 863 672 826 q 503 899 579 899 l 242 899 l 242 125 l 503 125 z "},"Ð":{"ha":935,"x_min":19,"x_max":858,"o":"m 515 1024 q 779 894 700 1024 q 858 511 858 765 q 772 131 858 263 q 515 0 685 0 l 101 0 l 101 471 l 19 471 l 19 564 l 101 564 l 101 1024 l 515 1024 m 503 125 q 718 511 718 125 q 695 742 718 657 q 626 863 672 826 q 503 899 579 899 l 242 899 l 242 564 l 454 564 l 454 471 l 242 471 l 242 125 l 503 125 z "},"Ď":{"ha":935,"x_min":101,"x_max":858,"o":"m 101 1024 l 515 1024 q 779 894 700 1024 q 858 511 858 765 q 772 131 858 263 q 515 0 685 0 l 101 0 l 101 1024 m 503 125 q 718 511 718 125 q 695 742 718 657 q 626 863 672 826 q 503 899 579 899 l 242 899 l 242 125 l 503 125 m 246 1289 l 329 1289 l 446 1164 l 571 1289 l 656 1289 l 492 1099 l 394 1099 l 246 1289 z "},"Đ":{"ha":935,"x_min":19,"x_max":858,"o":"m 515 1024 q 779 894 700 1024 q 858 511 858 765 q 772 131 858 263 q 515 0 685 0 l 101 0 l 101 471 l 19 471 l 19 564 l 101 564 l 101 1024 l 515 1024 m 503 125 q 718 511 718 125 q 695 742 718 657 q 626 863 672 826 q 503 899 579 899 l 242 899 l 242 564 l 454 564 l 454 471 l 242 471 l 242 125 l 503 125 z "},"Ḋ":{"ha":935,"x_min":101,"x_max":858,"o":"m 101 1024 l 515 1024 q 779 894 700 1024 q 858 511 858 765 q 772 131 858 263 q 515 0 685 0 l 101 0 l 101 1024 m 503 125 q 718 511 718 125 q 695 742 718 657 q 626 863 672 826 q 503 899 579 899 l 242 899 l 242 125 l 503 125 m 411 1132 q 394 1139 400 1132 q 388 1156 388 1146 l 388 1272 q 411 1297 388 1297 l 476 1297 q 500 1272 500 1297 l 500 1156 q 494 1138 500 1144 q 476 1132 488 1132 l 411 1132 z "},"Ḍ":{"ha":935,"x_min":101,"x_max":858,"o":"m 101 1024 l 515 1024 q 779 894 700 1024 q 858 511 858 765 q 772 131 858 263 q 515 0 685 0 l 101 0 l 101 1024 m 503 125 q 718 511 718 125 q 695 742 718 657 q 626 863 672 826 q 503 899 579 899 l 242 899 l 242 125 l 503 125 m 383 -299 q 366 -292 372 -299 q 360 -275 360 -286 l 360 -158 q 383 -133 360 -133 l 449 -133 q 472 -158 472 -133 l 472 -275 q 466 -292 472 -286 q 449 -299 460 -299 l 383 -299 z "},"Ḏ":{"ha":935,"x_min":101,"x_max":858,"o":"m 101 1024 l 515 1024 q 779 894 700 1024 q 858 511 858 765 q 772 131 858 263 q 515 0 685 0 l 101 0 l 101 1024 m 503 125 q 718 511 718 125 q 695 742 718 657 q 626 863 672 826 q 503 899 579 899 l 242 899 l 242 125 l 503 125 m 228 -189 l 603 -189 l 603 -272 l 228 -272 l 228 -189 z "},"E":{"ha":819,"x_min":101,"x_max":746,"o":"m 321 -6 q 165 36 229 -6 q 101 201 101 78 l 101 810 q 163 973 101 922 q 310 1024 224 1024 q 683 1013 475 1024 l 746 1010 l 746 894 l 351 894 q 242 785 242 894 l 242 572 l 683 564 l 683 456 l 242 446 l 242 236 q 272 148 242 171 q 354 125 303 125 l 746 125 l 746 10 q 321 -6 507 -6 z "},"É":{"ha":819,"x_min":101,"x_max":746,"o":"m 321 -6 q 165 36 229 -6 q 101 201 101 78 l 101 810 q 163 973 101 922 q 310 1024 224 1024 q 683 1013 475 1024 l 746 1010 l 746 894 l 351 894 q 242 785 242 894 l 242 572 l 683 564 l 683 456 l 242 446 l 242 236 q 272 148 242 171 q 354 125 303 125 l 746 125 l 746 10 q 321 -6 507 -6 m 533 1290 l 650 1290 l 481 1099 l 399 1099 l 533 1290 z "},"Ĕ":{"ha":819,"x_min":101,"x_max":746,"o":"m 321 -6 q 165 36 229 -6 q 101 201 101 78 l 101 810 q 163 973 101 922 q 310 1024 224 1024 q 683 1013 475 1024 l 746 1010 l 746 894 l 351 894 q 242 785 242 894 l 242 572 l 683 564 l 683 456 l 242 446 l 242 236 q 272 148 242 171 q 354 125 303 125 l 746 125 l 746 10 q 321 -6 507 -6 m 424 1093 q 289 1142 339 1093 q 239 1294 239 1190 l 304 1294 q 337 1192 304 1225 q 421 1158 369 1158 q 543 1294 543 1158 l 611 1294 q 560 1141 611 1189 q 424 1093 510 1093 z "},"Ě":{"ha":819,"x_min":101,"x_max":746,"o":"m 321 -6 q 165 36 229 -6 q 101 201 101 78 l 101 810 q 163 973 101 922 q 310 1024 224 1024 q 683 1013 475 1024 l 746 1010 l 746 894 l 351 894 q 242 785 242 894 l 242 572 l 683 564 l 683 456 l 242 446 l 242 236 q 272 148 242 171 q 354 125 303 125 l 746 125 l 746 10 q 321 -6 507 -6 m 233 1289 l 317 1289 l 433 1164 l 558 1289 l 643 1289 l 479 1099 l 382 1099 l 233 1289 z "},"Ḝ":{"ha":819,"x_min":101,"x_max":746,"o":"m 424 1093 q 289 1142 339 1093 q 239 1294 239 1190 l 304 1294 q 338 1192 304 1225 q 421 1158 371 1158 q 543 1294 543 1158 l 611 1294 q 560 1141 611 1189 q 424 1093 510 1093 m 351 894 q 242 785 242 894 l 242 572 l 683 564 l 683 456 l 242 446 l 242 236 q 272 148 242 171 q 354 125 303 125 l 746 125 l 746 10 q 489 -3 631 1 l 443 -74 q 542 -164 542 -82 q 506 -240 542 -214 q 404 -267 471 -267 l 351 -267 l 351 -210 l 381 -207 q 451 -149 451 -199 q 368 -90 451 -96 l 424 -4 l 321 -6 q 165 36 229 -6 q 101 201 101 78 l 101 810 q 163 973 101 922 q 310 1024 224 1024 q 683 1013 475 1024 l 746 1010 l 746 894 l 351 894 z "},"Ê":{"ha":819,"x_min":101,"x_max":746,"o":"m 321 -6 q 165 36 229 -6 q 101 201 101 78 l 101 810 q 163 973 101 922 q 310 1024 224 1024 q 683 1013 475 1024 l 746 1010 l 746 894 l 351 894 q 242 785 242 894 l 242 572 l 683 564 l 683 456 l 242 446 l 242 236 q 272 148 242 171 q 354 125 303 125 l 746 125 l 746 10 q 321 -6 507 -6 m 389 1289 l 486 1289 l 635 1099 l 551 1099 l 435 1225 l 308 1099 l 225 1099 l 389 1289 z "},"Ế":{"ha":819,"x_min":101,"x_max":774,"o":"m 321 -6 q 165 36 229 -6 q 101 201 101 78 l 101 810 q 163 973 101 922 q 310 1024 224 1024 q 683 1013 475 1024 l 746 1010 l 746 894 l 351 894 q 242 785 242 894 l 242 572 l 683 564 l 683 456 l 242 446 l 242 236 q 272 148 242 171 q 354 125 303 125 l 746 125 l 746 10 q 321 -6 507 -6 m 774 1388 l 636 1208 l 554 1208 l 657 1388 l 774 1388 m 486 1240 l 635 1099 l 551 1099 l 435 1175 l 308 1099 l 225 1099 l 389 1240 l 486 1240 z "},"Ệ":{"ha":819,"x_min":101,"x_max":746,"o":"m 321 -6 q 165 36 229 -6 q 101 201 101 78 l 101 810 q 163 973 101 922 q 310 1024 224 1024 q 683 1013 475 1024 l 746 1010 l 746 894 l 351 894 q 242 785 242 894 l 242 572 l 683 564 l 683 456 l 242 446 l 242 236 q 272 148 242 171 q 354 125 303 125 l 746 125 l 746 10 q 321 -6 507 -6 m 389 1289 l 486 1289 l 635 1099 l 551 1099 l 435 1225 l 308 1099 l 225 1099 l 389 1289 m 415 -299 q 398 -292 404 -299 q 392 -275 392 -286 l 392 -158 q 415 -133 392 -133 l 481 -133 q 504 -158 504 -133 l 504 -275 q 498 -292 504 -286 q 481 -299 492 -299 l 415 -299 z "},"Ề":{"ha":819,"x_min":93,"x_max":746,"o":"m 321 -6 q 165 36 229 -6 q 101 201 101 78 l 101 810 q 163 973 101 922 q 310 1024 224 1024 q 683 1013 475 1024 l 746 1010 l 746 894 l 351 894 q 242 785 242 894 l 242 572 l 683 564 l 683 456 l 242 446 l 242 236 q 272 148 242 171 q 354 125 303 125 l 746 125 l 746 10 q 321 -6 507 -6 m 210 1388 l 314 1208 l 232 1208 l 93 1388 l 210 1388 m 486 1240 l 635 1099 l 551 1099 l 435 1175 l 308 1099 l 225 1099 l 389 1240 l 486 1240 z "},"Ể":{"ha":819,"x_min":101,"x_max":746,"o":"m 321 -6 q 165 36 229 -6 q 101 201 101 78 l 101 810 q 163 973 101 922 q 310 1024 224 1024 q 683 1013 475 1024 l 746 1010 l 746 894 l 351 894 q 242 785 242 894 l 242 572 l 683 564 l 683 456 l 242 446 l 242 236 q 272 148 242 171 q 354 125 303 125 l 746 125 l 746 10 q 321 -6 507 -6 m 586 1235 q 647 1297 647 1253 q 635 1332 647 1321 q 597 1343 624 1343 q 549 1335 582 1343 l 549 1385 q 615 1396 582 1396 q 691 1372 665 1396 q 717 1306 717 1347 q 586 1172 717 1208 l 586 1235 m 389 1240 l 486 1240 l 635 1099 l 551 1099 l 435 1175 l 308 1099 l 225 1099 l 389 1240 z "},"Ễ":{"ha":819,"x_min":101,"x_max":746,"o":"m 321 -6 q 165 36 229 -6 q 101 201 101 78 l 101 810 q 163 973 101 922 q 310 1024 224 1024 q 683 1013 475 1024 l 746 1010 l 746 894 l 351 894 q 242 785 242 894 l 242 572 l 683 564 l 683 456 l 242 446 l 242 236 q 272 148 242 171 q 354 125 303 125 l 746 125 l 746 10 q 321 -6 507 -6 m 324 1425 q 373 1418 350 1425 q 429 1396 396 1411 q 474 1378 456 1385 q 511 1372 492 1372 q 560 1387 542 1372 q 579 1429 579 1401 l 650 1429 q 617 1333 646 1363 q 533 1303 589 1303 q 426 1331 493 1303 q 376 1349 396 1343 q 338 1356 356 1356 q 296 1341 313 1356 q 278 1301 279 1326 l 207 1301 q 324 1425 214 1425 m 635 1099 l 551 1099 l 435 1175 l 308 1099 l 225 1099 l 389 1240 l 486 1240 l 635 1099 z "},"Ȅ":{"ha":819,"x_min":101,"x_max":746,"o":"m 321 -6 q 165 36 229 -6 q 101 201 101 78 l 101 810 q 163 973 101 922 q 310 1024 224 1024 q 683 1013 475 1024 l 746 1010 l 746 894 l 351 894 q 242 785 242 894 l 242 572 l 683 564 l 683 456 l 242 446 l 242 236 q 272 148 242 171 q 354 125 303 125 l 746 125 l 746 10 q 321 -6 507 -6 m 138 1290 l 253 1290 l 389 1099 l 307 1099 l 138 1290 m 354 1290 l 469 1290 l 606 1099 l 524 1099 l 354 1290 z "},"Ë":{"ha":819,"x_min":101,"x_max":746,"o":"m 321 -6 q 165 36 229 -6 q 101 201 101 78 l 101 810 q 163 973 101 922 q 310 1024 224 1024 q 683 1013 475 1024 l 746 1010 l 746 894 l 351 894 q 242 785 242 894 l 242 572 l 683 564 l 683 456 l 242 446 l 242 236 q 272 148 242 171 q 354 125 303 125 l 746 125 l 746 10 q 321 -6 507 -6 m 232 1122 q 215 1129 221 1122 q 208 1146 208 1136 l 208 1263 q 232 1288 208 1288 l 297 1288 q 321 1263 321 1288 l 321 1146 q 315 1128 321 1135 q 297 1122 308 1122 l 232 1122 m 550 1122 q 532 1129 539 1122 q 525 1146 525 1136 l 525 1263 q 550 1288 525 1288 l 614 1288 q 638 1263 638 1288 l 638 1146 q 631 1128 638 1135 q 614 1122 625 1122 l 550 1122 z "},"Ė":{"ha":819,"x_min":101,"x_max":746,"o":"m 321 -6 q 165 36 229 -6 q 101 201 101 78 l 101 810 q 163 973 101 922 q 310 1024 224 1024 q 683 1013 475 1024 l 746 1010 l 746 894 l 351 894 q 242 785 242 894 l 242 572 l 683 564 l 683 456 l 242 446 l 242 236 q 272 148 242 171 q 354 125 303 125 l 746 125 l 746 10 q 321 -6 507 -6 m 399 1132 q 381 1139 388 1132 q 375 1156 375 1146 l 375 1272 q 399 1297 375 1297 l 464 1297 q 488 1272 488 1297 l 488 1156 q 481 1138 488 1144 q 464 1132 475 1132 l 399 1132 z "},"Ẹ":{"ha":819,"x_min":101,"x_max":746,"o":"m 321 -6 q 165 36 229 -6 q 101 201 101 78 l 101 810 q 163 973 101 922 q 310 1024 224 1024 q 683 1013 475 1024 l 746 1010 l 746 894 l 351 894 q 242 785 242 894 l 242 572 l 683 564 l 683 456 l 242 446 l 242 236 q 272 148 242 171 q 354 125 303 125 l 746 125 l 746 10 q 321 -6 507 -6 m 415 -299 q 398 -292 404 -299 q 392 -275 392 -286 l 392 -158 q 415 -133 392 -133 l 481 -133 q 504 -158 504 -133 l 504 -275 q 498 -292 504 -286 q 481 -299 492 -299 l 415 -299 z "},"È":{"ha":819,"x_min":101,"x_max":746,"o":"m 321 -6 q 165 36 229 -6 q 101 201 101 78 l 101 810 q 163 973 101 922 q 310 1024 224 1024 q 683 1013 475 1024 l 746 1010 l 746 894 l 351 894 q 242 785 242 894 l 242 572 l 683 564 l 683 456 l 242 446 l 242 236 q 272 148 242 171 q 354 125 303 125 l 746 125 l 746 10 q 321 -6 507 -6 m 236 1290 l 351 1290 l 488 1099 l 406 1099 l 236 1290 z "},"Ẻ":{"ha":819,"x_min":101,"x_max":746,"o":"m 321 -6 q 165 36 229 -6 q 101 201 101 78 l 101 810 q 163 973 101 922 q 310 1024 224 1024 q 683 1013 475 1024 l 746 1010 l 746 894 l 351 894 q 242 785 242 894 l 242 572 l 683 564 l 683 456 l 242 446 l 242 236 q 272 148 242 171 q 354 125 303 125 l 746 125 l 746 10 q 321 -6 507 -6 m 400 1132 q 454 1163 438 1143 q 471 1206 471 1182 q 457 1246 471 1232 q 410 1260 443 1260 q 363 1251 386 1260 l 363 1308 q 428 1318 390 1318 q 516 1290 486 1318 q 546 1210 546 1261 q 400 1068 546 1110 l 400 1132 z "},"Ȇ":{"ha":819,"x_min":101,"x_max":746,"o":"m 321 -6 q 165 36 229 -6 q 101 201 101 78 l 101 810 q 163 973 101 922 q 310 1024 224 1024 q 683 1013 475 1024 l 746 1010 l 746 894 l 351 894 q 242 785 242 894 l 242 572 l 683 564 l 683 456 l 242 446 l 242 236 q 272 148 242 171 q 354 125 303 125 l 746 125 l 746 10 q 321 -6 507 -6 m 431 1296 q 565 1247 515 1296 q 615 1094 615 1199 l 550 1094 q 517 1198 550 1165 q 433 1231 483 1231 q 311 1094 311 1231 l 243 1094 q 294 1248 243 1200 q 431 1296 344 1296 z "},"Ē":{"ha":819,"x_min":101,"x_max":746,"o":"m 321 -6 q 165 36 229 -6 q 101 201 101 78 l 101 810 q 163 973 101 922 q 310 1024 224 1024 q 683 1013 475 1024 l 746 1010 l 746 894 l 351 894 q 242 785 242 894 l 242 572 l 683 564 l 683 456 l 242 446 l 242 236 q 272 148 242 171 q 354 125 303 125 l 746 125 l 746 10 q 321 -6 507 -6 m 238 1228 l 613 1228 l 613 1144 l 238 1144 l 238 1228 z "},"Ḗ":{"ha":819,"x_min":101,"x_max":746,"o":"m 321 -6 q 165 36 229 -6 q 101 201 101 78 l 101 810 q 163 973 101 922 q 310 1024 224 1024 q 683 1013 475 1024 l 746 1010 l 746 894 l 351 894 q 242 785 242 894 l 242 572 l 683 564 l 683 456 l 242 446 l 242 236 q 272 148 242 171 q 354 125 303 125 l 746 125 l 746 10 q 321 -6 507 -6 m 238 1228 l 613 1228 l 613 1144 l 238 1144 l 238 1228 m 525 1476 l 642 1476 l 472 1285 l 390 1285 l 525 1476 z "},"Ḕ":{"ha":819,"x_min":101,"x_max":746,"o":"m 321 -6 q 165 36 229 -6 q 101 201 101 78 l 101 810 q 163 973 101 922 q 310 1024 224 1024 q 683 1013 475 1024 l 746 1010 l 746 894 l 351 894 q 242 785 242 894 l 242 572 l 683 564 l 683 456 l 242 446 l 242 236 q 272 148 242 171 q 354 125 303 125 l 746 125 l 746 10 q 321 -6 507 -6 m 238 1228 l 613 1228 l 613 1144 l 238 1144 l 238 1228 m 217 1476 l 332 1476 l 468 1285 l 386 1285 l 217 1476 z "},"Ę":{"ha":819,"x_min":101,"x_max":779,"o":"m 779 -181 l 779 -249 q 740 -251 757 -251 q 631 -216 669 -251 q 593 -128 593 -181 q 617 -52 593 -86 q 686 6 640 -18 q 321 -6 453 -6 q 165 36 229 -6 q 101 201 101 78 l 101 810 q 163 973 101 922 q 310 1024 224 1024 q 683 1013 475 1024 l 746 1010 l 746 894 l 351 894 q 242 785 242 894 l 242 572 l 683 564 l 683 456 l 242 446 l 242 236 q 272 148 242 171 q 354 125 303 125 l 746 125 l 746 10 q 664 -97 664 -36 q 692 -158 664 -136 q 768 -181 719 -181 l 779 -181 z "},"Ẽ":{"ha":819,"x_min":101,"x_max":746,"o":"m 321 -6 q 165 36 229 -6 q 101 201 101 78 l 101 810 q 163 973 101 922 q 310 1024 224 1024 q 683 1013 475 1024 l 746 1010 l 746 894 l 351 894 q 242 785 242 894 l 242 572 l 683 564 l 683 456 l 242 446 l 242 236 q 272 148 242 171 q 354 125 303 125 l 746 125 l 746 10 q 321 -6 507 -6 m 188 1113 q 229 1233 190 1194 q 324 1271 268 1271 q 383 1260 356 1271 q 446 1228 411 1249 q 496 1201 476 1210 q 536 1193 515 1193 q 591 1215 571 1193 q 613 1276 611 1236 l 683 1276 q 646 1156 682 1199 q 546 1114 610 1114 q 488 1125 515 1114 q 426 1157 461 1136 q 376 1184 397 1175 q 333 1193 354 1193 q 281 1172 301 1193 q 258 1113 260 1151 l 188 1113 z "},"F":{"ha":794,"x_min":101,"x_max":746,"o":"m 101 810 q 163 973 101 922 q 310 1024 224 1024 q 746 1008 563 1024 l 746 894 l 349 894 q 269 866 297 894 q 242 786 242 838 l 242 549 l 683 540 l 683 432 l 242 424 l 242 0 l 101 0 l 101 810 z "},"Ḟ":{"ha":794,"x_min":101,"x_max":746,"o":"m 101 810 q 163 973 101 922 q 310 1024 224 1024 q 746 1008 563 1024 l 746 894 l 349 894 q 269 866 297 894 q 242 786 242 838 l 242 549 l 683 540 l 683 432 l 242 424 l 242 0 l 101 0 l 101 810 m 399 1132 q 381 1139 388 1132 q 375 1156 375 1146 l 375 1272 q 399 1297 375 1297 l 464 1297 q 488 1272 488 1297 l 488 1156 q 481 1138 488 1144 q 464 1132 475 1132 l 399 1132 z "},"G":{"ha":913,"x_min":76,"x_max":811,"o":"m 399 -7 q 202 50 272 -7 q 104 219 132 107 q 76 514 76 332 q 107 806 76 694 q 215 975 138 918 q 432 1032 293 1032 q 767 994 600 1032 l 767 888 q 456 907 607 907 q 307 869 358 907 q 235 747 256 831 q 215 513 215 663 q 235 272 215 356 q 303 155 256 189 q 442 121 351 121 q 676 167 549 121 l 676 438 l 449 438 l 449 544 q 681 558 539 558 q 811 553 742 558 l 811 0 l 707 0 l 686 71 q 553 17 629 40 q 399 -7 478 -7 z "},"Ğ":{"ha":913,"x_min":76,"x_max":811,"o":"m 399 -7 q 202 50 272 -7 q 104 219 132 107 q 76 514 76 332 q 107 806 76 694 q 215 975 138 918 q 432 1032 293 1032 q 767 994 600 1032 l 767 888 q 456 907 607 907 q 307 869 358 907 q 235 747 256 831 q 215 513 215 663 q 235 272 215 356 q 303 155 256 189 q 442 121 351 121 q 676 167 549 121 l 676 438 l 449 438 l 449 544 q 681 558 539 558 q 811 553 742 558 l 811 0 l 707 0 l 686 71 q 553 17 629 40 q 399 -7 478 -7 m 444 1093 q 310 1142 360 1093 q 260 1294 260 1190 l 325 1294 q 358 1192 325 1225 q 442 1158 390 1158 q 564 1294 564 1158 l 632 1294 q 581 1141 632 1189 q 444 1093 531 1093 z "},"Ǧ":{"ha":913,"x_min":76,"x_max":811,"o":"m 399 -7 q 202 50 272 -7 q 104 219 132 107 q 76 514 76 332 q 107 806 76 694 q 215 975 138 918 q 432 1032 293 1032 q 767 994 600 1032 l 767 888 q 456 907 607 907 q 307 869 358 907 q 235 747 256 831 q 215 513 215 663 q 235 272 215 356 q 303 155 256 189 q 442 121 351 121 q 676 167 549 121 l 676 438 l 449 438 l 449 544 q 681 558 539 558 q 811 553 742 558 l 811 0 l 707 0 l 686 71 q 553 17 629 40 q 399 -7 478 -7 m 254 1289 l 338 1289 l 454 1164 l 579 1289 l 664 1289 l 500 1099 l 403 1099 l 254 1289 z "},"Ĝ":{"ha":913,"x_min":76,"x_max":811,"o":"m 399 -7 q 202 50 272 -7 q 104 219 132 107 q 76 514 76 332 q 107 806 76 694 q 215 975 138 918 q 432 1032 293 1032 q 767 994 600 1032 l 767 888 q 456 907 607 907 q 307 869 358 907 q 235 747 256 831 q 215 513 215 663 q 235 272 215 356 q 303 155 256 189 q 442 121 351 121 q 676 167 549 121 l 676 438 l 449 438 l 449 544 q 681 558 539 558 q 811 553 742 558 l 811 0 l 707 0 l 686 71 q 553 17 629 40 q 399 -7 478 -7 m 410 1289 l 507 1289 l 656 1099 l 572 1099 l 456 1225 l 329 1099 l 246 1099 l 410 1289 z "},"Ģ":{"ha":913,"x_min":76,"x_max":811,"o":"m 399 -7 q 202 50 272 -7 q 104 219 132 107 q 76 514 76 332 q 107 806 76 694 q 215 975 138 918 q 432 1032 293 1032 q 767 994 600 1032 l 767 888 q 456 907 607 907 q 307 869 358 907 q 235 747 256 831 q 215 513 215 663 q 235 272 215 356 q 303 155 256 189 q 442 121 351 121 q 676 167 549 121 l 676 438 l 449 438 l 449 544 q 681 558 539 558 q 811 553 742 558 l 811 0 l 707 0 l 686 71 q 553 17 629 40 q 399 -7 478 -7 m 361 -229 l 401 -222 q 454 -205 436 -215 q 481 -169 472 -194 q 489 -92 489 -143 l 575 -92 q 562 -206 575 -165 q 515 -267 549 -247 q 419 -286 481 -286 l 361 -286 l 361 -229 z "},"Ġ":{"ha":913,"x_min":76,"x_max":811,"o":"m 399 -7 q 202 50 272 -7 q 104 219 132 107 q 76 514 76 332 q 107 806 76 694 q 215 975 138 918 q 432 1032 293 1032 q 767 994 600 1032 l 767 888 q 456 907 607 907 q 307 869 358 907 q 235 747 256 831 q 215 513 215 663 q 235 272 215 356 q 303 155 256 189 q 442 121 351 121 q 676 167 549 121 l 676 438 l 449 438 l 449 544 q 681 558 539 558 q 811 553 742 558 l 811 0 l 707 0 l 686 71 q 553 17 629 40 q 399 -7 478 -7 m 419 1132 q 402 1139 408 1132 q 396 1156 396 1146 l 396 1272 q 419 1297 396 1297 l 485 1297 q 508 1272 508 1297 l 508 1156 q 502 1138 508 1144 q 485 1132 496 1132 l 419 1132 z "},"Ḡ":{"ha":913,"x_min":76,"x_max":811,"o":"m 399 -7 q 202 50 272 -7 q 104 219 132 107 q 76 514 76 332 q 107 806 76 694 q 215 975 138 918 q 432 1032 293 1032 q 767 994 600 1032 l 767 888 q 456 907 607 907 q 307 869 358 907 q 235 747 256 831 q 215 513 215 663 q 235 272 215 356 q 303 155 256 189 q 442 121 351 121 q 676 167 549 121 l 676 438 l 449 438 l 449 544 q 681 558 539 558 q 811 553 742 558 l 811 0 l 707 0 l 686 71 q 553 17 629 40 q 399 -7 478 -7 m 258 1228 l 633 1228 l 633 1144 l 258 1144 l 258 1228 z "},"H":{"ha":956,"x_min":101,"x_max":854,"o":"m 101 1024 l 242 1024 l 242 564 l 715 564 l 715 1024 l 854 1024 l 854 0 l 715 0 l 715 439 l 242 439 l 242 0 l 101 0 l 101 1024 z "},"Ħ":{"ha":956,"x_min":19,"x_max":936,"o":"m 936 726 l 854 726 l 854 0 l 715 0 l 715 439 l 242 439 l 242 0 l 101 0 l 101 726 l 19 726 l 19 801 l 101 801 l 101 1024 l 242 1024 l 242 801 l 715 801 l 715 1024 l 854 1024 l 854 801 l 936 801 l 936 726 m 715 726 l 242 726 l 242 564 l 715 564 l 715 726 z "},"Ḫ":{"ha":956,"x_min":101,"x_max":854,"o":"m 101 1024 l 242 1024 l 242 564 l 715 564 l 715 1024 l 854 1024 l 854 0 l 715 0 l 715 439 l 242 439 l 242 0 l 101 0 l 101 1024 m 475 -310 q 340 -261 390 -310 q 290 -108 290 -212 l 356 -108 q 388 -212 356 -179 q 472 -244 421 -244 q 594 -108 594 -244 l 663 -108 q 612 -262 663 -214 q 475 -310 561 -310 z "},"Ĥ":{"ha":956,"x_min":101,"x_max":854,"o":"m 101 1024 l 242 1024 l 242 564 l 715 564 l 715 1024 l 854 1024 l 854 0 l 715 0 l 715 439 l 242 439 l 242 0 l 101 0 l 101 1024 m 433 1289 l 531 1289 l 679 1099 l 596 1099 l 479 1225 l 353 1099 l 269 1099 l 433 1289 z "},"Ḥ":{"ha":956,"x_min":101,"x_max":854,"o":"m 101 1024 l 242 1024 l 242 564 l 715 564 l 715 1024 l 854 1024 l 854 0 l 715 0 l 715 439 l 242 439 l 242 0 l 101 0 l 101 1024 m 443 -299 q 426 -292 432 -299 q 419 -275 419 -286 l 419 -158 q 443 -133 419 -133 l 508 -133 q 532 -158 532 -133 l 532 -275 q 526 -292 532 -286 q 508 -299 519 -299 l 443 -299 z "},"I":{"ha":343,"x_min":101,"x_max":242,"o":"m 101 1024 l 242 1024 l 242 0 l 101 0 l 101 1024 z "},"Í":{"ha":343,"x_min":101,"x_max":388,"o":"m 101 1024 l 242 1024 l 242 0 l 101 0 l 101 1024 m 271 1290 l 388 1290 l 218 1099 l 136 1099 l 271 1290 z "},"Ĭ":{"ha":343,"x_min":-24,"x_max":349,"o":"m 101 1024 l 242 1024 l 242 0 l 101 0 l 101 1024 m 161 1093 q 26 1142 76 1093 q -24 1294 -24 1190 l 42 1294 q 74 1192 42 1225 q 158 1158 107 1158 q 281 1294 281 1158 l 349 1294 q 298 1141 349 1189 q 161 1093 247 1093 z "},"Î":{"ha":343,"x_min":-37,"x_max":372,"o":"m 101 1024 l 242 1024 l 242 0 l 101 0 l 101 1024 m 126 1289 l 224 1289 l 372 1099 l 289 1099 l 172 1225 l 46 1099 l -37 1099 l 126 1289 z "},"Ȉ":{"ha":343,"x_min":-125,"x_max":343,"o":"m 101 1024 l 242 1024 l 242 0 l 101 0 l 101 1024 m -125 1290 l -10 1290 l 126 1099 l 44 1099 l -125 1290 m 92 1290 l 207 1290 l 343 1099 l 261 1099 l 92 1290 z "},"Ï":{"ha":343,"x_min":-54,"x_max":375,"o":"m 101 1024 l 242 1024 l 242 0 l 101 0 l 101 1024 m -31 1122 q -48 1129 -42 1122 q -54 1146 -54 1136 l -54 1263 q -31 1288 -54 1288 l 35 1288 q 58 1263 58 1288 l 58 1146 q 52 1128 58 1135 q 35 1122 46 1122 l -31 1122 m 288 1122 q 269 1129 276 1122 q 263 1146 263 1136 l 263 1263 q 288 1288 263 1288 l 351 1288 q 375 1263 375 1288 l 375 1146 q 369 1128 375 1135 q 351 1122 363 1122 l 288 1122 z "},"Ḯ":{"ha":343,"x_min":-54,"x_max":382,"o":"m 101 1024 l 242 1024 l 242 0 l 101 0 l 101 1024 m -31 1122 q -48 1129 -42 1122 q -54 1146 -54 1136 l -54 1263 q -31 1288 -54 1288 l 35 1288 q 58 1263 58 1288 l 58 1146 q 52 1128 58 1135 q 35 1122 46 1122 l -31 1122 m 288 1122 q 269 1129 276 1122 q 263 1146 263 1136 l 263 1263 q 288 1288 263 1288 l 351 1288 q 375 1263 375 1288 l 375 1146 q 369 1128 375 1135 q 351 1122 363 1122 l 288 1122 m 265 1524 l 382 1524 l 213 1332 l 131 1332 l 265 1524 z "},"İ":{"ha":343,"x_min":101,"x_max":242,"o":"m 101 1024 l 242 1024 l 242 0 l 101 0 l 101 1024 m 136 1132 q 119 1139 125 1132 q 113 1156 113 1146 l 113 1272 q 136 1297 113 1297 l 201 1297 q 225 1272 225 1297 l 225 1156 q 219 1138 225 1144 q 201 1132 213 1132 l 136 1132 z "},"Ị":{"ha":343,"x_min":101,"x_max":242,"o":"m 101 1024 l 242 1024 l 242 0 l 101 0 l 101 1024 m 136 -299 q 119 -292 125 -299 q 113 -275 113 -286 l 113 -158 q 136 -133 113 -133 l 201 -133 q 225 -158 225 -133 l 225 -275 q 219 -292 225 -286 q 201 -299 213 -299 l 136 -299 z "},"Ì":{"ha":343,"x_min":-26,"x_max":242,"o":"m 101 1024 l 242 1024 l 242 0 l 101 0 l 101 1024 m -26 1290 l 89 1290 l 225 1099 l 143 1099 l -26 1290 z "},"Ỉ":{"ha":343,"x_min":100,"x_max":283,"o":"m 101 1024 l 242 1024 l 242 0 l 101 0 l 101 1024 m 138 1132 q 192 1163 175 1143 q 208 1206 208 1182 q 194 1246 208 1232 q 147 1260 181 1260 q 100 1251 124 1260 l 100 1308 q 165 1318 128 1318 q 253 1290 224 1318 q 283 1210 283 1261 q 138 1068 283 1110 l 138 1132 z "},"Ȋ":{"ha":343,"x_min":-19,"x_max":353,"o":"m 101 1024 l 242 1024 l 242 0 l 101 0 l 101 1024 m 168 1296 q 303 1247 253 1296 q 353 1094 353 1199 l 288 1094 q 254 1198 288 1165 q 171 1231 221 1231 q 49 1094 49 1231 l -19 1094 q 31 1248 -19 1200 q 168 1296 82 1296 z "},"Ī":{"ha":343,"x_min":-25,"x_max":350,"o":"m 101 1024 l 242 1024 l 242 0 l 101 0 l 101 1024 m -25 1228 l 350 1228 l 350 1144 l -25 1144 l -25 1228 z "},"Į":{"ha":343,"x_min":89,"x_max":275,"o":"m 101 1024 l 242 1024 l 242 0 l 101 0 l 101 1024 m 236 -261 q 127 -226 165 -261 q 89 -137 89 -190 q 114 -59 89 -94 q 189 0 139 -24 l 242 0 q 160 -107 160 -46 q 188 -168 160 -146 q 264 -190 215 -190 l 275 -190 l 275 -258 q 236 -261 253 -261 z "},"Ĩ":{"ha":343,"x_min":-74,"x_max":422,"o":"m 101 1024 l 242 1024 l 242 0 l 101 0 l 101 1024 m -74 1113 q -32 1233 -71 1194 q 63 1271 7 1271 q 122 1260 94 1271 q 185 1228 150 1249 q 235 1201 215 1210 q 275 1193 254 1193 q 330 1215 310 1193 q 351 1276 350 1236 l 422 1276 q 385 1156 421 1199 q 285 1114 349 1114 q 227 1125 254 1114 q 165 1157 200 1136 q 115 1184 136 1175 q 72 1193 93 1193 q 19 1172 40 1193 q -3 1113 -1 1151 l -74 1113 z "},"J":{"ha":543,"x_min":38,"x_max":440,"o":"m 199 -8 q 113 1 157 -8 q 38 22 68 10 l 38 132 q 169 117 124 117 q 268 147 235 117 q 301 251 301 176 l 301 1024 l 440 1024 l 440 233 q 382 49 440 106 q 199 -8 324 -8 z "},"Ĵ":{"ha":543,"x_min":38,"x_max":572,"o":"m 199 -8 q 113 1 157 -8 q 38 22 68 10 l 38 132 q 169 117 124 117 q 268 147 235 117 q 301 251 301 176 l 301 1024 l 440 1024 l 440 233 q 382 49 440 106 q 199 -8 324 -8 m 326 1289 l 424 1289 l 572 1099 l 489 1099 l 372 1225 l 246 1099 l 163 1099 l 326 1289 z "},"K":{"ha":858,"x_min":101,"x_max":821,"o":"m 101 1024 l 242 1024 l 242 572 l 408 572 l 667 1024 l 815 1024 l 518 511 l 821 0 l 671 0 l 407 447 l 242 447 l 242 0 l 101 0 l 101 1024 z "},"Ķ":{"ha":858,"x_min":101,"x_max":821,"o":"m 101 1024 l 242 1024 l 242 572 l 408 572 l 667 1024 l 815 1024 l 518 511 l 821 0 l 671 0 l 407 447 l 242 447 l 242 0 l 101 0 l 101 1024 m 303 -229 l 343 -222 q 396 -205 378 -215 q 422 -169 414 -194 q 431 -92 431 -143 l 517 -92 q 503 -206 517 -165 q 456 -267 490 -247 q 361 -286 422 -286 l 303 -286 l 303 -229 z "},"L":{"ha":740,"x_min":101,"x_max":706,"o":"m 318 0 q 157 50 213 0 q 101 217 101 100 l 101 1024 l 242 1024 l 242 238 q 271 151 242 175 q 351 128 300 128 l 706 128 l 706 0 l 318 0 z "},"Ĺ":{"ha":740,"x_min":101,"x_max":706,"o":"m 318 0 q 157 50 213 0 q 101 217 101 100 l 101 1024 l 242 1024 l 242 238 q 271 151 242 175 q 351 128 300 128 l 706 128 l 706 0 l 318 0 m 271 1290 l 388 1290 l 218 1099 l 136 1099 l 271 1290 z "},"Ľ":{"ha":740,"x_min":101,"x_max":706,"o":"m 318 0 q 157 50 213 0 q 101 217 101 100 l 101 1024 l 242 1024 l 242 238 q 271 151 242 175 q 351 128 300 128 l 706 128 l 706 0 l 318 0 m 356 1003 l 356 1088 l 483 1088 l 483 1003 l 474 808 l 365 808 l 356 1003 z "},"Ļ":{"ha":740,"x_min":101,"x_max":706,"o":"m 318 0 q 157 50 213 0 q 101 217 101 100 l 101 1024 l 242 1024 l 242 238 q 271 151 242 175 q 351 128 300 128 l 706 128 l 706 0 l 318 0 m 269 -229 l 310 -222 q 363 -205 344 -215 q 389 -169 381 -194 q 397 -92 397 -143 l 483 -92 q 470 -206 483 -165 q 423 -267 457 -247 q 328 -286 389 -286 l 269 -286 l 269 -229 z "},"Ŀ":{"ha":740,"x_min":101,"x_max":706,"o":"m 318 0 q 157 50 213 0 q 101 217 101 100 l 101 1024 l 242 1024 l 242 238 q 271 151 242 175 q 351 128 300 128 l 706 128 l 706 0 l 318 0 m 517 481 q 500 488 507 481 q 493 504 493 494 l 493 588 q 517 613 493 613 l 596 613 q 621 588 621 613 l 621 504 q 596 481 621 481 l 517 481 z "},"Ḷ":{"ha":740,"x_min":101,"x_max":706,"o":"m 318 0 q 157 50 213 0 q 101 217 101 100 l 101 1024 l 242 1024 l 242 238 q 271 151 242 175 q 351 128 300 128 l 706 128 l 706 0 l 318 0 m 351 -299 q 334 -292 340 -299 q 328 -275 328 -286 l 328 -158 q 351 -133 328 -133 l 417 -133 q 440 -158 440 -133 l 440 -275 q 434 -292 440 -286 q 417 -299 428 -299 l 351 -299 z "},"Ḻ":{"ha":740,"x_min":101,"x_max":706,"o":"m 318 0 q 157 50 213 0 q 101 217 101 100 l 101 1024 l 242 1024 l 242 238 q 271 151 242 175 q 351 128 300 128 l 706 128 l 706 0 l 318 0 m 196 -189 l 571 -189 l 571 -272 l 196 -272 l 196 -189 z "},"Ł":{"ha":740,"x_min":0,"x_max":706,"o":"m 706 128 l 706 0 l 318 0 q 157 50 213 0 q 101 217 101 100 l 101 475 l 0 432 l 0 511 l 101 554 l 101 1024 l 242 1024 l 242 597 l 426 678 l 426 600 l 242 519 l 242 238 q 271 151 242 175 q 351 128 300 128 l 706 128 z "},"M":{"ha":1181,"x_min":74,"x_max":1107,"o":"m 972 0 l 879 792 l 654 0 l 525 0 l 297 788 l 208 0 l 74 0 l 190 1024 l 329 1024 l 590 169 l 847 1024 l 988 1024 l 1107 0 l 972 0 z "},"Ṁ":{"ha":1181,"x_min":74,"x_max":1107,"o":"m 972 0 l 879 792 l 654 0 l 525 0 l 297 788 l 208 0 l 74 0 l 190 1024 l 329 1024 l 590 169 l 847 1024 l 988 1024 l 1107 0 l 972 0 m 549 1132 q 531 1139 538 1132 q 525 1156 525 1146 l 525 1272 q 549 1297 525 1297 l 614 1297 q 638 1272 638 1297 l 638 1156 q 631 1138 638 1144 q 614 1132 625 1132 l 549 1132 z "},"Ṃ":{"ha":1181,"x_min":74,"x_max":1107,"o":"m 972 0 l 879 792 l 654 0 l 525 0 l 297 788 l 208 0 l 74 0 l 190 1024 l 329 1024 l 590 169 l 847 1024 l 988 1024 l 1107 0 l 972 0 m 549 -299 q 531 -292 538 -299 q 525 -275 525 -286 l 525 -158 q 549 -133 525 -133 l 614 -133 q 638 -158 638 -133 l 638 -275 q 631 -292 638 -286 q 614 -299 625 -299 l 549 -299 z "},"N":{"ha":957,"x_min":117,"x_max":871,"o":"m 117 1024 l 231 1024 l 732 239 l 732 1024 l 871 1024 l 871 0 l 758 0 l 257 785 l 257 0 l 117 0 l 117 1024 z "},"Ń":{"ha":957,"x_min":117,"x_max":871,"o":"m 117 1024 l 231 1024 l 732 239 l 732 1024 l 871 1024 l 871 0 l 758 0 l 257 785 l 257 0 l 117 0 l 117 1024 m 572 1290 l 689 1290 l 519 1099 l 438 1099 l 572 1290 z "},"Ň":{"ha":957,"x_min":117,"x_max":871,"o":"m 117 1024 l 231 1024 l 732 239 l 732 1024 l 871 1024 l 871 0 l 758 0 l 257 785 l 257 0 l 117 0 l 117 1024 m 272 1289 l 356 1289 l 472 1164 l 597 1289 l 682 1289 l 518 1099 l 421 1099 l 272 1289 z "},"Ņ":{"ha":957,"x_min":117,"x_max":871,"o":"m 117 1024 l 231 1024 l 732 239 l 732 1024 l 871 1024 l 871 0 l 758 0 l 257 785 l 257 0 l 117 0 l 117 1024 m 356 -229 l 396 -222 q 449 -205 431 -215 q 475 -169 467 -194 q 483 -92 483 -143 l 569 -92 q 556 -206 569 -165 q 509 -267 543 -247 q 414 -286 475 -286 l 356 -286 l 356 -229 z "},"Ṅ":{"ha":957,"x_min":117,"x_max":871,"o":"m 117 1024 l 231 1024 l 732 239 l 732 1024 l 871 1024 l 871 0 l 758 0 l 257 785 l 257 0 l 117 0 l 117 1024 m 438 -299 q 420 -292 426 -299 q 414 -275 414 -286 l 414 -158 q 438 -133 414 -133 l 503 -133 q 526 -158 526 -133 l 526 -275 q 520 -292 526 -286 q 503 -299 514 -299 l 438 -299 z "},"Ṇ":{"ha":957,"x_min":117,"x_max":871,"o":"m 117 1024 l 231 1024 l 732 239 l 732 1024 l 871 1024 l 871 0 l 758 0 l 257 785 l 257 0 l 117 0 l 117 1024 m 438 -299 q 420 -292 426 -299 q 414 -275 414 -286 l 414 -158 q 438 -133 414 -133 l 503 -133 q 526 -158 526 -133 l 526 -275 q 520 -292 526 -286 q 503 -299 514 -299 l 438 -299 z "},"Ŋ":{"ha":951,"x_min":117,"x_max":871,"o":"m 871 1024 l 871 -97 q 809 -281 871 -224 q 614 -337 747 -337 q 529 -328 574 -337 q 453 -307 485 -319 l 453 -197 q 590 -212 542 -212 q 696 -183 660 -212 q 732 -78 732 -153 l 732 42 l 257 785 l 257 0 l 117 0 l 117 1024 l 231 1024 l 732 239 l 732 1024 l 871 1024 z "},"Ṉ":{"ha":957,"x_min":117,"x_max":871,"o":"m 117 1024 l 231 1024 l 732 239 l 732 1024 l 871 1024 l 871 0 l 758 0 l 257 785 l 257 0 l 117 0 l 117 1024 m 282 -189 l 657 -189 l 657 -272 l 282 -272 l 282 -189 z "},"Ñ":{"ha":957,"x_min":117,"x_max":871,"o":"m 117 1024 l 231 1024 l 732 239 l 732 1024 l 871 1024 l 871 0 l 758 0 l 257 785 l 257 0 l 117 0 l 117 1024 m 228 1113 q 269 1233 231 1194 q 364 1271 308 1271 q 424 1260 396 1271 q 486 1228 451 1249 q 536 1201 517 1210 q 576 1193 556 1193 q 631 1215 611 1193 q 653 1276 651 1236 l 724 1276 q 686 1156 722 1199 q 586 1114 650 1114 q 528 1125 556 1114 q 467 1157 501 1136 q 416 1184 438 1175 q 374 1193 394 1193 q 321 1172 342 1193 q 299 1113 300 1151 l 228 1113 z "},"O":{"ha":958,"x_min":76,"x_max":883,"o":"m 479 -8 q 249 31 333 -8 q 120 181 164 69 q 76 508 76 292 q 121 838 76 725 q 250 992 165 951 q 479 1032 335 1032 q 711 992 626 1032 q 840 838 796 951 q 883 508 883 725 q 840 181 883 292 q 711 31 796 69 q 479 -8 626 -8 m 479 117 q 638 146 582 117 q 718 258 693 175 q 743 508 743 342 q 718 767 743 682 q 638 879 693 851 q 479 907 583 907 q 324 878 379 907 q 242 765 269 850 q 215 508 215 681 q 240 258 215 340 q 319 146 264 175 q 479 117 374 117 z "},"Ó":{"ha":958,"x_min":76,"x_max":883,"o":"m 479 -8 q 249 31 333 -8 q 120 181 164 69 q 76 508 76 292 q 121 838 76 725 q 250 992 165 951 q 479 1032 335 1032 q 711 992 626 1032 q 840 838 796 951 q 883 508 883 725 q 840 181 883 292 q 711 31 796 69 q 479 -8 626 -8 m 479 117 q 638 146 582 117 q 718 258 693 175 q 743 508 743 342 q 718 767 743 682 q 638 879 693 851 q 479 907 583 907 q 324 878 379 907 q 242 765 269 850 q 215 508 215 681 q 240 258 215 340 q 319 146 264 175 q 479 117 374 117 m 579 1290 l 696 1290 l 526 1099 l 444 1099 l 579 1290 z "},"Ŏ":{"ha":958,"x_min":76,"x_max":883,"o":"m 479 -8 q 249 31 333 -8 q 120 181 164 69 q 76 508 76 292 q 121 838 76 725 q 250 992 165 951 q 479 1032 335 1032 q 711 992 626 1032 q 840 838 796 951 q 883 508 883 725 q 840 181 883 292 q 711 31 796 69 q 479 -8 626 -8 m 479 117 q 638 146 582 117 q 718 258 693 175 q 743 508 743 342 q 718 767 743 682 q 638 879 693 851 q 479 907 583 907 q 324 878 379 907 q 242 765 269 850 q 215 508 215 681 q 240 258 215 340 q 319 146 264 175 q 479 117 374 117 m 469 1093 q 335 1142 385 1093 q 285 1294 285 1190 l 350 1294 q 383 1192 350 1225 q 467 1158 415 1158 q 589 1294 589 1158 l 657 1294 q 606 1141 657 1189 q 469 1093 556 1093 z "},"Ô":{"ha":958,"x_min":76,"x_max":883,"o":"m 479 -8 q 249 31 333 -8 q 120 181 164 69 q 76 508 76 292 q 121 838 76 725 q 250 992 165 951 q 479 1032 335 1032 q 711 992 626 1032 q 840 838 796 951 q 883 508 883 725 q 840 181 883 292 q 711 31 796 69 q 479 -8 626 -8 m 479 117 q 638 146 582 117 q 718 258 693 175 q 743 508 743 342 q 718 767 743 682 q 638 879 693 851 q 479 907 583 907 q 324 878 379 907 q 242 765 269 850 q 215 508 215 681 q 240 258 215 340 q 319 146 264 175 q 479 117 374 117 m 435 1289 l 532 1289 l 681 1099 l 597 1099 l 481 1225 l 354 1099 l 271 1099 l 435 1289 z "},"Ố":{"ha":958,"x_min":76,"x_max":883,"o":"m 479 -8 q 249 31 333 -8 q 120 181 164 69 q 76 508 76 292 q 121 838 76 725 q 250 992 165 951 q 479 1032 335 1032 q 711 992 626 1032 q 840 838 796 951 q 883 508 883 725 q 840 181 883 292 q 711 31 796 69 q 479 -8 626 -8 m 479 117 q 638 146 582 117 q 718 258 693 175 q 743 508 743 342 q 718 767 743 682 q 638 879 693 851 q 479 907 583 907 q 324 878 379 907 q 242 765 269 850 q 215 508 215 681 q 240 258 215 340 q 319 146 264 175 q 479 117 374 117 m 819 1388 l 682 1208 l 600 1208 l 703 1388 l 819 1388 m 532 1240 l 681 1099 l 597 1099 l 481 1175 l 354 1099 l 271 1099 l 435 1240 l 532 1240 z "},"Ộ":{"ha":958,"x_min":76,"x_max":883,"o":"m 479 -8 q 249 31 333 -8 q 120 181 164 69 q 76 508 76 292 q 121 838 76 725 q 250 992 165 951 q 479 1032 335 1032 q 711 992 626 1032 q 840 838 796 951 q 883 508 883 725 q 840 181 883 292 q 711 31 796 69 q 479 -8 626 -8 m 479 117 q 638 146 582 117 q 718 258 693 175 q 743 508 743 342 q 718 767 743 682 q 638 879 693 851 q 479 907 583 907 q 324 878 379 907 q 242 765 269 850 q 215 508 215 681 q 240 258 215 340 q 319 146 264 175 q 479 117 374 117 m 435 1289 l 532 1289 l 681 1099 l 597 1099 l 481 1225 l 354 1099 l 271 1099 l 435 1289 m 444 -299 q 427 -292 433 -299 q 421 -275 421 -286 l 421 -158 q 444 -133 421 -133 l 510 -133 q 533 -158 533 -133 l 533 -275 q 527 -292 533 -286 q 510 -299 521 -299 l 444 -299 z "},"Ồ":{"ha":958,"x_min":76,"x_max":883,"o":"m 479 -8 q 249 31 333 -8 q 120 181 164 69 q 76 508 76 292 q 121 838 76 725 q 250 992 165 951 q 479 1032 335 1032 q 711 992 626 1032 q 840 838 796 951 q 883 508 883 725 q 840 181 883 292 q 711 31 796 69 q 479 -8 626 -8 m 479 117 q 638 146 582 117 q 718 258 693 175 q 743 508 743 342 q 718 767 743 682 q 638 879 693 851 q 479 907 583 907 q 324 878 379 907 q 242 765 269 850 q 215 508 215 681 q 240 258 215 340 q 319 146 264 175 q 479 117 374 117 m 256 1388 l 360 1208 l 278 1208 l 139 1388 l 256 1388 m 532 1240 l 681 1099 l 597 1099 l 481 1175 l 354 1099 l 271 1099 l 435 1240 l 532 1240 z "},"Ổ":{"ha":958,"x_min":76,"x_max":883,"o":"m 479 -8 q 249 31 333 -8 q 120 181 164 69 q 76 508 76 292 q 121 838 76 725 q 250 992 165 951 q 479 1032 335 1032 q 711 992 626 1032 q 840 838 796 951 q 883 508 883 725 q 840 181 883 292 q 711 31 796 69 q 479 -8 626 -8 m 479 117 q 638 146 582 117 q 718 258 693 175 q 743 508 743 342 q 718 767 743 682 q 638 879 693 851 q 479 907 583 907 q 324 878 379 907 q 242 765 269 850 q 215 508 215 681 q 240 258 215 340 q 319 146 264 175 q 479 117 374 117 m 632 1235 q 693 1297 693 1253 q 681 1332 693 1321 q 643 1343 669 1343 q 594 1335 628 1343 l 594 1385 q 661 1396 628 1396 q 737 1372 711 1396 q 763 1306 763 1347 q 632 1172 763 1208 l 632 1235 m 435 1240 l 532 1240 l 681 1099 l 597 1099 l 481 1175 l 354 1099 l 271 1099 l 435 1240 z "},"Ỗ":{"ha":958,"x_min":76,"x_max":883,"o":"m 479 -8 q 249 31 333 -8 q 120 181 164 69 q 76 508 76 292 q 121 838 76 725 q 250 992 165 951 q 479 1032 335 1032 q 711 992 626 1032 q 840 838 796 951 q 883 508 883 725 q 840 181 883 292 q 711 31 796 69 q 479 -8 626 -8 m 479 117 q 638 146 582 117 q 718 258 693 175 q 743 508 743 342 q 718 767 743 682 q 638 879 693 851 q 479 907 583 907 q 324 878 379 907 q 242 765 269 850 q 215 508 215 681 q 240 258 215 340 q 319 146 264 175 q 479 117 374 117 m 369 1425 q 419 1418 396 1425 q 475 1396 442 1411 q 519 1378 501 1385 q 557 1372 538 1372 q 606 1387 588 1372 q 625 1429 625 1401 l 696 1429 q 663 1333 692 1363 q 579 1303 635 1303 q 472 1331 539 1303 q 422 1349 442 1343 q 383 1356 401 1356 q 342 1341 358 1356 q 324 1301 325 1326 l 253 1301 q 369 1425 260 1425 m 681 1099 l 597 1099 l 481 1175 l 354 1099 l 271 1099 l 435 1240 l 532 1240 l 681 1099 z "},"Ȍ":{"ha":958,"x_min":76,"x_max":883,"o":"m 479 -8 q 249 31 333 -8 q 120 181 164 69 q 76 508 76 292 q 121 838 76 725 q 250 992 165 951 q 479 1032 335 1032 q 711 992 626 1032 q 840 838 796 951 q 883 508 883 725 q 840 181 883 292 q 711 31 796 69 q 479 -8 626 -8 m 479 117 q 638 146 582 117 q 718 258 693 175 q 743 508 743 342 q 718 767 743 682 q 638 879 693 851 q 479 907 583 907 q 324 878 379 907 q 242 765 269 850 q 215 508 215 681 q 240 258 215 340 q 319 146 264 175 q 479 117 374 117 m 183 1290 l 299 1290 l 435 1099 l 353 1099 l 183 1290 m 400 1290 l 515 1290 l 651 1099 l 569 1099 l 400 1290 z "},"Ö":{"ha":958,"x_min":76,"x_max":883,"o":"m 479 -8 q 249 31 333 -8 q 120 181 164 69 q 76 508 76 292 q 121 838 76 725 q 250 992 165 951 q 479 1032 335 1032 q 711 992 626 1032 q 840 838 796 951 q 883 508 883 725 q 840 181 883 292 q 711 31 796 69 q 479 -8 626 -8 m 479 117 q 638 146 582 117 q 718 258 693 175 q 743 508 743 342 q 718 767 743 682 q 638 879 693 851 q 479 907 583 907 q 324 878 379 907 q 242 765 269 850 q 215 508 215 681 q 240 258 215 340 q 319 146 264 175 q 479 117 374 117 m 278 1122 q 260 1129 267 1122 q 254 1146 254 1136 l 254 1263 q 278 1288 254 1288 l 343 1288 q 367 1263 367 1288 l 367 1146 q 360 1128 367 1135 q 343 1122 354 1122 l 278 1122 m 596 1122 q 578 1129 585 1122 q 571 1146 571 1136 l 571 1263 q 596 1288 571 1288 l 660 1288 q 683 1263 683 1288 l 683 1146 q 677 1128 683 1135 q 660 1122 671 1122 l 596 1122 z "},"Ȫ":{"ha":958,"x_min":76,"x_max":883,"o":"m 479 -8 q 249 31 333 -8 q 120 181 164 69 q 76 508 76 292 q 121 838 76 725 q 250 992 165 951 q 479 1032 335 1032 q 711 992 626 1032 q 840 838 796 951 q 883 508 883 725 q 840 181 883 292 q 711 31 796 69 q 479 -8 626 -8 m 479 117 q 638 146 582 117 q 718 258 693 175 q 743 508 743 342 q 718 767 743 682 q 638 879 693 851 q 479 907 583 907 q 324 878 379 907 q 242 765 269 850 q 215 508 215 681 q 240 258 215 340 q 319 146 264 175 q 479 117 374 117 m 293 1122 q 276 1129 282 1122 q 269 1146 269 1136 l 269 1263 q 293 1288 269 1288 l 358 1288 q 382 1263 382 1288 l 382 1146 q 376 1128 382 1135 q 358 1122 369 1122 l 293 1122 m 611 1122 q 593 1129 600 1122 q 586 1146 586 1136 l 586 1263 q 611 1288 586 1288 l 675 1288 q 699 1263 699 1288 l 699 1146 q 692 1128 699 1135 q 675 1122 686 1122 l 611 1122 m 299 1468 l 674 1468 l 674 1385 l 299 1385 l 299 1468 z "},"Ȱ":{"ha":958,"x_min":76,"x_max":883,"o":"m 479 -8 q 249 31 333 -8 q 120 181 164 69 q 76 508 76 292 q 121 838 76 725 q 250 992 165 951 q 479 1032 335 1032 q 711 992 626 1032 q 840 838 796 951 q 883 508 883 725 q 840 181 883 292 q 711 31 796 69 q 479 -8 626 -8 m 479 117 q 638 146 582 117 q 718 258 693 175 q 743 508 743 342 q 718 767 743 682 q 638 879 693 851 q 479 907 583 907 q 324 878 379 907 q 242 765 269 850 q 215 508 215 681 q 240 258 215 340 q 319 146 264 175 q 479 117 374 117 m 444 1132 q 427 1139 433 1132 q 421 1156 421 1146 l 421 1272 q 444 1297 421 1297 l 510 1297 q 533 1272 533 1297 l 533 1156 q 527 1138 533 1144 q 510 1132 521 1132 l 444 1132 m 283 1460 l 658 1460 l 658 1376 l 283 1376 l 283 1460 z "},"Ọ":{"ha":958,"x_min":76,"x_max":883,"o":"m 479 -8 q 249 31 333 -8 q 120 181 164 69 q 76 508 76 292 q 121 838 76 725 q 250 992 165 951 q 479 1032 335 1032 q 711 992 626 1032 q 840 838 796 951 q 883 508 883 725 q 840 181 883 292 q 711 31 796 69 q 479 -8 626 -8 m 479 117 q 638 146 582 117 q 718 258 693 175 q 743 508 743 342 q 718 767 743 682 q 638 879 693 851 q 479 907 583 907 q 324 878 379 907 q 242 765 269 850 q 215 508 215 681 q 240 258 215 340 q 319 146 264 175 q 479 117 374 117 m 444 -299 q 427 -292 433 -299 q 421 -275 421 -286 l 421 -158 q 444 -133 421 -133 l 510 -133 q 533 -158 533 -133 l 533 -275 q 527 -292 533 -286 q 510 -299 521 -299 l 444 -299 z "},"Ò":{"ha":958,"x_min":76,"x_max":883,"o":"m 479 -8 q 249 31 333 -8 q 120 181 164 69 q 76 508 76 292 q 121 838 76 725 q 250 992 165 951 q 479 1032 335 1032 q 711 992 626 1032 q 840 838 796 951 q 883 508 883 725 q 840 181 883 292 q 711 31 796 69 q 479 -8 626 -8 m 479 117 q 638 146 582 117 q 718 258 693 175 q 743 508 743 342 q 718 767 743 682 q 638 879 693 851 q 479 907 583 907 q 324 878 379 907 q 242 765 269 850 q 215 508 215 681 q 240 258 215 340 q 319 146 264 175 q 479 117 374 117 m 282 1290 l 397 1290 l 533 1099 l 451 1099 l 282 1290 z "},"Ỏ":{"ha":958,"x_min":76,"x_max":883,"o":"m 479 -8 q 249 31 333 -8 q 120 181 164 69 q 76 508 76 292 q 121 838 76 725 q 250 992 165 951 q 479 1032 335 1032 q 711 992 626 1032 q 840 838 796 951 q 883 508 883 725 q 840 181 883 292 q 711 31 796 69 q 479 -8 626 -8 m 479 117 q 638 146 582 117 q 718 258 693 175 q 743 508 743 342 q 718 767 743 682 q 638 879 693 851 q 479 907 583 907 q 324 878 379 907 q 242 765 269 850 q 215 508 215 681 q 240 258 215 340 q 319 146 264 175 q 479 117 374 117 m 446 1132 q 500 1163 483 1143 q 517 1206 517 1182 q 503 1246 517 1232 q 456 1260 489 1260 q 408 1251 432 1260 l 408 1308 q 474 1318 436 1318 q 562 1290 532 1318 q 592 1210 592 1261 q 446 1068 592 1110 l 446 1132 z "},"Ơ":{"ha":958,"x_min":76,"x_max":903,"o":"m 768 951 q 856 791 828 897 q 883 508 883 685 q 840 181 883 292 q 711 31 796 69 q 479 -8 626 -8 q 249 31 333 -8 q 120 181 164 69 q 76 508 76 292 q 121 838 76 725 q 250 992 165 951 q 479 1032 335 1032 q 606 1024 550 1032 l 697 1024 q 776 1060 749 1024 q 804 1179 804 1096 l 903 1179 q 867 1023 903 1079 q 768 951 831 967 m 479 117 q 638 146 582 117 q 718 258 693 175 q 743 508 743 342 q 718 767 743 682 q 638 879 693 851 q 479 907 583 907 q 324 878 379 907 q 242 765 269 850 q 215 508 215 681 q 240 258 215 340 q 319 146 264 175 q 479 117 374 117 z "},"Ớ":{"ha":958,"x_min":76,"x_max":903,"o":"m 768 951 q 856 791 828 897 q 883 508 883 685 q 840 181 883 292 q 711 31 796 69 q 479 -8 626 -8 q 249 31 333 -8 q 120 181 164 69 q 76 508 76 292 q 121 838 76 725 q 250 992 165 951 q 479 1032 335 1032 q 606 1024 550 1032 l 697 1024 q 776 1060 749 1024 q 804 1179 804 1096 l 903 1179 q 867 1023 903 1079 q 768 951 831 967 m 479 117 q 638 146 582 117 q 718 258 693 175 q 743 508 743 342 q 718 767 743 682 q 638 879 693 851 q 479 907 583 907 q 324 878 379 907 q 242 765 269 850 q 215 508 215 681 q 240 258 215 340 q 319 146 264 175 q 479 117 374 117 m 560 1290 l 676 1290 l 507 1099 l 425 1099 l 560 1290 z "},"Ợ":{"ha":958,"x_min":76,"x_max":903,"o":"m 768 951 q 856 791 828 897 q 883 508 883 685 q 840 181 883 292 q 711 31 796 69 q 479 -8 626 -8 q 249 31 333 -8 q 120 181 164 69 q 76 508 76 292 q 121 838 76 725 q 250 992 165 951 q 479 1032 335 1032 q 606 1024 550 1032 l 697 1024 q 776 1060 749 1024 q 804 1179 804 1096 l 903 1179 q 867 1023 903 1079 q 768 951 831 967 m 479 117 q 638 146 582 117 q 718 258 693 175 q 743 508 743 342 q 718 767 743 682 q 638 879 693 851 q 479 907 583 907 q 324 878 379 907 q 242 765 269 850 q 215 508 215 681 q 240 258 215 340 q 319 146 264 175 q 479 117 374 117 m 447 -299 q 430 -292 436 -299 q 424 -275 424 -286 l 424 -158 q 447 -133 424 -133 l 513 -133 q 536 -158 536 -133 l 536 -275 q 530 -292 536 -286 q 513 -299 524 -299 l 447 -299 z "},"Ờ":{"ha":958,"x_min":76,"x_max":903,"o":"m 768 951 q 856 791 828 897 q 883 508 883 685 q 840 181 883 292 q 711 31 796 69 q 479 -8 626 -8 q 249 31 333 -8 q 120 181 164 69 q 76 508 76 292 q 121 838 76 725 q 250 992 165 951 q 479 1032 335 1032 q 606 1024 550 1032 l 697 1024 q 776 1060 749 1024 q 804 1179 804 1096 l 903 1179 q 867 1023 903 1079 q 768 951 831 967 m 479 117 q 638 146 582 117 q 718 258 693 175 q 743 508 743 342 q 718 767 743 682 q 638 879 693 851 q 479 907 583 907 q 324 878 379 907 q 242 765 269 850 q 215 508 215 681 q 240 258 215 340 q 319 146 264 175 q 479 117 374 117 m 257 1290 l 372 1290 l 508 1099 l 426 1099 l 257 1290 z "},"Ở":{"ha":958,"x_min":76,"x_max":903,"o":"m 768 951 q 856 791 828 897 q 883 508 883 685 q 840 181 883 292 q 711 31 796 69 q 479 -8 626 -8 q 249 31 333 -8 q 120 181 164 69 q 76 508 76 292 q 121 838 76 725 q 250 992 165 951 q 479 1032 335 1032 q 606 1024 550 1032 l 697 1024 q 776 1060 749 1024 q 804 1179 804 1096 l 903 1179 q 867 1023 903 1079 q 768 951 831 967 m 479 117 q 638 146 582 117 q 718 258 693 175 q 743 508 743 342 q 718 767 743 682 q 638 879 693 851 q 479 907 583 907 q 324 878 379 907 q 242 765 269 850 q 215 508 215 681 q 240 258 215 340 q 319 146 264 175 q 479 117 374 117 m 446 1132 q 500 1163 483 1143 q 517 1206 517 1182 q 503 1246 517 1232 q 456 1260 489 1260 q 408 1251 432 1260 l 408 1308 q 474 1318 436 1318 q 562 1290 532 1318 q 592 1210 592 1261 q 446 1068 592 1110 l 446 1132 z "},"Ỡ":{"ha":958,"x_min":76,"x_max":903,"o":"m 768 951 q 856 791 828 897 q 883 508 883 685 q 840 181 883 292 q 711 31 796 69 q 479 -8 626 -8 q 249 31 333 -8 q 120 181 164 69 q 76 508 76 292 q 121 838 76 725 q 250 992 165 951 q 479 1032 335 1032 q 606 1024 550 1032 l 697 1024 q 776 1060 749 1024 q 804 1179 804 1096 l 903 1179 q 867 1023 903 1079 q 768 951 831 967 m 479 117 q 638 146 582 117 q 718 258 693 175 q 743 508 743 342 q 718 767 743 682 q 638 879 693 851 q 479 907 583 907 q 324 878 379 907 q 242 765 269 850 q 215 508 215 681 q 240 258 215 340 q 319 146 264 175 q 479 117 374 117 m 228 1113 q 269 1233 231 1194 q 364 1271 308 1271 q 424 1260 396 1271 q 486 1228 451 1249 q 536 1201 517 1210 q 576 1193 556 1193 q 631 1215 611 1193 q 653 1276 651 1236 l 724 1276 q 686 1156 722 1199 q 586 1114 650 1114 q 528 1125 556 1114 q 467 1157 501 1136 q 416 1184 438 1175 q 374 1193 394 1193 q 321 1172 342 1193 q 299 1113 300 1151 l 228 1113 z "},"Ő":{"ha":958,"x_min":76,"x_max":883,"o":"m 479 -8 q 249 31 333 -8 q 120 181 164 69 q 76 508 76 292 q 121 838 76 725 q 250 992 165 951 q 479 1032 335 1032 q 711 992 626 1032 q 840 838 796 951 q 883 508 883 725 q 840 181 883 292 q 711 31 796 69 q 479 -8 626 -8 m 479 117 q 638 146 582 117 q 718 258 693 175 q 743 508 743 342 q 718 767 743 682 q 638 879 693 851 q 479 907 583 907 q 324 878 379 907 q 242 765 269 850 q 215 508 215 681 q 240 258 215 340 q 319 146 264 175 q 479 117 374 117 m 433 1290 l 544 1290 l 388 1099 l 306 1099 l 433 1290 m 649 1290 l 758 1290 l 601 1099 l 519 1099 l 649 1290 z "},"Ȏ":{"ha":958,"x_min":76,"x_max":883,"o":"m 479 -8 q 249 31 333 -8 q 120 181 164 69 q 76 508 76 292 q 121 838 76 725 q 250 992 165 951 q 479 1032 335 1032 q 711 992 626 1032 q 840 838 796 951 q 883 508 883 725 q 840 181 883 292 q 711 31 796 69 q 479 -8 626 -8 m 479 117 q 638 146 582 117 q 718 258 693 175 q 743 508 743 342 q 718 767 743 682 q 638 879 693 851 q 479 907 583 907 q 324 878 379 907 q 242 765 269 850 q 215 508 215 681 q 240 258 215 340 q 319 146 264 175 q 479 117 374 117 m 476 1296 q 611 1247 561 1296 q 661 1094 661 1199 l 596 1094 q 563 1198 596 1165 q 479 1231 529 1231 q 357 1094 357 1231 l 289 1094 q 340 1248 289 1200 q 476 1296 390 1296 z "},"Ō":{"ha":958,"x_min":76,"x_max":883,"o":"m 479 -8 q 249 31 333 -8 q 120 181 164 69 q 76 508 76 292 q 121 838 76 725 q 250 992 165 951 q 479 1032 335 1032 q 711 992 626 1032 q 840 838 796 951 q 883 508 883 725 q 840 181 883 292 q 711 31 796 69 q 479 -8 626 -8 m 479 117 q 638 146 582 117 q 718 258 693 175 q 743 508 743 342 q 718 767 743 682 q 638 879 693 851 q 479 907 583 907 q 324 878 379 907 q 242 765 269 850 q 215 508 215 681 q 240 258 215 340 q 319 146 264 175 q 479 117 374 117 m 283 1228 l 658 1228 l 658 1144 l 283 1144 l 283 1228 z "},"Ṓ":{"ha":958,"x_min":76,"x_max":883,"o":"m 479 -8 q 249 31 333 -8 q 120 181 164 69 q 76 508 76 292 q 121 838 76 725 q 250 992 165 951 q 479 1032 335 1032 q 711 992 626 1032 q 840 838 796 951 q 883 508 883 725 q 840 181 883 292 q 711 31 796 69 q 479 -8 626 -8 m 479 117 q 638 146 582 117 q 718 258 693 175 q 743 508 743 342 q 718 767 743 682 q 638 879 693 851 q 479 907 583 907 q 324 878 379 907 q 242 765 269 850 q 215 508 215 681 q 240 258 215 340 q 319 146 264 175 q 479 117 374 117 m 283 1228 l 658 1228 l 658 1144 l 283 1144 l 283 1228 m 574 1482 l 690 1482 l 521 1290 l 439 1290 l 574 1482 z "},"Ṑ":{"ha":958,"x_min":76,"x_max":883,"o":"m 479 -8 q 249 31 333 -8 q 120 181 164 69 q 76 508 76 292 q 121 838 76 725 q 250 992 165 951 q 479 1032 335 1032 q 711 992 626 1032 q 840 838 796 951 q 883 508 883 725 q 840 181 883 292 q 711 31 796 69 q 479 -8 626 -8 m 479 117 q 638 146 582 117 q 718 258 693 175 q 743 508 743 342 q 718 767 743 682 q 638 879 693 851 q 479 907 583 907 q 324 878 379 907 q 242 765 269 850 q 215 508 215 681 q 240 258 215 340 q 319 146 264 175 q 479 117 374 117 m 283 1228 l 658 1228 l 658 1144 l 283 1144 l 283 1228 m 264 1482 l 379 1482 l 515 1290 l 433 1290 l 264 1482 z "},"Ǫ":{"ha":958,"x_min":76,"x_max":883,"o":"m 572 -4 q 499 -107 499 -50 q 526 -168 499 -146 q 603 -190 554 -190 l 614 -190 l 614 -258 q 575 -261 592 -261 q 466 -226 504 -261 q 428 -137 428 -190 q 513 -8 428 -56 l 479 -8 q 249 31 333 -8 q 120 181 164 69 q 76 508 76 292 q 121 838 76 725 q 250 992 165 951 q 479 1032 335 1032 q 711 992 626 1032 q 840 838 796 951 q 883 508 883 725 q 849 210 883 318 q 749 53 815 101 q 572 -4 682 6 m 215 508 q 240 258 215 340 q 319 146 264 175 q 479 117 374 117 q 638 146 582 117 q 718 258 693 175 q 743 508 743 342 q 718 767 743 682 q 638 879 693 851 q 479 907 583 907 q 324 878 379 907 q 242 765 269 850 q 215 508 215 681 z "},"Ø":{"ha":958,"x_min":76,"x_max":883,"o":"m 797 919 q 862 760 840 860 q 883 508 883 660 q 840 181 883 292 q 711 31 796 69 q 479 -8 626 -8 q 329 3 392 -8 q 221 46 267 15 l 190 0 l 93 0 l 161 103 q 97 259 118 161 q 76 508 76 357 q 121 838 76 725 q 250 992 165 951 q 479 1032 335 1032 q 629 1019 567 1032 q 738 976 692 1007 l 769 1024 l 867 1024 l 797 919 m 215 508 q 247 233 215 319 l 663 861 q 590 897 633 888 q 479 907 546 907 q 324 878 379 907 q 242 765 269 850 q 215 508 215 681 m 479 117 q 638 146 582 117 q 718 258 693 175 q 743 508 743 342 q 711 788 743 701 l 297 161 q 370 126 326 136 q 479 117 414 117 z "},"Ǿ":{"ha":958,"x_min":76,"x_max":883,"o":"m 797 919 q 862 760 840 860 q 883 508 883 660 q 840 181 883 292 q 711 31 796 69 q 479 -8 626 -8 q 329 3 392 -8 q 221 46 267 15 l 190 0 l 93 0 l 161 103 q 97 259 118 161 q 76 508 76 357 q 121 838 76 725 q 250 992 165 951 q 479 1032 335 1032 q 629 1019 567 1032 q 738 976 692 1007 l 769 1024 l 867 1024 l 797 919 m 215 508 q 247 233 215 319 l 663 861 q 590 897 633 888 q 479 907 546 907 q 324 878 379 907 q 242 765 269 850 q 215 508 215 681 m 479 117 q 638 146 582 117 q 718 258 693 175 q 743 508 743 342 q 711 788 743 701 l 297 161 q 370 126 326 136 q 479 117 414 117 m 579 1290 l 696 1290 l 526 1099 l 444 1099 l 579 1290 z "},"Õ":{"ha":958,"x_min":76,"x_max":883,"o":"m 479 -8 q 249 31 333 -8 q 120 181 164 69 q 76 508 76 292 q 121 838 76 725 q 250 992 165 951 q 479 1032 335 1032 q 711 992 626 1032 q 840 838 796 951 q 883 508 883 725 q 840 181 883 292 q 711 31 796 69 q 479 -8 626 -8 m 479 117 q 638 146 582 117 q 718 258 693 175 q 743 508 743 342 q 718 767 743 682 q 638 879 693 851 q 479 907 583 907 q 324 878 379 907 q 242 765 269 850 q 215 508 215 681 q 240 258 215 340 q 319 146 264 175 q 479 117 374 117 m 235 1113 q 276 1233 238 1194 q 371 1271 315 1271 q 431 1260 403 1271 q 493 1228 458 1249 q 543 1201 524 1210 q 583 1193 563 1193 q 638 1215 618 1193 q 660 1276 658 1236 l 731 1276 q 693 1156 729 1199 q 593 1114 657 1114 q 535 1125 563 1114 q 474 1157 508 1136 q 423 1184 444 1175 q 381 1193 401 1193 q 328 1172 349 1193 q 306 1113 307 1151 l 235 1113 z "},"Ṍ":{"ha":958,"x_min":76,"x_max":883,"o":"m 479 -8 q 249 31 333 -8 q 120 181 164 69 q 76 508 76 292 q 121 838 76 725 q 250 992 165 951 q 479 1032 335 1032 q 711 992 626 1032 q 840 838 796 951 q 883 508 883 725 q 840 181 883 292 q 711 31 796 69 q 479 -8 626 -8 m 479 117 q 638 146 582 117 q 718 258 693 175 q 743 508 743 342 q 718 767 743 682 q 638 879 693 851 q 479 907 583 907 q 324 878 379 907 q 242 765 269 850 q 215 508 215 681 q 240 258 215 340 q 319 146 264 175 q 479 117 374 117 m 235 1113 q 276 1233 238 1194 q 371 1271 315 1271 q 431 1260 403 1271 q 493 1228 458 1249 q 543 1201 524 1210 q 583 1193 563 1193 q 638 1215 618 1193 q 660 1276 658 1236 l 731 1276 q 693 1156 729 1199 q 593 1114 657 1114 q 535 1125 563 1114 q 474 1157 508 1136 q 423 1184 444 1175 q 381 1193 401 1193 q 328 1172 349 1193 q 306 1113 307 1151 l 235 1113 m 561 1511 l 678 1511 l 508 1319 l 426 1319 l 561 1511 z "},"Ṏ":{"ha":958,"x_min":76,"x_max":883,"o":"m 479 -8 q 249 31 333 -8 q 120 181 164 69 q 76 508 76 292 q 121 838 76 725 q 250 992 165 951 q 479 1032 335 1032 q 711 992 626 1032 q 840 838 796 951 q 883 508 883 725 q 840 181 883 292 q 711 31 796 69 q 479 -8 626 -8 m 479 117 q 638 146 582 117 q 718 258 693 175 q 743 508 743 342 q 718 767 743 682 q 638 879 693 851 q 479 907 583 907 q 324 878 379 907 q 242 765 269 850 q 215 508 215 681 q 240 258 215 340 q 319 146 264 175 q 479 117 374 117 m 235 1113 q 276 1233 238 1194 q 371 1271 315 1271 q 431 1260 403 1271 q 493 1228 458 1249 q 543 1201 524 1210 q 583 1193 563 1193 q 638 1215 618 1193 q 660 1276 658 1236 l 731 1276 q 693 1156 729 1199 q 593 1114 657 1114 q 535 1125 563 1114 q 474 1157 508 1136 q 423 1184 444 1175 q 381 1193 401 1193 q 328 1172 349 1193 q 306 1113 307 1151 l 235 1113 m 286 1343 q 269 1350 275 1343 q 263 1367 263 1357 l 263 1483 q 286 1508 263 1508 l 351 1508 q 375 1483 375 1508 l 375 1367 q 369 1349 375 1356 q 351 1343 363 1343 l 286 1343 m 604 1343 q 586 1350 593 1343 q 579 1367 579 1357 l 579 1483 q 604 1508 579 1508 l 668 1508 q 692 1483 692 1508 l 692 1367 q 685 1349 692 1356 q 668 1343 679 1343 l 604 1343 z "},"Ȭ":{"ha":958,"x_min":76,"x_max":883,"o":"m 479 -8 q 249 31 333 -8 q 120 181 164 69 q 76 508 76 292 q 121 838 76 725 q 250 992 165 951 q 479 1032 335 1032 q 711 992 626 1032 q 840 838 796 951 q 883 508 883 725 q 840 181 883 292 q 711 31 796 69 q 479 -8 626 -8 m 479 117 q 638 146 582 117 q 718 258 693 175 q 743 508 743 342 q 718 767 743 682 q 638 879 693 851 q 479 907 583 907 q 324 878 379 907 q 242 765 269 850 q 215 508 215 681 q 240 258 215 340 q 319 146 264 175 q 479 117 374 117 m 306 1449 l 681 1449 l 681 1365 l 306 1365 l 306 1449 m 235 1113 q 276 1233 238 1194 q 371 1271 315 1271 q 431 1260 403 1271 q 493 1228 458 1249 q 543 1201 524 1210 q 583 1193 563 1193 q 638 1215 618 1193 q 660 1276 658 1236 l 731 1276 q 693 1156 729 1199 q 593 1114 657 1114 q 535 1125 563 1114 q 474 1157 508 1136 q 423 1184 444 1175 q 381 1193 401 1193 q 328 1172 349 1193 q 306 1113 307 1151 l 235 1113 z "},"Œ":{"ha":1461,"x_min":76,"x_max":1388,"o":"m 993 894 q 883 785 883 894 l 883 572 l 1325 564 l 1325 456 l 883 446 l 883 236 q 914 148 883 171 q 996 125 944 125 l 1388 125 l 1388 10 q 960 -6 1146 -6 q 774 75 825 -6 q 656 10 726 28 q 479 -8 585 -8 q 249 31 333 -8 q 120 181 164 69 q 76 508 76 292 q 121 838 76 725 q 250 992 165 951 q 479 1032 335 1032 q 658 1012 586 1032 q 778 942 731 992 q 851 1003 806 983 q 950 1024 897 1024 q 1325 1013 1117 1024 l 1388 1010 l 1388 894 l 993 894 m 479 117 q 638 146 582 117 q 718 258 693 175 q 743 508 743 342 q 718 767 743 682 q 638 879 693 851 q 479 907 583 907 q 324 878 379 907 q 242 765 269 850 q 215 508 215 681 q 240 258 215 340 q 319 146 264 175 q 479 117 374 117 z "},"P":{"ha":846,"x_min":101,"x_max":792,"o":"m 101 1024 l 517 1024 q 713 954 635 1024 q 792 689 792 885 q 711 419 792 492 q 515 346 631 346 q 385 351 472 346 q 242 363 299 357 l 242 0 l 101 0 l 101 1024 m 496 471 q 651 688 651 471 q 504 899 651 899 l 242 899 l 242 471 l 496 471 z "},"Ṗ":{"ha":846,"x_min":101,"x_max":792,"o":"m 101 1024 l 517 1024 q 713 954 635 1024 q 792 689 792 885 q 711 419 792 492 q 515 346 631 346 q 385 351 472 346 q 242 363 299 357 l 242 0 l 101 0 l 101 1024 m 496 471 q 651 688 651 471 q 504 899 651 899 l 242 899 l 242 471 l 496 471 m 374 1132 q 356 1139 363 1132 q 350 1156 350 1146 l 350 1272 q 374 1297 350 1297 l 439 1297 q 463 1272 463 1297 l 463 1156 q 456 1138 463 1144 q 439 1132 450 1132 l 374 1132 z "},"Þ":{"ha":789,"x_min":101,"x_max":735,"o":"m 101 1024 l 242 1024 l 242 843 l 460 843 q 656 778 578 843 q 735 529 735 713 q 654 275 735 343 q 458 207 574 207 q 356 213 426 207 q 242 225 286 219 l 242 0 l 101 0 l 101 1024 m 439 333 q 594 529 594 333 q 447 717 594 717 l 242 717 l 242 333 l 439 333 z "},"Q":{"ha":958,"x_min":76,"x_max":883,"o":"m 479 -8 q 249 31 333 -8 q 120 181 164 69 q 76 508 76 292 q 121 838 76 725 q 250 992 165 951 q 479 1032 335 1032 q 711 992 626 1032 q 840 838 796 951 q 883 508 883 725 q 840 181 883 292 q 711 31 796 69 q 479 -8 626 -8 m 479 117 q 638 146 582 117 q 718 258 693 175 q 743 508 743 342 q 718 767 743 682 q 638 879 693 851 q 479 907 583 907 q 324 878 379 907 q 242 765 269 850 q 215 508 215 681 q 240 258 215 340 q 319 146 264 175 q 479 117 374 117 m 707 -247 q 546 -196 615 -247 q 468 -49 476 -144 l 564 -49 q 616 -119 578 -96 q 701 -143 654 -143 q 779 -131 736 -143 l 779 -237 q 707 -247 735 -247 z "},"R":{"ha":853,"x_min":101,"x_max":804,"o":"m 101 1024 l 511 1024 q 710 958 636 1024 q 785 714 785 892 q 733 510 785 571 q 600 426 681 449 l 804 0 l 663 0 l 474 407 l 283 410 q 242 411 268 411 l 242 0 l 101 0 l 101 1024 m 489 519 q 605 561 564 519 q 646 714 646 603 q 604 860 646 821 q 489 899 563 899 l 242 899 l 242 519 l 489 519 z "},"Ŕ":{"ha":853,"x_min":101,"x_max":804,"o":"m 101 1024 l 511 1024 q 710 958 636 1024 q 785 714 785 892 q 733 510 785 571 q 600 426 681 449 l 804 0 l 663 0 l 474 407 l 283 410 q 242 411 268 411 l 242 0 l 101 0 l 101 1024 m 489 519 q 605 561 564 519 q 646 714 646 603 q 604 860 646 821 q 489 899 563 899 l 242 899 l 242 519 l 489 519 m 510 1290 l 626 1290 l 457 1099 l 375 1099 l 510 1290 z "},"Ř":{"ha":853,"x_min":101,"x_max":804,"o":"m 101 1024 l 511 1024 q 710 958 636 1024 q 785 714 785 892 q 733 510 785 571 q 600 426 681 449 l 804 0 l 663 0 l 474 407 l 283 410 q 242 411 268 411 l 242 0 l 101 0 l 101 1024 m 489 519 q 605 561 564 519 q 646 714 646 603 q 604 860 646 821 q 489 899 563 899 l 242 899 l 242 519 l 489 519 m 210 1289 l 293 1289 l 410 1164 l 535 1289 l 619 1289 l 456 1099 l 358 1099 l 210 1289 z "},"Ŗ":{"ha":853,"x_min":101,"x_max":804,"o":"m 101 1024 l 511 1024 q 710 958 636 1024 q 785 714 785 892 q 733 510 785 571 q 600 426 681 449 l 804 0 l 663 0 l 474 407 l 283 410 q 242 411 268 411 l 242 0 l 101 0 l 101 1024 m 489 519 q 605 561 564 519 q 646 714 646 603 q 604 860 646 821 q 489 899 563 899 l 242 899 l 242 519 l 489 519 m 297 -229 l 338 -222 q 390 -205 372 -215 q 417 -169 408 -194 q 425 -92 425 -143 l 511 -92 q 498 -206 511 -165 q 451 -267 485 -247 q 356 -286 417 -286 l 297 -286 l 297 -229 z "},"Ȑ":{"ha":853,"x_min":101,"x_max":804,"o":"m 101 1024 l 511 1024 q 710 958 636 1024 q 785 714 785 892 q 733 510 785 571 q 600 426 681 449 l 804 0 l 663 0 l 474 407 l 283 410 q 242 411 268 411 l 242 0 l 101 0 l 101 1024 m 489 519 q 605 561 564 519 q 646 714 646 603 q 604 860 646 821 q 489 899 563 899 l 242 899 l 242 519 l 489 519 m 114 1290 l 229 1290 l 365 1099 l 283 1099 l 114 1290 m 331 1290 l 446 1290 l 582 1099 l 500 1099 l 331 1290 z "},"Ṛ":{"ha":853,"x_min":101,"x_max":804,"o":"m 101 1024 l 511 1024 q 710 958 636 1024 q 785 714 785 892 q 733 510 785 571 q 600 426 681 449 l 804 0 l 663 0 l 474 407 l 283 410 q 242 411 268 411 l 242 0 l 101 0 l 101 1024 m 489 519 q 605 561 564 519 q 646 714 646 603 q 604 860 646 821 q 489 899 563 899 l 242 899 l 242 519 l 489 519 m 379 -299 q 362 -292 368 -299 q 356 -275 356 -286 l 356 -158 q 379 -133 356 -133 l 444 -133 q 468 -158 468 -133 l 468 -275 q 462 -292 468 -286 q 444 -299 456 -299 l 379 -299 z "},"Ȓ":{"ha":853,"x_min":101,"x_max":804,"o":"m 101 1024 l 511 1024 q 710 958 636 1024 q 785 714 785 892 q 733 510 785 571 q 600 426 681 449 l 804 0 l 663 0 l 474 407 l 283 410 q 242 411 268 411 l 242 0 l 101 0 l 101 1024 m 489 519 q 605 561 564 519 q 646 714 646 603 q 604 860 646 821 q 489 899 563 899 l 242 899 l 242 519 l 489 519 m 407 1296 q 542 1247 492 1296 q 592 1094 592 1199 l 526 1094 q 493 1198 526 1165 q 410 1231 460 1231 q 288 1094 288 1231 l 219 1094 q 270 1248 219 1200 q 407 1296 321 1296 z "},"Ṟ":{"ha":853,"x_min":101,"x_max":804,"o":"m 101 1024 l 511 1024 q 710 958 636 1024 q 785 714 785 892 q 733 510 785 571 q 600 426 681 449 l 804 0 l 663 0 l 474 407 l 283 410 q 242 411 268 411 l 242 0 l 101 0 l 101 1024 m 489 519 q 605 561 564 519 q 646 714 646 603 q 604 860 646 821 q 489 899 563 899 l 242 899 l 242 519 l 489 519 m 224 -189 l 599 -189 l 599 -272 l 224 -272 l 224 -189 z "},"S":{"ha":808,"x_min":78,"x_max":732,"o":"m 397 -8 q 233 -1 326 -8 q 85 19 139 7 l 85 128 q 392 117 200 117 q 544 147 490 117 q 599 256 599 176 l 599 315 q 461 444 599 444 l 357 444 q 149 505 219 444 q 78 703 78 565 l 78 760 q 155 967 78 901 q 385 1032 232 1032 q 538 1022 451 1032 q 685 1001 624 1013 l 685 893 l 656 894 q 400 907 478 907 q 258 874 306 907 q 211 753 211 840 l 211 711 q 249 608 211 639 q 364 578 288 578 l 476 578 q 667 510 601 578 q 732 332 732 443 l 732 260 q 644 50 732 108 q 397 -8 557 -8 z "},"Ś":{"ha":808,"x_min":78,"x_max":732,"o":"m 397 -8 q 233 -1 326 -8 q 85 19 139 7 l 85 128 q 392 117 200 117 q 544 147 490 117 q 599 256 599 176 l 599 315 q 461 444 599 444 l 357 444 q 149 505 219 444 q 78 703 78 565 l 78 760 q 155 967 78 901 q 385 1032 232 1032 q 538 1022 451 1032 q 685 1001 624 1013 l 685 893 l 656 894 q 400 907 478 907 q 258 874 306 907 q 211 753 211 840 l 211 711 q 249 608 211 639 q 364 578 288 578 l 476 578 q 667 510 601 578 q 732 332 732 443 l 732 260 q 644 50 732 108 q 397 -8 557 -8 m 496 1290 l 613 1290 l 443 1099 l 361 1099 l 496 1290 z "},"Ṥ":{"ha":808,"x_min":78,"x_max":732,"o":"m 397 -8 q 233 -1 326 -8 q 85 19 139 7 l 85 128 q 392 117 200 117 q 544 147 490 117 q 599 256 599 176 l 599 315 q 461 444 599 444 l 357 444 q 149 505 219 444 q 78 703 78 565 l 78 760 q 155 967 78 901 q 385 1032 232 1032 q 538 1022 451 1032 q 685 1001 624 1013 l 685 893 l 656 894 q 400 907 478 907 q 258 874 306 907 q 211 753 211 840 l 211 711 q 249 608 211 639 q 364 578 288 578 l 476 578 q 667 510 601 578 q 732 332 732 443 l 732 260 q 644 50 732 108 q 397 -8 557 -8 m 453 1290 l 569 1290 l 400 1099 l 318 1099 l 453 1290 m 415 1331 q 398 1338 404 1331 q 392 1354 392 1344 l 392 1471 q 415 1496 392 1496 l 481 1496 q 504 1471 504 1496 l 504 1354 q 498 1337 504 1343 q 481 1331 492 1331 l 415 1331 z "},"Š":{"ha":808,"x_min":78,"x_max":732,"o":"m 397 -8 q 233 -1 326 -8 q 85 19 139 7 l 85 128 q 392 117 200 117 q 544 147 490 117 q 599 256 599 176 l 599 315 q 461 444 599 444 l 357 444 q 149 505 219 444 q 78 703 78 565 l 78 760 q 155 967 78 901 q 385 1032 232 1032 q 538 1022 451 1032 q 685 1001 624 1013 l 685 893 l 656 894 q 400 907 478 907 q 258 874 306 907 q 211 753 211 840 l 211 711 q 249 608 211 639 q 364 578 288 578 l 476 578 q 667 510 601 578 q 732 332 732 443 l 732 260 q 644 50 732 108 q 397 -8 557 -8 m 196 1289 l 279 1289 l 396 1164 l 521 1289 l 606 1289 l 442 1099 l 344 1099 l 196 1289 z "},"Ṧ":{"ha":808,"x_min":78,"x_max":732,"o":"m 397 -8 q 233 -1 326 -8 q 85 19 139 7 l 85 128 q 392 117 200 117 q 544 147 490 117 q 599 256 599 176 l 599 315 q 461 444 599 444 l 357 444 q 149 505 219 444 q 78 703 78 565 l 78 760 q 155 967 78 901 q 385 1032 232 1032 q 538 1022 451 1032 q 685 1001 624 1013 l 685 893 l 656 894 q 400 907 478 907 q 258 874 306 907 q 211 753 211 840 l 211 711 q 249 608 211 639 q 364 578 288 578 l 476 578 q 667 510 601 578 q 732 332 732 443 l 732 260 q 644 50 732 108 q 397 -8 557 -8 m 196 1289 l 279 1289 l 396 1164 l 521 1289 l 606 1289 l 442 1099 l 344 1099 l 196 1289 m 361 1336 q 344 1343 350 1336 q 338 1360 338 1350 l 338 1476 q 361 1501 338 1501 l 426 1501 q 450 1476 450 1501 l 450 1360 q 444 1342 450 1349 q 426 1336 438 1336 l 361 1336 z "},"Ş":{"ha":808,"x_min":78,"x_max":732,"o":"m 476 578 q 667 510 601 578 q 732 332 732 443 l 732 260 q 653 57 732 117 q 432 -8 575 -3 l 389 -74 q 488 -164 488 -82 q 452 -240 488 -214 q 350 -267 417 -267 l 297 -267 l 297 -210 l 326 -207 q 397 -149 397 -199 q 314 -90 397 -96 l 368 -8 q 213 1 293 -6 q 85 19 132 8 l 85 128 q 392 117 200 117 q 544 147 490 117 q 599 256 599 176 l 599 315 q 461 444 599 444 l 357 444 q 149 505 219 444 q 78 703 78 565 l 78 760 q 155 967 78 901 q 385 1032 232 1032 q 538 1022 451 1032 q 685 1001 624 1013 l 685 893 l 656 894 q 400 907 478 907 q 258 874 306 907 q 211 753 211 840 l 211 711 q 249 608 211 639 q 364 578 288 578 l 476 578 z "},"Ŝ":{"ha":808,"x_min":78,"x_max":732,"o":"m 397 -8 q 233 -1 326 -8 q 85 19 139 7 l 85 128 q 392 117 200 117 q 544 147 490 117 q 599 256 599 176 l 599 315 q 461 444 599 444 l 357 444 q 149 505 219 444 q 78 703 78 565 l 78 760 q 155 967 78 901 q 385 1032 232 1032 q 538 1022 451 1032 q 685 1001 624 1013 l 685 893 l 656 894 q 400 907 478 907 q 258 874 306 907 q 211 753 211 840 l 211 711 q 249 608 211 639 q 364 578 288 578 l 476 578 q 667 510 601 578 q 732 332 732 443 l 732 260 q 644 50 732 108 q 397 -8 557 -8 m 351 1289 l 449 1289 l 597 1099 l 514 1099 l 397 1225 l 271 1099 l 188 1099 l 351 1289 z "},"Ș":{"ha":808,"x_min":78,"x_max":732,"o":"m 397 -8 q 233 -1 326 -8 q 85 19 139 7 l 85 128 q 392 117 200 117 q 544 147 490 117 q 599 256 599 176 l 599 315 q 461 444 599 444 l 357 444 q 149 505 219 444 q 78 703 78 565 l 78 760 q 155 967 78 901 q 385 1032 232 1032 q 538 1022 451 1032 q 685 1001 624 1013 l 685 893 l 656 894 q 400 907 478 907 q 258 874 306 907 q 211 753 211 840 l 211 711 q 249 608 211 639 q 364 578 288 578 l 476 578 q 667 510 601 578 q 732 332 732 443 l 732 260 q 644 50 732 108 q 397 -8 557 -8 m 279 -229 l 319 -222 q 372 -205 354 -215 q 399 -169 390 -194 q 407 -92 407 -143 l 493 -92 q 480 -206 493 -165 q 433 -267 467 -247 q 338 -286 399 -286 l 279 -286 l 279 -229 z "},"Ṡ":{"ha":808,"x_min":78,"x_max":732,"o":"m 397 -8 q 233 -1 326 -8 q 85 19 139 7 l 85 128 q 392 117 200 117 q 544 147 490 117 q 599 256 599 176 l 599 315 q 461 444 599 444 l 357 444 q 149 505 219 444 q 78 703 78 565 l 78 760 q 155 967 78 901 q 385 1032 232 1032 q 538 1022 451 1032 q 685 1001 624 1013 l 685 893 l 656 894 q 400 907 478 907 q 258 874 306 907 q 211 753 211 840 l 211 711 q 249 608 211 639 q 364 578 288 578 l 476 578 q 667 510 601 578 q 732 332 732 443 l 732 260 q 644 50 732 108 q 397 -8 557 -8 m 361 1132 q 344 1139 350 1132 q 338 1156 338 1146 l 338 1272 q 361 1297 338 1297 l 426 1297 q 450 1272 450 1297 l 450 1156 q 444 1138 450 1144 q 426 1132 438 1132 l 361 1132 z "},"Ṣ":{"ha":808,"x_min":78,"x_max":732,"o":"m 397 -8 q 233 -1 326 -8 q 85 19 139 7 l 85 128 q 392 117 200 117 q 544 147 490 117 q 599 256 599 176 l 599 315 q 461 444 599 444 l 357 444 q 149 505 219 444 q 78 703 78 565 l 78 760 q 155 967 78 901 q 385 1032 232 1032 q 538 1022 451 1032 q 685 1001 624 1013 l 685 893 l 656 894 q 400 907 478 907 q 258 874 306 907 q 211 753 211 840 l 211 711 q 249 608 211 639 q 364 578 288 578 l 476 578 q 667 510 601 578 q 732 332 732 443 l 732 260 q 644 50 732 108 q 397 -8 557 -8 m 361 -299 q 344 -292 350 -299 q 338 -275 338 -286 l 338 -158 q 361 -133 338 -133 l 426 -133 q 450 -158 450 -133 l 450 -275 q 444 -292 450 -286 q 426 -299 438 -299 l 361 -299 z "},"Ṩ":{"ha":808,"x_min":78,"x_max":732,"o":"m 397 -8 q 233 -1 326 -8 q 85 19 139 7 l 85 128 q 392 117 200 117 q 544 147 490 117 q 599 256 599 176 l 599 315 q 461 444 599 444 l 357 444 q 149 505 219 444 q 78 703 78 565 l 78 760 q 155 967 78 901 q 385 1032 232 1032 q 538 1022 451 1032 q 685 1001 624 1013 l 685 893 l 656 894 q 400 907 478 907 q 258 874 306 907 q 211 753 211 840 l 211 711 q 249 608 211 639 q 364 578 288 578 l 476 578 q 667 510 601 578 q 732 332 732 443 l 732 260 q 644 50 732 108 q 397 -8 557 -8 m 361 -299 q 344 -292 350 -299 q 338 -275 338 -286 l 338 -158 q 361 -133 338 -133 l 426 -133 q 450 -158 450 -133 l 450 -275 q 444 -292 450 -286 q 426 -299 438 -299 l 361 -299 m 361 1132 q 344 1139 350 1132 q 338 1156 338 1146 l 338 1272 q 361 1297 338 1297 l 426 1297 q 450 1272 450 1297 l 450 1156 q 444 1138 450 1144 q 426 1132 438 1132 l 361 1132 z "},"ẞ":{"ha":954,"x_min":101,"x_max":878,"o":"m 622 556 q 812 495 746 556 q 878 321 878 435 l 878 249 q 794 48 878 104 q 563 -8 711 -8 q 453 -2 517 -8 q 354 14 390 4 l 354 122 q 543 118 425 118 q 687 148 636 118 q 738 256 738 178 l 738 313 q 702 410 738 379 q 588 442 667 442 l 419 442 l 419 556 l 535 556 l 593 807 l 674 899 l 369 899 q 274 866 307 899 q 242 771 242 833 l 242 0 l 101 0 l 101 769 q 176 963 101 901 q 365 1024 250 1024 q 822 1013 632 1022 l 811 992 l 822 999 l 650 653 l 556 556 l 622 556 z "},"Ə":{"ha":854,"x_min":75,"x_max":779,"o":"m 419 -8 q 160 101 244 -8 q 75 460 75 210 l 75 556 l 638 556 q 608 774 636 700 q 517 878 579 849 q 339 907 454 907 q 181 899 238 907 q 117 890 124 892 l 117 997 q 378 1032 232 1032 q 605 992 519 1032 q 735 842 690 953 q 779 524 779 732 q 735 199 779 315 q 613 37 692 82 q 419 -8 535 -8 m 418 117 q 534 144 488 117 q 606 244 581 172 q 635 443 632 315 l 215 443 q 235 251 217 321 q 298 149 254 181 q 418 117 342 117 z "},"T":{"ha":796,"x_min":22,"x_max":774,"o":"m 328 899 l 22 899 l 22 1024 l 774 1024 l 774 899 l 468 899 l 468 0 l 328 0 l 328 899 z "},"Ŧ":{"ha":796,"x_min":22,"x_max":774,"o":"m 468 899 l 468 575 l 711 575 l 711 499 l 468 499 l 468 0 l 328 0 l 328 499 l 83 499 l 83 575 l 328 575 l 328 899 l 22 899 l 22 1024 l 774 1024 l 774 899 l 468 899 z "},"Ť":{"ha":796,"x_min":22,"x_max":774,"o":"m 328 899 l 22 899 l 22 1024 l 774 1024 l 774 899 l 468 899 l 468 0 l 328 0 l 328 899 m 197 1289 l 281 1289 l 397 1164 l 522 1289 l 607 1289 l 443 1099 l 346 1099 l 197 1289 z "},"Ţ":{"ha":796,"x_min":22,"x_max":774,"o":"m 438 0 l 390 -74 q 489 -164 489 -82 q 453 -240 489 -214 q 351 -267 418 -267 l 299 -267 l 299 -210 l 328 -207 q 399 -149 399 -199 q 315 -90 399 -96 l 374 0 l 328 0 l 328 899 l 22 899 l 22 1024 l 774 1024 l 774 899 l 468 899 l 468 0 l 438 0 z "},"Ț":{"ha":796,"x_min":22,"x_max":774,"o":"m 328 899 l 22 899 l 22 1024 l 774 1024 l 774 899 l 468 899 l 468 0 l 328 0 l 328 899 m 233 -229 l 274 -222 q 326 -205 308 -215 q 353 -169 344 -194 q 361 -92 361 -143 l 447 -92 q 434 -206 447 -165 q 387 -267 421 -247 q 292 -286 353 -286 l 233 -286 l 233 -229 z "},"Ṫ":{"ha":796,"x_min":22,"x_max":774,"o":"m 328 899 l 22 899 l 22 1024 l 774 1024 l 774 899 l 468 899 l 468 0 l 328 0 l 328 899 m 363 1132 q 345 1139 351 1132 q 339 1156 339 1146 l 339 1272 q 363 1297 339 1297 l 428 1297 q 451 1272 451 1297 l 451 1156 q 445 1138 451 1144 q 428 1132 439 1132 l 363 1132 z "},"Ṭ":{"ha":796,"x_min":22,"x_max":774,"o":"m 328 899 l 22 899 l 22 1024 l 774 1024 l 774 899 l 468 899 l 468 0 l 328 0 l 328 899 m 363 -299 q 345 -292 351 -299 q 339 -275 339 -286 l 339 -158 q 363 -133 339 -133 l 428 -133 q 451 -158 451 -133 l 451 -275 q 445 -292 451 -286 q 428 -299 439 -299 l 363 -299 z "},"Ṯ":{"ha":796,"x_min":22,"x_max":774,"o":"m 328 899 l 22 899 l 22 1024 l 774 1024 l 774 899 l 468 899 l 468 0 l 328 0 l 328 899 m 207 -189 l 582 -189 l 582 -272 l 207 -272 l 207 -189 z "},"U":{"ha":943,"x_min":88,"x_max":856,"o":"m 471 -8 q 185 65 283 -8 q 88 321 88 138 l 88 1024 l 228 1024 l 228 322 q 289 164 228 210 q 471 118 350 118 q 654 164 593 118 q 715 322 715 210 l 715 1024 l 856 1024 l 856 321 q 757 65 856 138 q 471 -8 658 -8 z "},"Ú":{"ha":943,"x_min":88,"x_max":856,"o":"m 471 -8 q 185 65 283 -8 q 88 321 88 138 l 88 1024 l 228 1024 l 228 322 q 289 164 228 210 q 471 118 350 118 q 654 164 593 118 q 715 322 715 210 l 715 1024 l 856 1024 l 856 321 q 757 65 856 138 q 471 -8 658 -8 m 564 1290 l 681 1290 l 511 1099 l 429 1099 l 564 1290 z "},"Ŭ":{"ha":943,"x_min":88,"x_max":856,"o":"m 471 -8 q 185 65 283 -8 q 88 321 88 138 l 88 1024 l 228 1024 l 228 322 q 289 164 228 210 q 471 118 350 118 q 654 164 593 118 q 715 322 715 210 l 715 1024 l 856 1024 l 856 321 q 757 65 856 138 q 471 -8 658 -8 m 454 1093 q 319 1142 369 1093 q 269 1294 269 1190 l 335 1294 q 367 1192 335 1225 q 451 1158 400 1158 q 574 1294 574 1158 l 642 1294 q 591 1141 642 1189 q 454 1093 540 1093 z "},"Û":{"ha":943,"x_min":88,"x_max":856,"o":"m 471 -8 q 185 65 283 -8 q 88 321 88 138 l 88 1024 l 228 1024 l 228 322 q 289 164 228 210 q 471 118 350 118 q 654 164 593 118 q 715 322 715 210 l 715 1024 l 856 1024 l 856 321 q 757 65 856 138 q 471 -8 658 -8 m 419 1289 l 517 1289 l 665 1099 l 582 1099 l 465 1225 l 339 1099 l 256 1099 l 419 1289 z "},"Ȕ":{"ha":943,"x_min":88,"x_max":856,"o":"m 471 -8 q 185 65 283 -8 q 88 321 88 138 l 88 1024 l 228 1024 l 228 322 q 289 164 228 210 q 471 118 350 118 q 654 164 593 118 q 715 322 715 210 l 715 1024 l 856 1024 l 856 321 q 757 65 856 138 q 471 -8 658 -8 m 168 1290 l 283 1290 l 419 1099 l 338 1099 l 168 1290 m 385 1290 l 500 1290 l 636 1099 l 554 1099 l 385 1290 z "},"Ü":{"ha":943,"x_min":88,"x_max":856,"o":"m 471 -8 q 185 65 283 -8 q 88 321 88 138 l 88 1024 l 228 1024 l 228 322 q 289 164 228 210 q 471 118 350 118 q 654 164 593 118 q 715 322 715 210 l 715 1024 l 856 1024 l 856 321 q 757 65 856 138 q 471 -8 658 -8 m 263 1122 q 245 1129 251 1122 q 239 1146 239 1136 l 239 1263 q 263 1288 239 1288 l 328 1288 q 351 1263 351 1288 l 351 1146 q 345 1128 351 1135 q 328 1122 339 1122 l 263 1122 m 581 1122 q 563 1129 569 1122 q 556 1146 556 1136 l 556 1263 q 581 1288 556 1288 l 644 1288 q 668 1263 668 1288 l 668 1146 q 662 1128 668 1135 q 644 1122 656 1122 l 581 1122 z "},"Ụ":{"ha":943,"x_min":88,"x_max":856,"o":"m 471 -8 q 185 65 283 -8 q 88 321 88 138 l 88 1024 l 228 1024 l 228 322 q 289 164 228 210 q 471 118 350 118 q 654 164 593 118 q 715 322 715 210 l 715 1024 l 856 1024 l 856 321 q 757 65 856 138 q 471 -8 658 -8 m 429 -299 q 412 -292 418 -299 q 406 -275 406 -286 l 406 -158 q 429 -133 406 -133 l 494 -133 q 518 -158 518 -133 l 518 -275 q 512 -292 518 -286 q 494 -299 506 -299 l 429 -299 z "},"Ù":{"ha":943,"x_min":88,"x_max":856,"o":"m 471 -8 q 185 65 283 -8 q 88 321 88 138 l 88 1024 l 228 1024 l 228 322 q 289 164 228 210 q 471 118 350 118 q 654 164 593 118 q 715 322 715 210 l 715 1024 l 856 1024 l 856 321 q 757 65 856 138 q 471 -8 658 -8 m 267 1290 l 382 1290 l 518 1099 l 436 1099 l 267 1290 z "},"Ủ":{"ha":943,"x_min":88,"x_max":856,"o":"m 471 -8 q 185 65 283 -8 q 88 321 88 138 l 88 1024 l 228 1024 l 228 322 q 289 164 228 210 q 471 118 350 118 q 654 164 593 118 q 715 322 715 210 l 715 1024 l 856 1024 l 856 321 q 757 65 856 138 q 471 -8 658 -8 m 431 1132 q 485 1163 468 1143 q 501 1206 501 1182 q 488 1246 501 1232 q 440 1260 474 1260 q 393 1251 417 1260 l 393 1308 q 458 1318 421 1318 q 547 1290 517 1318 q 576 1210 576 1261 q 431 1068 576 1110 l 431 1132 z "},"Ư":{"ha":943,"x_min":88,"x_max":986,"o":"m 986 1179 q 951 1024 986 1081 q 856 953 915 968 l 856 321 q 757 65 856 138 q 471 -8 658 -8 q 185 65 283 -8 q 88 321 88 138 l 88 1024 l 228 1024 l 228 322 q 289 164 228 210 q 471 118 350 118 q 654 164 593 118 q 715 322 715 210 l 715 1024 l 781 1024 q 860 1060 832 1024 q 888 1179 888 1096 l 986 1179 z "},"Ứ":{"ha":943,"x_min":88,"x_max":986,"o":"m 986 1179 q 951 1024 986 1081 q 856 953 915 968 l 856 321 q 757 65 856 138 q 471 -8 658 -8 q 185 65 283 -8 q 88 321 88 138 l 88 1024 l 228 1024 l 228 322 q 289 164 228 210 q 471 118 350 118 q 654 164 593 118 q 715 322 715 210 l 715 1024 l 781 1024 q 860 1060 832 1024 q 888 1179 888 1096 l 986 1179 m 553 1290 l 669 1290 l 500 1099 l 418 1099 l 553 1290 z "},"Ự":{"ha":943,"x_min":88,"x_max":986,"o":"m 986 1179 q 951 1024 986 1081 q 856 953 915 968 l 856 321 q 757 65 856 138 q 471 -8 658 -8 q 185 65 283 -8 q 88 321 88 138 l 88 1024 l 228 1024 l 228 322 q 289 164 228 210 q 471 118 350 118 q 654 164 593 118 q 715 322 715 210 l 715 1024 l 781 1024 q 860 1060 832 1024 q 888 1179 888 1096 l 986 1179 m 421 -299 q 403 -292 410 -299 q 397 -275 397 -286 l 397 -158 q 421 -133 397 -133 l 486 -133 q 510 -158 510 -133 l 510 -275 q 503 -292 510 -286 q 486 -299 497 -299 l 421 -299 z "},"Ừ":{"ha":943,"x_min":88,"x_max":986,"o":"m 986 1179 q 951 1024 986 1081 q 856 953 915 968 l 856 321 q 757 65 856 138 q 471 -8 658 -8 q 185 65 283 -8 q 88 321 88 138 l 88 1024 l 228 1024 l 228 322 q 289 164 228 210 q 471 118 350 118 q 654 164 593 118 q 715 322 715 210 l 715 1024 l 781 1024 q 860 1060 832 1024 q 888 1179 888 1096 l 986 1179 m 271 1290 l 386 1290 l 522 1099 l 440 1099 l 271 1290 z "},"Ử":{"ha":943,"x_min":88,"x_max":986,"o":"m 986 1179 q 951 1024 986 1081 q 856 953 915 968 l 856 321 q 757 65 856 138 q 471 -8 658 -8 q 185 65 283 -8 q 88 321 88 138 l 88 1024 l 228 1024 l 228 322 q 289 164 228 210 q 471 118 350 118 q 654 164 593 118 q 715 322 715 210 l 715 1024 l 781 1024 q 860 1060 832 1024 q 888 1179 888 1096 l 986 1179 m 440 1132 q 494 1163 478 1143 q 511 1206 511 1182 q 497 1246 511 1232 q 450 1260 483 1260 q 403 1251 426 1260 l 403 1308 q 468 1318 431 1318 q 556 1290 526 1318 q 586 1210 586 1261 q 440 1068 586 1110 l 440 1132 z "},"Ữ":{"ha":943,"x_min":88,"x_max":986,"o":"m 986 1179 q 951 1024 986 1081 q 856 953 915 968 l 856 321 q 757 65 856 138 q 471 -8 658 -8 q 185 65 283 -8 q 88 321 88 138 l 88 1024 l 228 1024 l 228 322 q 289 164 228 210 q 471 118 350 118 q 654 164 593 118 q 715 322 715 210 l 715 1024 l 781 1024 q 860 1060 832 1024 q 888 1179 888 1096 l 986 1179 m 233 1113 q 275 1233 236 1194 q 369 1271 314 1271 q 429 1260 401 1271 q 492 1228 457 1249 q 542 1201 522 1210 q 582 1193 561 1193 q 637 1215 617 1193 q 658 1276 657 1236 l 729 1276 q 692 1156 728 1199 q 592 1114 656 1114 q 534 1125 561 1114 q 472 1157 507 1136 q 422 1184 443 1175 q 379 1193 400 1193 q 326 1172 347 1193 q 304 1113 306 1151 l 233 1113 z "},"Ű":{"ha":943,"x_min":88,"x_max":856,"o":"m 471 -8 q 185 65 283 -8 q 88 321 88 138 l 88 1024 l 228 1024 l 228 322 q 289 164 228 210 q 471 118 350 118 q 654 164 593 118 q 715 322 715 210 l 715 1024 l 856 1024 l 856 321 q 757 65 856 138 q 471 -8 658 -8 m 418 1290 l 529 1290 l 372 1099 l 290 1099 l 418 1290 m 633 1290 l 743 1290 l 586 1099 l 504 1099 l 633 1290 z "},"Ȗ":{"ha":943,"x_min":88,"x_max":856,"o":"m 471 -8 q 185 65 283 -8 q 88 321 88 138 l 88 1024 l 228 1024 l 228 322 q 289 164 228 210 q 471 118 350 118 q 654 164 593 118 q 715 322 715 210 l 715 1024 l 856 1024 l 856 321 q 757 65 856 138 q 471 -8 658 -8 m 461 1296 q 596 1247 546 1296 q 646 1094 646 1199 l 581 1094 q 547 1198 581 1165 q 464 1231 514 1231 q 342 1094 342 1231 l 274 1094 q 324 1248 274 1200 q 461 1296 375 1296 z "},"Ū":{"ha":943,"x_min":88,"x_max":856,"o":"m 471 -8 q 185 65 283 -8 q 88 321 88 138 l 88 1024 l 228 1024 l 228 322 q 289 164 228 210 q 471 118 350 118 q 654 164 593 118 q 715 322 715 210 l 715 1024 l 856 1024 l 856 321 q 757 65 856 138 q 471 -8 658 -8 m 268 1228 l 643 1228 l 643 1144 l 268 1144 l 268 1228 z "},"Ṻ":{"ha":943,"x_min":88,"x_max":856,"o":"m 471 -8 q 185 65 283 -8 q 88 321 88 138 l 88 1024 l 228 1024 l 228 322 q 289 164 228 210 q 471 118 350 118 q 654 164 593 118 q 715 322 715 210 l 715 1024 l 856 1024 l 856 321 q 757 65 856 138 q 471 -8 658 -8 m 268 1228 l 643 1228 l 643 1144 l 268 1144 l 268 1228 m 263 1308 q 245 1315 251 1308 q 239 1332 239 1322 l 239 1449 q 263 1474 239 1474 l 328 1474 q 351 1449 351 1474 l 351 1332 q 345 1315 351 1321 q 328 1308 339 1308 l 263 1308 m 581 1308 q 563 1315 569 1308 q 556 1332 556 1322 l 556 1449 q 581 1474 556 1474 l 644 1474 q 668 1449 668 1474 l 668 1332 q 662 1315 668 1321 q 644 1308 656 1308 l 581 1308 z "},"Ų":{"ha":943,"x_min":88,"x_max":856,"o":"m 856 1024 l 856 321 q 787 93 856 168 q 588 -1 718 18 q 507 -107 507 -49 q 535 -168 507 -146 q 611 -190 563 -190 l 622 -190 l 622 -258 q 583 -261 600 -261 q 474 -226 513 -261 q 436 -137 436 -190 q 458 -64 436 -97 q 522 -7 479 -31 q 471 -8 506 -8 q 185 65 283 -8 q 88 321 88 138 l 88 1024 l 228 1024 l 228 322 q 289 164 228 210 q 471 118 350 118 q 654 164 593 118 q 715 322 715 210 l 715 1024 l 856 1024 z "},"Ů":{"ha":943,"x_min":88,"x_max":856,"o":"m 471 -8 q 185 65 283 -8 q 88 321 88 138 l 88 1024 l 228 1024 l 228 322 q 289 164 228 210 q 471 118 350 118 q 654 164 593 118 q 715 322 715 210 l 715 1024 l 856 1024 l 856 321 q 757 65 856 138 q 471 -8 658 -8 m 465 1063 q 344 1097 383 1063 q 304 1214 304 1132 q 344 1331 304 1296 q 465 1367 383 1367 q 584 1332 546 1367 q 622 1214 622 1297 q 584 1097 622 1131 q 465 1063 546 1063 m 465 1118 q 535 1139 514 1118 q 556 1214 556 1160 q 535 1290 556 1268 q 465 1311 514 1311 q 393 1290 415 1311 q 371 1214 371 1268 q 393 1139 371 1160 q 465 1118 415 1118 z "},"Ũ":{"ha":943,"x_min":88,"x_max":856,"o":"m 471 -8 q 185 65 283 -8 q 88 321 88 138 l 88 1024 l 228 1024 l 228 322 q 289 164 228 210 q 471 118 350 118 q 654 164 593 118 q 715 322 715 210 l 715 1024 l 856 1024 l 856 321 q 757 65 856 138 q 471 -8 658 -8 m 219 1113 q 261 1233 222 1194 q 356 1271 300 1271 q 415 1260 388 1271 q 478 1228 443 1249 q 528 1201 508 1210 q 568 1193 547 1193 q 623 1215 603 1193 q 644 1276 643 1236 l 715 1276 q 678 1156 714 1199 q 578 1114 642 1114 q 520 1125 547 1114 q 458 1157 493 1136 q 408 1184 429 1175 q 365 1193 386 1193 q 313 1172 333 1193 q 290 1113 292 1151 l 219 1113 z "},"Ṹ":{"ha":943,"x_min":88,"x_max":856,"o":"m 471 -8 q 185 65 283 -8 q 88 321 88 138 l 88 1024 l 228 1024 l 228 322 q 289 164 228 210 q 471 118 350 118 q 654 164 593 118 q 715 322 715 210 l 715 1024 l 856 1024 l 856 321 q 757 65 856 138 q 471 -8 658 -8 m 219 1113 q 261 1233 222 1194 q 356 1271 300 1271 q 415 1260 388 1271 q 478 1228 443 1249 q 528 1201 508 1210 q 568 1193 547 1193 q 623 1215 603 1193 q 644 1276 643 1236 l 715 1276 q 678 1156 714 1199 q 578 1114 642 1114 q 520 1125 547 1114 q 458 1157 493 1136 q 408 1184 429 1175 q 365 1193 386 1193 q 313 1172 333 1193 q 290 1113 292 1151 l 219 1113 m 564 1499 l 681 1499 l 511 1307 l 429 1307 l 564 1499 z "},"V":{"ha":942,"x_min":40,"x_max":901,"o":"m 40 1024 l 185 1024 l 471 149 l 758 1024 l 901 1024 l 560 0 l 382 0 l 40 1024 z "},"W":{"ha":1376,"x_min":40,"x_max":1336,"o":"m 40 1024 l 185 1024 l 388 199 l 622 1024 l 757 1024 l 989 199 l 1193 1024 l 1336 1024 l 1079 0 l 932 0 l 689 825 l 444 0 l 297 0 l 40 1024 z "},"Ẃ":{"ha":1376,"x_min":40,"x_max":1336,"o":"m 40 1024 l 185 1024 l 388 199 l 622 1024 l 757 1024 l 989 199 l 1193 1024 l 1336 1024 l 1079 0 l 932 0 l 689 825 l 444 0 l 297 0 l 40 1024 m 810 1290 l 926 1290 l 757 1099 l 675 1099 l 810 1290 z "},"Ŵ":{"ha":1376,"x_min":40,"x_max":1336,"o":"m 40 1024 l 185 1024 l 388 199 l 622 1024 l 757 1024 l 989 199 l 1193 1024 l 1336 1024 l 1079 0 l 932 0 l 689 825 l 444 0 l 297 0 l 40 1024 m 665 1289 l 763 1289 l 911 1099 l 828 1099 l 711 1225 l 585 1099 l 501 1099 l 665 1289 z "},"Ẅ":{"ha":1376,"x_min":40,"x_max":1336,"o":"m 40 1024 l 185 1024 l 388 199 l 622 1024 l 757 1024 l 989 199 l 1193 1024 l 1336 1024 l 1079 0 l 932 0 l 689 825 l 444 0 l 297 0 l 40 1024 m 508 1122 q 491 1129 497 1122 q 485 1146 485 1136 l 485 1263 q 508 1288 485 1288 l 574 1288 q 597 1263 597 1288 l 597 1146 q 591 1128 597 1135 q 574 1122 585 1122 l 508 1122 m 826 1122 q 808 1129 815 1122 q 801 1146 801 1136 l 801 1263 q 826 1288 801 1288 l 890 1288 q 914 1263 914 1288 l 914 1146 q 908 1128 914 1135 q 890 1122 901 1122 l 826 1122 z "},"Ẁ":{"ha":1376,"x_min":40,"x_max":1336,"o":"m 40 1024 l 185 1024 l 388 199 l 622 1024 l 757 1024 l 989 199 l 1193 1024 l 1336 1024 l 1079 0 l 932 0 l 689 825 l 444 0 l 297 0 l 40 1024 m 513 1290 l 628 1290 l 764 1099 l 682 1099 l 513 1290 z "},"X":{"ha":883,"x_min":42,"x_max":842,"o":"m 522 504 l 839 0 l 685 0 l 436 396 l 199 0 l 46 0 l 363 513 l 42 1024 l 194 1024 l 449 619 l 688 1024 l 842 1024 l 522 504 z "},"Y":{"ha":863,"x_min":42,"x_max":821,"o":"m 361 331 l 42 1024 l 188 1024 l 433 472 l 681 1024 l 821 1024 l 501 331 l 501 0 l 361 0 l 361 331 z "},"Ý":{"ha":863,"x_min":42,"x_max":821,"o":"m 361 331 l 42 1024 l 188 1024 l 433 472 l 681 1024 l 821 1024 l 501 331 l 501 0 l 361 0 l 361 331 m 533 1290 l 650 1290 l 481 1099 l 399 1099 l 533 1290 z "},"Ŷ":{"ha":863,"x_min":42,"x_max":821,"o":"m 361 331 l 42 1024 l 188 1024 l 433 472 l 681 1024 l 821 1024 l 501 331 l 501 0 l 361 0 l 361 331 m 389 1289 l 486 1289 l 635 1099 l 551 1099 l 435 1225 l 308 1099 l 225 1099 l 389 1289 z "},"Ÿ":{"ha":863,"x_min":42,"x_max":821,"o":"m 361 331 l 42 1024 l 188 1024 l 433 472 l 681 1024 l 821 1024 l 501 331 l 501 0 l 361 0 l 361 331 m 232 1122 q 215 1129 221 1122 q 208 1146 208 1136 l 208 1263 q 232 1288 208 1288 l 297 1288 q 321 1263 321 1288 l 321 1146 q 315 1128 321 1135 q 297 1122 308 1122 l 232 1122 m 550 1122 q 532 1129 539 1122 q 525 1146 525 1136 l 525 1263 q 550 1288 525 1288 l 614 1288 q 638 1263 638 1288 l 638 1146 q 631 1128 638 1135 q 614 1122 625 1122 l 550 1122 z "},"Ẏ":{"ha":863,"x_min":42,"x_max":821,"o":"m 361 331 l 42 1024 l 188 1024 l 433 472 l 681 1024 l 821 1024 l 501 331 l 501 0 l 361 0 l 361 331 m 399 -299 q 381 -292 388 -299 q 375 -275 375 -286 l 375 -158 q 399 -133 375 -133 l 464 -133 q 488 -158 488 -133 l 488 -275 q 481 -292 488 -286 q 464 -299 475 -299 l 399 -299 z "},"Ỵ":{"ha":863,"x_min":42,"x_max":821,"o":"m 361 331 l 42 1024 l 188 1024 l 433 472 l 681 1024 l 821 1024 l 501 331 l 501 0 l 361 0 l 361 331 m 399 -299 q 381 -292 388 -299 q 375 -275 375 -286 l 375 -158 q 399 -133 375 -133 l 464 -133 q 488 -158 488 -133 l 488 -275 q 481 -292 488 -286 q 464 -299 475 -299 l 399 -299 z "},"Ỳ":{"ha":863,"x_min":42,"x_max":821,"o":"m 361 331 l 42 1024 l 188 1024 l 433 472 l 681 1024 l 821 1024 l 501 331 l 501 0 l 361 0 l 361 331 m 236 1290 l 351 1290 l 488 1099 l 406 1099 l 236 1290 z "},"Ỷ":{"ha":863,"x_min":42,"x_max":821,"o":"m 361 331 l 42 1024 l 188 1024 l 433 472 l 681 1024 l 821 1024 l 501 331 l 501 0 l 361 0 l 361 331 m 400 1132 q 454 1163 438 1143 q 471 1206 471 1182 q 457 1246 471 1232 q 410 1260 443 1260 q 363 1251 386 1260 l 363 1308 q 428 1318 390 1318 q 516 1290 486 1318 q 546 1210 546 1261 q 400 1068 546 1110 l 400 1132 z "},"Ȳ":{"ha":863,"x_min":42,"x_max":821,"o":"m 361 331 l 42 1024 l 188 1024 l 433 472 l 681 1024 l 821 1024 l 501 331 l 501 0 l 361 0 l 361 331 m 238 1228 l 613 1228 l 613 1144 l 238 1144 l 238 1228 z "},"Ỹ":{"ha":863,"x_min":42,"x_max":821,"o":"m 361 331 l 42 1024 l 188 1024 l 433 472 l 681 1024 l 821 1024 l 501 331 l 501 0 l 361 0 l 361 331 m 189 1113 q 231 1233 192 1194 q 325 1271 269 1271 q 385 1260 357 1271 q 447 1228 413 1249 q 497 1201 478 1210 q 538 1193 517 1193 q 592 1215 572 1193 q 614 1276 613 1236 l 685 1276 q 647 1156 683 1199 q 547 1114 611 1114 q 490 1125 517 1114 q 428 1157 463 1136 q 377 1184 399 1175 q 335 1193 356 1193 q 282 1172 303 1193 q 260 1113 261 1151 l 189 1113 z "},"Z":{"ha":783,"x_min":58,"x_max":732,"o":"m 58 113 l 563 899 l 58 899 l 58 1024 l 732 1024 l 732 911 l 228 125 l 732 125 l 732 0 l 58 0 l 58 113 z "},"Ź":{"ha":783,"x_min":58,"x_max":732,"o":"m 58 113 l 563 899 l 58 899 l 58 1024 l 732 1024 l 732 911 l 228 125 l 732 125 l 732 0 l 58 0 l 58 113 m 489 1290 l 606 1290 l 436 1099 l 354 1099 l 489 1290 z "},"Ž":{"ha":783,"x_min":58,"x_max":732,"o":"m 58 113 l 563 899 l 58 899 l 58 1024 l 732 1024 l 732 911 l 228 125 l 732 125 l 732 0 l 58 0 l 58 113 m 189 1289 l 272 1289 l 389 1164 l 514 1289 l 599 1289 l 435 1099 l 338 1099 l 189 1289 z "},"Ż":{"ha":783,"x_min":58,"x_max":732,"o":"m 58 113 l 563 899 l 58 899 l 58 1024 l 732 1024 l 732 911 l 228 125 l 732 125 l 732 0 l 58 0 l 58 113 m 354 1132 q 337 1139 343 1132 q 331 1156 331 1146 l 331 1272 q 354 1297 331 1297 l 419 1297 q 443 1272 443 1297 l 443 1156 q 437 1138 443 1144 q 419 1132 431 1132 l 354 1132 z "},"Ẓ":{"ha":783,"x_min":58,"x_max":732,"o":"m 58 113 l 563 899 l 58 899 l 58 1024 l 732 1024 l 732 911 l 228 125 l 732 125 l 732 0 l 58 0 l 58 113 m 354 -299 q 337 -292 343 -299 q 331 -275 331 -286 l 331 -158 q 354 -133 331 -133 l 419 -133 q 443 -158 443 -133 l 443 -275 q 437 -292 443 -286 q 419 -299 431 -299 l 354 -299 z "},"a":{"ha":758,"x_min":57,"x_max":667,"o":"m 246 -8 q 110 42 163 -8 q 57 178 57 92 l 57 236 q 117 378 57 325 q 294 432 178 432 l 526 432 l 526 510 q 511 584 526 556 q 456 628 496 613 q 343 643 417 643 l 115 643 l 115 725 q 390 754 238 753 q 599 699 532 754 q 667 519 667 644 l 667 0 l 557 0 l 533 83 q 474 50 521 72 q 366 10 428 28 q 246 -8 304 -8 m 313 93 q 393 105 346 93 q 481 131 440 117 q 526 149 522 146 l 526 363 l 332 354 q 197 235 197 346 l 197 201 q 231 119 197 144 q 313 93 264 93 z "},"á":{"ha":758,"x_min":57,"x_max":667,"o":"m 246 -8 q 110 42 163 -8 q 57 178 57 92 l 57 236 q 117 378 57 325 q 294 432 178 432 l 526 432 l 526 510 q 511 584 526 556 q 456 628 496 613 q 343 643 417 643 l 115 643 l 115 725 q 390 754 238 753 q 599 699 532 754 q 667 519 667 644 l 667 0 l 557 0 l 533 83 q 474 50 521 72 q 366 10 428 28 q 246 -8 304 -8 m 313 93 q 393 105 346 93 q 481 131 440 117 q 526 149 522 146 l 526 363 l 332 354 q 197 235 197 346 l 197 201 q 231 119 197 144 q 313 93 264 93 m 460 1068 l 576 1068 l 407 876 l 325 876 l 460 1068 z "},"ă":{"ha":758,"x_min":57,"x_max":667,"o":"m 246 -8 q 110 42 163 -8 q 57 178 57 92 l 57 236 q 117 378 57 325 q 294 432 178 432 l 526 432 l 526 510 q 511 584 526 556 q 456 628 496 613 q 343 643 417 643 l 115 643 l 115 725 q 390 754 238 753 q 599 699 532 754 q 667 519 667 644 l 667 0 l 557 0 l 533 83 q 474 50 521 72 q 366 10 428 28 q 246 -8 304 -8 m 313 93 q 393 105 346 93 q 481 131 440 117 q 526 149 522 146 l 526 363 l 332 354 q 197 235 197 346 l 197 201 q 231 119 197 144 q 313 93 264 93 m 365 871 q 231 919 281 871 q 181 1072 181 968 l 246 1072 q 279 969 246 1003 q 363 936 313 936 q 485 1072 485 936 l 553 1072 q 502 919 553 967 q 365 871 451 871 z "},"ắ":{"ha":758,"x_min":57,"x_max":667,"o":"m 246 -8 q 110 42 163 -8 q 57 178 57 92 l 57 236 q 117 378 57 325 q 294 432 178 432 l 526 432 l 526 510 q 511 584 526 556 q 456 628 496 613 q 343 643 417 643 l 115 643 l 115 725 q 390 754 238 753 q 599 699 532 754 q 667 519 667 644 l 667 0 l 557 0 l 533 83 q 474 50 521 72 q 366 10 428 28 q 246 -8 304 -8 m 313 93 q 393 105 346 93 q 481 131 440 117 q 526 149 522 146 l 526 363 l 332 354 q 197 235 197 346 l 197 201 q 231 119 197 144 q 313 93 264 93 m 453 1226 l 569 1226 l 400 1035 l 318 1035 l 453 1226 m 247 1018 q 279 942 247 967 q 361 918 311 918 q 452 941 419 918 q 485 1018 485 964 l 553 1018 q 502 897 553 935 q 365 858 451 858 q 231 897 281 858 q 181 1018 181 936 l 247 1018 z "},"ặ":{"ha":758,"x_min":57,"x_max":667,"o":"m 246 -8 q 110 42 163 -8 q 57 178 57 92 l 57 236 q 117 378 57 325 q 294 432 178 432 l 526 432 l 526 510 q 511 584 526 556 q 456 628 496 613 q 343 643 417 643 l 115 643 l 115 725 q 390 754 238 753 q 599 699 532 754 q 667 519 667 644 l 667 0 l 557 0 l 533 83 q 474 50 521 72 q 366 10 428 28 q 246 -8 304 -8 m 313 93 q 393 105 346 93 q 481 131 440 117 q 526 149 522 146 l 526 363 l 332 354 q 197 235 197 346 l 197 201 q 231 119 197 144 q 313 93 264 93 m 365 871 q 231 919 281 871 q 181 1072 181 968 l 246 1072 q 279 969 246 1003 q 363 936 313 936 q 485 1072 485 936 l 553 1072 q 502 919 553 967 q 365 871 451 871 m 338 -299 q 320 -292 326 -299 q 314 -275 314 -286 l 314 -158 q 338 -133 314 -133 l 403 -133 q 426 -158 426 -133 l 426 -275 q 420 -292 426 -286 q 403 -299 414 -299 l 338 -299 z "},"ằ":{"ha":758,"x_min":57,"x_max":667,"o":"m 246 -8 q 110 42 163 -8 q 57 178 57 92 l 57 236 q 117 378 57 325 q 294 432 178 432 l 526 432 l 526 510 q 511 584 526 556 q 456 628 496 613 q 343 643 417 643 l 115 643 l 115 725 q 390 754 238 753 q 599 699 532 754 q 667 519 667 644 l 667 0 l 557 0 l 533 83 q 474 50 521 72 q 366 10 428 28 q 246 -8 304 -8 m 313 93 q 393 105 346 93 q 481 131 440 117 q 526 149 522 146 l 526 363 l 332 354 q 197 235 197 346 l 197 201 q 231 119 197 144 q 313 93 264 93 m 174 1226 l 289 1226 l 425 1035 l 343 1035 l 174 1226 m 247 1018 q 279 942 247 967 q 361 918 311 918 q 452 941 419 918 q 485 1018 485 964 l 553 1018 q 502 897 553 935 q 365 858 451 858 q 231 897 281 858 q 181 1018 181 936 l 247 1018 z "},"ẳ":{"ha":758,"x_min":57,"x_max":667,"o":"m 246 -8 q 110 42 163 -8 q 57 178 57 92 l 57 236 q 117 378 57 325 q 294 432 178 432 l 526 432 l 526 510 q 511 584 526 556 q 456 628 496 613 q 343 643 417 643 l 115 643 l 115 725 q 390 754 238 753 q 599 699 532 754 q 667 519 667 644 l 667 0 l 557 0 l 533 83 q 474 50 521 72 q 366 10 428 28 q 246 -8 304 -8 m 313 93 q 393 105 346 93 q 481 131 440 117 q 526 149 522 146 l 526 363 l 332 354 q 197 235 197 346 l 197 201 q 231 119 197 144 q 313 93 264 93 m 340 1040 q 394 1071 378 1051 q 411 1114 411 1090 q 397 1154 411 1140 q 350 1168 383 1168 q 303 1160 325 1168 l 303 1217 q 368 1226 331 1226 q 456 1198 426 1226 q 486 1118 486 1169 q 340 976 486 1018 l 340 1040 m 365 858 q 231 897 281 858 q 181 1018 181 936 l 247 1018 q 279 942 247 967 q 361 918 311 918 q 452 941 419 918 q 485 1018 485 964 l 553 1018 q 502 897 553 935 q 365 858 451 858 z "},"ẵ":{"ha":758,"x_min":57,"x_max":667,"o":"m 246 -8 q 110 42 163 -8 q 57 178 57 92 l 57 236 q 117 378 57 325 q 294 432 178 432 l 526 432 l 526 510 q 511 584 526 556 q 456 628 496 613 q 343 643 417 643 l 115 643 l 115 725 q 390 754 238 753 q 599 699 532 754 q 667 519 667 644 l 667 0 l 557 0 l 533 83 q 474 50 521 72 q 366 10 428 28 q 246 -8 304 -8 m 313 93 q 393 105 346 93 q 481 131 440 117 q 526 149 522 146 l 526 363 l 332 354 q 197 235 197 346 l 197 201 q 231 119 197 144 q 313 93 264 93 m 265 1190 q 315 1183 292 1190 q 371 1161 338 1176 q 415 1144 397 1150 q 453 1138 433 1138 q 502 1152 483 1138 q 521 1194 521 1167 l 592 1194 q 559 1098 588 1128 q 475 1068 531 1068 q 427 1075 450 1068 q 371 1096 404 1082 q 322 1115 340 1108 q 286 1121 304 1121 q 239 1106 257 1121 q 219 1067 221 1092 l 149 1067 q 265 1190 156 1190 m 247 1018 q 279 942 247 967 q 361 918 311 918 q 452 941 419 918 q 485 1018 485 964 l 553 1018 q 502 897 553 935 q 365 858 451 858 q 231 897 281 858 q 181 1018 181 936 l 247 1018 z "},"â":{"ha":758,"x_min":57,"x_max":667,"o":"m 246 -8 q 110 42 163 -8 q 57 178 57 92 l 57 236 q 117 378 57 325 q 294 432 178 432 l 526 432 l 526 510 q 511 584 526 556 q 456 628 496 613 q 343 643 417 643 l 115 643 l 115 725 q 390 754 238 753 q 599 699 532 754 q 667 519 667 644 l 667 0 l 557 0 l 533 83 q 474 50 521 72 q 366 10 428 28 q 246 -8 304 -8 m 313 93 q 393 105 346 93 q 481 131 440 117 q 526 149 522 146 l 526 363 l 332 354 q 197 235 197 346 l 197 201 q 231 119 197 144 q 313 93 264 93 m 331 1067 l 428 1067 l 576 876 l 493 876 l 376 1003 l 250 876 l 167 876 l 331 1067 z "},"ấ":{"ha":758,"x_min":57,"x_max":715,"o":"m 246 -8 q 110 42 163 -8 q 57 178 57 92 l 57 236 q 117 378 57 325 q 294 432 178 432 l 526 432 l 526 510 q 511 584 526 556 q 456 628 496 613 q 343 643 417 643 l 115 643 l 115 725 q 390 754 238 753 q 599 699 532 754 q 667 519 667 644 l 667 0 l 557 0 l 533 83 q 474 50 521 72 q 366 10 428 28 q 246 -8 304 -8 m 313 93 q 393 105 346 93 q 481 131 440 117 q 526 149 522 146 l 526 363 l 332 354 q 197 235 197 346 l 197 201 q 231 119 197 144 q 313 93 264 93 m 715 1165 l 578 986 l 496 986 l 599 1165 l 715 1165 m 428 1018 l 576 876 l 493 876 l 376 953 l 250 876 l 167 876 l 331 1018 l 428 1018 z "},"ậ":{"ha":758,"x_min":57,"x_max":667,"o":"m 246 -8 q 110 42 163 -8 q 57 178 57 92 l 57 236 q 117 378 57 325 q 294 432 178 432 l 526 432 l 526 510 q 511 584 526 556 q 456 628 496 613 q 343 643 417 643 l 115 643 l 115 725 q 390 754 238 753 q 599 699 532 754 q 667 519 667 644 l 667 0 l 557 0 l 533 83 q 474 50 521 72 q 366 10 428 28 q 246 -8 304 -8 m 313 93 q 393 105 346 93 q 481 131 440 117 q 526 149 522 146 l 526 363 l 332 354 q 197 235 197 346 l 197 201 q 231 119 197 144 q 313 93 264 93 m 331 1067 l 428 1067 l 576 876 l 493 876 l 376 1003 l 250 876 l 167 876 l 331 1067 m 338 -299 q 320 -292 326 -299 q 314 -275 314 -286 l 314 -158 q 338 -133 314 -133 l 403 -133 q 426 -158 426 -133 l 426 -275 q 420 -292 426 -286 q 403 -299 414 -299 l 338 -299 z "},"ầ":{"ha":758,"x_min":35,"x_max":667,"o":"m 246 -8 q 110 42 163 -8 q 57 178 57 92 l 57 236 q 117 378 57 325 q 294 432 178 432 l 526 432 l 526 510 q 511 584 526 556 q 456 628 496 613 q 343 643 417 643 l 115 643 l 115 725 q 390 754 238 753 q 599 699 532 754 q 667 519 667 644 l 667 0 l 557 0 l 533 83 q 474 50 521 72 q 366 10 428 28 q 246 -8 304 -8 m 313 93 q 393 105 346 93 q 481 131 440 117 q 526 149 522 146 l 526 363 l 332 354 q 197 235 197 346 l 197 201 q 231 119 197 144 q 313 93 264 93 m 151 1165 l 256 986 l 174 986 l 35 1165 l 151 1165 m 428 1018 l 576 876 l 493 876 l 376 953 l 250 876 l 167 876 l 331 1018 l 428 1018 z "},"ẩ":{"ha":758,"x_min":57,"x_max":667,"o":"m 246 -8 q 110 42 163 -8 q 57 178 57 92 l 57 236 q 117 378 57 325 q 294 432 178 432 l 526 432 l 526 510 q 511 584 526 556 q 456 628 496 613 q 343 643 417 643 l 115 643 l 115 725 q 390 754 238 753 q 599 699 532 754 q 667 519 667 644 l 667 0 l 557 0 l 533 83 q 474 50 521 72 q 366 10 428 28 q 246 -8 304 -8 m 313 93 q 393 105 346 93 q 481 131 440 117 q 526 149 522 146 l 526 363 l 332 354 q 197 235 197 346 l 197 201 q 231 119 197 144 q 313 93 264 93 m 528 1013 q 589 1075 589 1031 q 577 1110 589 1099 q 539 1121 565 1121 q 490 1113 524 1121 l 490 1163 q 557 1174 524 1174 q 633 1149 607 1174 q 658 1083 658 1125 q 528 950 658 986 l 528 1013 m 331 1018 l 428 1018 l 576 876 l 493 876 l 376 953 l 250 876 l 167 876 l 331 1018 z "},"ẫ":{"ha":758,"x_min":57,"x_max":667,"o":"m 246 -8 q 110 42 163 -8 q 57 178 57 92 l 57 236 q 117 378 57 325 q 294 432 178 432 l 526 432 l 526 510 q 511 584 526 556 q 456 628 496 613 q 343 643 417 643 l 115 643 l 115 725 q 390 754 238 753 q 599 699 532 754 q 667 519 667 644 l 667 0 l 557 0 l 533 83 q 474 50 521 72 q 366 10 428 28 q 246 -8 304 -8 m 313 93 q 393 105 346 93 q 481 131 440 117 q 526 149 522 146 l 526 363 l 332 354 q 197 235 197 346 l 197 201 q 231 119 197 144 q 313 93 264 93 m 265 1203 q 315 1196 292 1203 q 371 1174 338 1189 q 415 1156 397 1163 q 453 1150 433 1150 q 502 1165 483 1150 q 521 1207 521 1179 l 592 1207 q 559 1110 588 1140 q 475 1081 531 1081 q 368 1108 435 1081 q 317 1127 338 1121 q 279 1133 297 1133 q 238 1119 254 1133 q 219 1079 221 1104 l 149 1079 q 265 1203 156 1203 m 576 876 l 493 876 l 376 953 l 250 876 l 167 876 l 331 1018 l 428 1018 l 576 876 z "},"ȁ":{"ha":758,"x_min":57,"x_max":667,"o":"m 246 -8 q 110 42 163 -8 q 57 178 57 92 l 57 236 q 117 378 57 325 q 294 432 178 432 l 526 432 l 526 510 q 511 584 526 556 q 456 628 496 613 q 343 643 417 643 l 115 643 l 115 725 q 390 754 238 753 q 599 699 532 754 q 667 519 667 644 l 667 0 l 557 0 l 533 83 q 474 50 521 72 q 366 10 428 28 q 246 -8 304 -8 m 313 93 q 393 105 346 93 q 481 131 440 117 q 526 149 522 146 l 526 363 l 332 354 q 197 235 197 346 l 197 201 q 231 119 197 144 q 313 93 264 93 m 83 1068 l 200 1068 l 335 876 l 253 876 l 83 1068 m 300 1068 l 417 1068 l 551 876 l 469 876 l 300 1068 z "},"ä":{"ha":758,"x_min":57,"x_max":667,"o":"m 246 -8 q 110 42 163 -8 q 57 178 57 92 l 57 236 q 117 378 57 325 q 294 432 178 432 l 526 432 l 526 510 q 511 584 526 556 q 456 628 496 613 q 343 643 417 643 l 115 643 l 115 725 q 390 754 238 753 q 599 699 532 754 q 667 519 667 644 l 667 0 l 557 0 l 533 83 q 474 50 521 72 q 366 10 428 28 q 246 -8 304 -8 m 313 93 q 393 105 346 93 q 481 131 440 117 q 526 149 522 146 l 526 363 l 332 354 q 197 235 197 346 l 197 201 q 231 119 197 144 q 313 93 264 93 m 204 900 q 186 907 193 900 q 179 924 179 914 l 179 1040 q 204 1065 179 1065 l 268 1065 q 292 1040 292 1065 l 292 924 q 268 900 292 900 l 204 900 m 475 900 q 458 907 464 900 q 451 924 451 914 l 451 1040 q 475 1065 451 1065 l 540 1065 q 564 1040 564 1065 l 564 924 q 558 906 564 913 q 540 900 551 900 l 475 900 z "},"ạ":{"ha":758,"x_min":57,"x_max":667,"o":"m 246 -8 q 110 42 163 -8 q 57 178 57 92 l 57 236 q 117 378 57 325 q 294 432 178 432 l 526 432 l 526 510 q 511 584 526 556 q 456 628 496 613 q 343 643 417 643 l 115 643 l 115 725 q 390 754 238 753 q 599 699 532 754 q 667 519 667 644 l 667 0 l 557 0 l 533 83 q 474 50 521 72 q 366 10 428 28 q 246 -8 304 -8 m 313 93 q 393 105 346 93 q 481 131 440 117 q 526 149 522 146 l 526 363 l 332 354 q 197 235 197 346 l 197 201 q 231 119 197 144 q 313 93 264 93 m 338 -299 q 320 -292 326 -299 q 314 -275 314 -286 l 314 -158 q 338 -133 314 -133 l 403 -133 q 426 -158 426 -133 l 426 -275 q 420 -292 426 -286 q 403 -299 414 -299 l 338 -299 z "},"à":{"ha":758,"x_min":57,"x_max":667,"o":"m 246 -8 q 110 42 163 -8 q 57 178 57 92 l 57 236 q 117 378 57 325 q 294 432 178 432 l 526 432 l 526 510 q 511 584 526 556 q 456 628 496 613 q 343 643 417 643 l 115 643 l 115 725 q 390 754 238 753 q 599 699 532 754 q 667 519 667 644 l 667 0 l 557 0 l 533 83 q 474 50 521 72 q 366 10 428 28 q 246 -8 304 -8 m 313 93 q 393 105 346 93 q 481 131 440 117 q 526 149 522 146 l 526 363 l 332 354 q 197 235 197 346 l 197 201 q 231 119 197 144 q 313 93 264 93 m 193 1068 l 308 1068 l 444 876 l 363 876 l 193 1068 z "},"ả":{"ha":758,"x_min":57,"x_max":667,"o":"m 246 -8 q 110 42 163 -8 q 57 178 57 92 l 57 236 q 117 378 57 325 q 294 432 178 432 l 526 432 l 526 510 q 511 584 526 556 q 456 628 496 613 q 343 643 417 643 l 115 643 l 115 725 q 390 754 238 753 q 599 699 532 754 q 667 519 667 644 l 667 0 l 557 0 l 533 83 q 474 50 521 72 q 366 10 428 28 q 246 -8 304 -8 m 313 93 q 393 105 346 93 q 481 131 440 117 q 526 149 522 146 l 526 363 l 332 354 q 197 235 197 346 l 197 201 q 231 119 197 144 q 313 93 264 93 m 346 897 q 400 928 383 908 q 417 971 417 947 q 403 1011 417 997 q 356 1025 389 1025 q 308 1017 331 1025 l 308 1074 q 374 1083 336 1083 q 462 1055 432 1083 q 492 975 492 1026 q 346 833 492 875 l 346 897 z "},"ȃ":{"ha":758,"x_min":57,"x_max":667,"o":"m 246 -8 q 110 42 163 -8 q 57 178 57 92 l 57 236 q 117 378 57 325 q 294 432 178 432 l 526 432 l 526 510 q 511 584 526 556 q 456 628 496 613 q 343 643 417 643 l 115 643 l 115 725 q 390 754 238 753 q 599 699 532 754 q 667 519 667 644 l 667 0 l 557 0 l 533 83 q 474 50 521 72 q 366 10 428 28 q 246 -8 304 -8 m 313 93 q 393 105 346 93 q 481 131 440 117 q 526 149 522 146 l 526 363 l 332 354 q 197 235 197 346 l 197 201 q 231 119 197 144 q 313 93 264 93 m 374 1074 q 508 1025 458 1074 q 558 872 558 976 l 493 872 q 460 976 493 943 q 376 1008 426 1008 q 254 872 254 1008 l 186 872 q 237 1026 186 978 q 374 1074 288 1074 z "},"ā":{"ha":758,"x_min":57,"x_max":667,"o":"m 246 -8 q 110 42 163 -8 q 57 178 57 92 l 57 236 q 117 378 57 325 q 294 432 178 432 l 526 432 l 526 510 q 511 584 526 556 q 456 628 496 613 q 343 643 417 643 l 115 643 l 115 725 q 390 754 238 753 q 599 699 532 754 q 667 519 667 644 l 667 0 l 557 0 l 533 83 q 474 50 521 72 q 366 10 428 28 q 246 -8 304 -8 m 313 93 q 393 105 346 93 q 481 131 440 117 q 526 149 522 146 l 526 363 l 332 354 q 197 235 197 346 l 197 201 q 231 119 197 144 q 313 93 264 93 m 183 1006 l 558 1006 l 558 922 l 183 922 l 183 1006 z "},"ą":{"ha":758,"x_min":57,"x_max":699,"o":"m 699 -190 l 699 -258 q 660 -261 676 -261 q 551 -226 589 -261 q 513 -137 513 -190 q 538 -59 513 -94 q 613 0 563 -24 l 557 0 l 533 83 q 474 50 521 72 q 366 10 428 28 q 246 -8 304 -8 q 110 42 163 -8 q 57 178 57 92 l 57 236 q 117 378 57 325 q 294 432 178 432 l 526 432 l 526 510 q 511 584 526 556 q 456 628 496 613 q 343 643 417 643 l 115 643 l 115 725 q 390 754 238 753 q 599 699 532 754 q 667 519 667 644 l 667 0 l 665 0 q 583 -107 583 -46 q 611 -168 583 -146 q 688 -190 639 -190 l 699 -190 m 526 363 l 332 354 q 197 235 197 346 l 197 201 q 231 119 197 144 q 313 93 264 93 q 393 105 346 93 q 481 131 440 117 q 526 149 522 146 l 526 363 z "},"å":{"ha":758,"x_min":57,"x_max":667,"o":"m 246 -8 q 110 42 163 -8 q 57 178 57 92 l 57 236 q 117 378 57 325 q 294 432 178 432 l 526 432 l 526 510 q 511 584 526 556 q 456 628 496 613 q 343 643 417 643 l 115 643 l 115 725 q 390 754 238 753 q 599 699 532 754 q 667 519 667 644 l 667 0 l 557 0 l 533 83 q 474 50 521 72 q 366 10 428 28 q 246 -8 304 -8 m 313 93 q 393 105 346 93 q 481 131 440 117 q 526 149 522 146 l 526 363 l 332 354 q 197 235 197 346 l 197 201 q 231 119 197 144 q 313 93 264 93 m 376 821 q 255 856 294 821 q 215 972 215 890 q 255 1090 215 1054 q 376 1125 294 1125 q 495 1090 457 1125 q 533 972 533 1056 q 495 855 533 889 q 376 821 457 821 m 376 876 q 446 897 425 876 q 467 972 467 918 q 446 1048 467 1026 q 376 1069 425 1069 q 304 1048 326 1069 q 282 972 282 1026 q 304 897 282 918 q 376 876 326 876 z "},"ǻ":{"ha":758,"x_min":57,"x_max":667,"o":"m 376 821 q 255 856 294 821 q 215 972 215 890 q 249 1084 215 1049 q 353 1124 283 1119 l 469 1290 l 586 1290 l 435 1119 q 509 1074 485 1108 q 533 972 533 1039 q 495 855 533 889 q 376 821 457 821 m 376 1069 q 304 1048 326 1069 q 282 972 282 1026 q 304 897 282 918 q 376 876 326 876 q 446 897 425 876 q 467 972 467 918 q 446 1048 467 1026 q 376 1069 425 1069 m 390 754 q 599 699 532 754 q 667 519 667 644 l 667 0 l 557 0 l 533 83 q 474 50 521 72 q 366 10 428 28 q 246 -8 304 -8 q 110 42 163 -8 q 57 178 57 92 l 57 236 q 117 378 57 325 q 294 432 178 432 l 526 432 l 526 510 q 511 584 526 556 q 456 628 496 613 q 343 643 417 643 l 115 643 l 115 725 q 390 754 238 753 m 526 363 l 332 354 q 197 235 197 346 l 197 201 q 231 119 197 144 q 313 93 264 93 q 393 105 346 93 q 481 131 440 117 q 526 149 522 146 l 526 363 z "},"ã":{"ha":758,"x_min":57,"x_max":667,"o":"m 246 -8 q 110 42 163 -8 q 57 178 57 92 l 57 236 q 117 378 57 325 q 294 432 178 432 l 526 432 l 526 510 q 511 584 526 556 q 456 628 496 613 q 343 643 417 643 l 115 643 l 115 725 q 390 754 238 753 q 599 699 532 754 q 667 519 667 644 l 667 0 l 557 0 l 533 83 q 474 50 521 72 q 366 10 428 28 q 246 -8 304 -8 m 313 93 q 393 105 346 93 q 481 131 440 117 q 526 149 522 146 l 526 363 l 332 354 q 197 235 197 346 l 197 201 q 231 119 197 144 q 313 93 264 93 m 140 890 q 182 1010 143 972 q 276 1049 221 1049 q 336 1038 308 1049 q 399 1006 364 1026 q 449 979 429 988 q 489 971 468 971 q 544 992 524 971 q 565 1054 564 1014 l 636 1054 q 599 934 635 976 q 499 892 563 892 q 441 903 468 892 q 379 935 414 914 q 328 962 350 953 q 286 971 307 971 q 233 950 254 971 q 211 890 213 929 l 140 890 z "},"æ":{"ha":1211,"x_min":60,"x_max":1133,"o":"m 253 -8 q 108 44 157 -8 q 60 182 60 96 l 60 233 q 119 373 60 321 q 293 425 178 425 l 529 425 l 529 513 q 490 609 529 575 q 358 643 450 643 l 118 643 l 118 725 q 233 746 176 739 q 372 754 290 753 q 517 724 454 754 q 606 639 579 694 q 695 726 635 699 q 846 753 756 753 q 1010 730 947 753 q 1103 652 1072 707 q 1133 500 1133 597 q 1076 369 1133 407 q 904 332 1019 332 l 665 332 q 724 147 665 196 q 894 99 782 99 l 1113 99 l 1113 15 q 832 -8 996 -8 q 671 32 735 -8 q 574 133 607 72 q 433 33 517 74 q 253 -8 349 -8 m 901 422 q 981 440 954 422 q 1007 503 1007 457 q 968 614 1007 582 q 836 646 929 646 q 732 627 768 646 q 681 561 696 608 q 665 422 667 514 l 901 422 m 313 93 q 435 121 375 93 q 544 199 496 149 q 528 353 528 268 l 318 344 q 228 313 257 343 q 200 235 200 282 l 200 204 q 313 93 200 93 z "},"ǽ":{"ha":1211,"x_min":60,"x_max":1133,"o":"m 253 -8 q 108 44 157 -8 q 60 182 60 96 l 60 233 q 119 373 60 321 q 293 425 178 425 l 529 425 l 529 513 q 490 609 529 575 q 358 643 450 643 l 118 643 l 118 725 q 233 746 176 739 q 372 754 290 753 q 517 724 454 754 q 606 639 579 694 q 695 726 635 699 q 846 753 756 753 q 1010 730 947 753 q 1103 652 1072 707 q 1133 500 1133 597 q 1076 369 1133 407 q 904 332 1019 332 l 665 332 q 724 147 665 196 q 894 99 782 99 l 1113 99 l 1113 15 q 832 -8 996 -8 q 671 32 735 -8 q 574 133 607 72 q 433 33 517 74 q 253 -8 349 -8 m 901 422 q 981 440 954 422 q 1007 503 1007 457 q 968 614 1007 582 q 836 646 929 646 q 732 627 768 646 q 681 561 696 608 q 665 422 667 514 l 901 422 m 313 93 q 435 121 375 93 q 544 199 496 149 q 528 353 528 268 l 318 344 q 228 313 257 343 q 200 235 200 282 l 200 204 q 313 93 200 93 m 689 1068 l 806 1068 l 636 876 l 554 876 l 689 1068 z "},"b":{"ha":806,"x_min":97,"x_max":733,"o":"m 475 -8 q 236 74 349 -8 l 211 0 l 97 0 l 97 1060 l 236 1060 l 236 681 q 353 732 290 711 q 468 753 417 753 q 670 663 607 753 q 733 365 733 574 q 671 87 733 182 q 475 -8 608 -8 m 426 107 q 594 372 594 107 q 573 539 594 481 q 515 618 551 597 q 426 639 479 639 q 330 624 375 639 q 236 583 285 610 l 236 160 q 327 122 282 136 q 426 107 372 107 z "},"ḃ":{"ha":806,"x_min":97,"x_max":733,"o":"m 475 -8 q 236 74 349 -8 l 211 0 l 97 0 l 97 1060 l 236 1060 l 236 681 q 353 732 290 711 q 468 753 417 753 q 670 663 607 753 q 733 365 733 574 q 671 87 733 182 q 475 -8 608 -8 m 426 107 q 594 372 594 107 q 573 539 594 481 q 515 618 551 597 q 426 639 479 639 q 330 624 375 639 q 236 583 285 610 l 236 160 q 327 122 282 136 q 426 107 372 107 m 132 1188 q 115 1194 121 1188 q 108 1211 108 1201 l 108 1328 q 132 1353 108 1353 l 197 1353 q 221 1328 221 1353 l 221 1211 q 215 1194 221 1200 q 197 1188 208 1188 l 132 1188 z "},"c":{"ha":681,"x_min":72,"x_max":638,"o":"m 374 -8 q 151 75 229 -8 q 72 369 72 158 q 108 601 72 518 q 210 718 144 685 q 378 751 276 751 q 626 728 518 751 l 626 646 l 417 646 q 300 623 343 646 q 235 540 257 600 q 213 368 213 479 q 235 201 213 260 q 302 121 258 143 q 418 99 346 99 l 638 99 l 638 19 q 514 -1 585 7 q 374 -8 443 -8 z "},"ć":{"ha":681,"x_min":72,"x_max":638,"o":"m 374 -8 q 151 75 229 -8 q 72 369 72 158 q 108 601 72 518 q 210 718 144 685 q 378 751 276 751 q 626 728 518 751 l 626 646 l 417 646 q 300 623 343 646 q 235 540 257 600 q 213 368 213 479 q 235 201 213 260 q 302 121 258 143 q 418 99 346 99 l 638 99 l 638 19 q 514 -1 585 7 q 374 -8 443 -8 m 460 1068 l 576 1068 l 407 876 l 325 876 l 460 1068 z "},"č":{"ha":681,"x_min":72,"x_max":638,"o":"m 374 -8 q 151 75 229 -8 q 72 369 72 158 q 108 601 72 518 q 210 718 144 685 q 378 751 276 751 q 626 728 518 751 l 626 646 l 417 646 q 300 623 343 646 q 235 540 257 600 q 213 368 213 479 q 235 201 213 260 q 302 121 258 143 q 418 99 346 99 l 638 99 l 638 19 q 514 -1 585 7 q 374 -8 443 -8 m 175 1067 l 258 1067 l 375 942 l 500 1067 l 585 1067 l 421 876 l 324 876 l 175 1067 z "},"ç":{"ha":681,"x_min":72,"x_max":638,"o":"m 638 19 q 411 -8 539 -4 l 368 -74 q 467 -164 467 -82 q 431 -240 467 -214 q 329 -267 396 -267 l 276 -267 l 276 -210 l 306 -207 q 376 -149 376 -199 q 293 -90 376 -96 l 347 -8 q 144 83 215 -1 q 72 369 72 168 q 108 601 72 518 q 210 718 144 685 q 378 751 276 751 q 626 728 518 751 l 626 646 l 417 646 q 300 623 343 646 q 235 540 257 600 q 213 368 213 479 q 235 201 213 260 q 302 121 258 143 q 418 99 346 99 l 638 99 l 638 19 z "},"ḉ":{"ha":681,"x_min":72,"x_max":638,"o":"m 407 876 l 325 876 l 460 1068 l 576 1068 l 407 876 m 638 19 q 411 -8 539 -4 l 368 -74 q 467 -164 467 -82 q 431 -240 467 -214 q 329 -267 396 -267 l 276 -267 l 276 -210 l 306 -207 q 376 -149 376 -199 q 293 -90 376 -96 l 347 -8 q 144 83 215 -1 q 72 369 72 168 q 108 601 72 518 q 210 718 144 685 q 378 751 276 751 q 626 728 518 751 l 626 646 l 417 646 q 300 623 343 646 q 235 540 257 600 q 213 368 213 479 q 235 201 213 260 q 302 121 258 143 q 418 99 346 99 l 638 99 l 638 19 z "},"ĉ":{"ha":681,"x_min":72,"x_max":638,"o":"m 374 -8 q 151 75 229 -8 q 72 369 72 158 q 108 601 72 518 q 210 718 144 685 q 378 751 276 751 q 626 728 518 751 l 626 646 l 417 646 q 300 623 343 646 q 235 540 257 600 q 213 368 213 479 q 235 201 213 260 q 302 121 258 143 q 418 99 346 99 l 638 99 l 638 19 q 514 -1 585 7 q 374 -8 443 -8 m 331 1067 l 428 1067 l 576 876 l 493 876 l 376 1003 l 250 876 l 167 876 l 331 1067 z "},"ċ":{"ha":681,"x_min":72,"x_max":638,"o":"m 374 -8 q 151 75 229 -8 q 72 369 72 158 q 108 601 72 518 q 210 718 144 685 q 378 751 276 751 q 626 728 518 751 l 626 646 l 417 646 q 300 623 343 646 q 235 540 257 600 q 213 368 213 479 q 235 201 213 260 q 302 121 258 143 q 418 99 346 99 l 638 99 l 638 19 q 514 -1 585 7 q 374 -8 443 -8 m 340 910 q 323 917 329 910 q 317 933 317 924 l 317 1050 q 340 1075 317 1075 l 406 1075 q 429 1050 429 1075 l 429 933 q 423 916 429 922 q 406 910 417 910 l 340 910 z "},"d":{"ha":801,"x_min":72,"x_max":708,"o":"m 339 -8 q 138 81 203 -8 q 72 365 72 171 q 99 590 72 506 q 188 713 126 674 q 353 753 249 753 q 569 713 449 753 l 569 1060 l 708 1060 l 708 0 l 594 0 l 569 74 q 466 17 535 43 q 339 -8 397 -8 m 383 106 q 569 161 469 106 l 569 613 q 525 626 561 615 q 457 641 489 636 q 394 646 425 646 q 288 622 326 646 q 231 538 249 597 q 213 372 213 479 q 229 215 213 272 q 283 131 246 157 q 383 106 321 106 z "},"ð":{"ha":800,"x_min":72,"x_max":728,"o":"m 575 926 q 690 712 653 847 q 728 372 728 576 q 694 140 728 222 q 590 24 660 57 q 400 -8 519 -8 q 211 24 282 -8 q 106 139 140 57 q 72 367 72 221 q 108 597 72 515 q 211 708 144 678 q 382 739 278 739 q 575 683 514 739 q 465 883 543 814 l 243 797 l 225 846 l 415 921 q 197 978 332 969 l 197 1064 q 531 965 414 1053 l 704 1033 l 724 983 l 575 926 m 400 106 q 509 124 469 106 q 569 197 549 142 q 589 367 589 253 q 569 535 589 479 q 509 610 549 592 q 400 628 469 628 q 292 610 331 628 q 233 535 253 592 q 213 367 213 479 q 233 197 213 253 q 291 124 253 142 q 400 106 329 106 z "},"ď":{"ha":801,"x_min":72,"x_max":924,"o":"m 339 -8 q 138 81 203 -8 q 72 365 72 171 q 99 590 72 506 q 188 713 126 674 q 353 753 249 753 q 569 713 449 753 l 569 1060 l 708 1060 l 708 0 l 594 0 l 569 74 q 466 17 535 43 q 339 -8 397 -8 m 383 106 q 569 161 469 106 l 569 613 q 525 626 561 615 q 457 641 489 636 q 394 646 425 646 q 288 622 326 646 q 231 538 249 597 q 213 372 213 479 q 229 215 213 272 q 283 131 246 157 q 383 106 321 106 m 796 1003 l 796 1088 l 924 1088 l 924 1003 l 914 808 l 806 808 l 796 1003 z "},"đ":{"ha":801,"x_min":72,"x_max":800,"o":"m 800 868 l 708 868 l 708 0 l 594 0 l 569 74 q 466 17 535 43 q 339 -8 397 -8 q 138 81 203 -8 q 72 365 72 171 q 99 590 72 506 q 188 713 126 674 q 353 753 249 753 q 569 713 449 753 l 569 868 l 386 868 l 386 926 l 569 926 l 569 1060 l 708 1060 l 708 926 l 800 926 l 800 868 m 569 613 q 525 626 561 615 q 457 641 489 636 q 394 646 425 646 q 288 622 326 646 q 231 538 249 597 q 213 372 213 479 q 229 215 213 272 q 283 131 246 157 q 383 106 321 106 q 569 161 469 106 l 569 613 z "},"ḋ":{"ha":801,"x_min":72,"x_max":708,"o":"m 339 -8 q 138 81 203 -8 q 72 365 72 171 q 99 590 72 506 q 188 713 126 674 q 353 753 249 753 q 569 713 449 753 l 569 1060 l 708 1060 l 708 0 l 594 0 l 569 74 q 466 17 535 43 q 339 -8 397 -8 m 383 106 q 569 161 469 106 l 569 613 q 525 626 561 615 q 457 641 489 636 q 394 646 425 646 q 288 622 326 646 q 231 538 249 597 q 213 372 213 479 q 229 215 213 272 q 283 131 246 157 q 383 106 321 106 m 604 1188 q 587 1194 593 1188 q 581 1211 581 1201 l 581 1328 q 604 1353 581 1353 l 669 1353 q 693 1328 693 1353 l 693 1211 q 687 1194 693 1200 q 669 1188 681 1188 l 604 1188 z "},"ḍ":{"ha":801,"x_min":72,"x_max":708,"o":"m 339 -8 q 138 81 203 -8 q 72 365 72 171 q 99 590 72 506 q 188 713 126 674 q 353 753 249 753 q 569 713 449 753 l 569 1060 l 708 1060 l 708 0 l 594 0 l 569 74 q 466 17 535 43 q 339 -8 397 -8 m 383 106 q 569 161 469 106 l 569 613 q 525 626 561 615 q 457 641 489 636 q 394 646 425 646 q 288 622 326 646 q 231 538 249 597 q 213 372 213 479 q 229 215 213 272 q 283 131 246 157 q 383 106 321 106 m 360 -299 q 342 -292 349 -299 q 336 -275 336 -286 l 336 -158 q 360 -133 336 -133 l 425 -133 q 449 -158 449 -133 l 449 -275 q 442 -292 449 -286 q 425 -299 436 -299 l 360 -299 z "},"ḏ":{"ha":801,"x_min":72,"x_max":708,"o":"m 339 -8 q 138 81 203 -8 q 72 365 72 171 q 99 590 72 506 q 188 713 126 674 q 353 753 249 753 q 569 713 449 753 l 569 1060 l 708 1060 l 708 0 l 594 0 l 569 74 q 466 17 535 43 q 339 -8 397 -8 m 383 106 q 569 161 469 106 l 569 613 q 525 626 561 615 q 457 641 489 636 q 394 646 425 646 q 288 622 326 646 q 231 538 249 597 q 213 372 213 479 q 229 215 213 272 q 283 131 246 157 q 383 106 321 106 m 207 -189 l 582 -189 l 582 -272 l 207 -272 l 207 -189 z "},"e":{"ha":750,"x_min":72,"x_max":678,"o":"m 390 -8 q 201 26 269 -8 q 102 143 132 61 q 72 372 72 225 q 102 604 72 522 q 200 719 132 686 q 389 753 268 753 q 557 731 494 753 q 649 654 619 708 q 678 504 678 600 q 621 362 678 406 q 457 318 564 318 l 211 318 q 230 187 213 233 q 293 119 247 140 q 425 99 339 99 l 657 99 l 657 15 q 522 -2 581 4 q 390 -8 464 -8 m 444 406 q 527 427 501 406 q 553 503 553 449 q 516 618 553 586 q 389 650 479 650 q 280 629 318 650 q 226 556 242 608 q 210 406 210 504 l 444 406 z "},"é":{"ha":750,"x_min":72,"x_max":678,"o":"m 390 -8 q 201 26 269 -8 q 102 143 132 61 q 72 372 72 225 q 102 604 72 522 q 200 719 132 686 q 389 753 268 753 q 557 731 494 753 q 649 654 619 708 q 678 504 678 600 q 621 362 678 406 q 457 318 564 318 l 211 318 q 230 187 213 233 q 293 119 247 140 q 425 99 339 99 l 657 99 l 657 15 q 522 -2 581 4 q 390 -8 464 -8 m 444 406 q 527 427 501 406 q 553 503 553 449 q 516 618 553 586 q 389 650 479 650 q 280 629 318 650 q 226 556 242 608 q 210 406 210 504 l 444 406 m 460 1068 l 576 1068 l 407 876 l 325 876 l 460 1068 z "},"ĕ":{"ha":750,"x_min":72,"x_max":678,"o":"m 390 -8 q 201 26 269 -8 q 102 143 132 61 q 72 372 72 225 q 102 604 72 522 q 200 719 132 686 q 389 753 268 753 q 557 731 494 753 q 649 654 619 708 q 678 504 678 600 q 621 362 678 406 q 457 318 564 318 l 211 318 q 230 187 213 233 q 293 119 247 140 q 425 99 339 99 l 657 99 l 657 15 q 522 -2 581 4 q 390 -8 464 -8 m 444 406 q 527 427 501 406 q 553 503 553 449 q 516 618 553 586 q 389 650 479 650 q 280 629 318 650 q 226 556 242 608 q 210 406 210 504 l 444 406 m 365 871 q 231 919 281 871 q 181 1072 181 968 l 246 1072 q 279 969 246 1003 q 363 936 313 936 q 485 1072 485 936 l 553 1072 q 502 919 553 967 q 365 871 451 871 z "},"ě":{"ha":750,"x_min":72,"x_max":678,"o":"m 390 -8 q 201 26 269 -8 q 102 143 132 61 q 72 372 72 225 q 102 604 72 522 q 200 719 132 686 q 389 753 268 753 q 557 731 494 753 q 649 654 619 708 q 678 504 678 600 q 621 362 678 406 q 457 318 564 318 l 211 318 q 230 187 213 233 q 293 119 247 140 q 425 99 339 99 l 657 99 l 657 15 q 522 -2 581 4 q 390 -8 464 -8 m 444 406 q 527 427 501 406 q 553 503 553 449 q 516 618 553 586 q 389 650 479 650 q 280 629 318 650 q 226 556 242 608 q 210 406 210 504 l 444 406 m 175 1067 l 258 1067 l 375 942 l 500 1067 l 585 1067 l 421 876 l 324 876 l 175 1067 z "},"ḝ":{"ha":750,"x_min":72,"x_max":678,"o":"m 365 871 q 231 919 281 871 q 181 1072 181 968 l 246 1072 q 279 969 246 1003 q 363 936 313 936 q 485 1072 485 936 l 553 1072 q 502 919 553 967 q 365 871 451 871 m 211 318 q 230 187 213 233 q 293 119 247 140 q 425 99 339 99 l 657 99 l 657 15 q 528 -1 581 4 q 411 -8 476 -7 l 368 -74 q 467 -164 467 -82 q 431 -240 467 -214 q 329 -267 396 -267 l 276 -267 l 276 -210 l 306 -207 q 376 -149 376 -199 q 293 -90 376 -96 l 347 -7 q 184 36 243 -1 q 99 153 125 74 q 72 372 72 233 q 102 604 72 522 q 200 719 132 686 q 389 753 268 753 q 557 731 494 753 q 649 654 619 708 q 678 504 678 600 q 621 362 678 406 q 457 318 564 318 l 211 318 m 389 650 q 280 629 318 650 q 226 556 242 608 q 210 406 210 504 l 444 406 q 527 427 501 406 q 553 503 553 449 q 516 618 553 586 q 389 650 479 650 z "},"ê":{"ha":750,"x_min":72,"x_max":678,"o":"m 390 -8 q 201 26 269 -8 q 102 143 132 61 q 72 372 72 225 q 102 604 72 522 q 200 719 132 686 q 389 753 268 753 q 557 731 494 753 q 649 654 619 708 q 678 504 678 600 q 621 362 678 406 q 457 318 564 318 l 211 318 q 230 187 213 233 q 293 119 247 140 q 425 99 339 99 l 657 99 l 657 15 q 522 -2 581 4 q 390 -8 464 -8 m 444 406 q 527 427 501 406 q 553 503 553 449 q 516 618 553 586 q 389 650 479 650 q 280 629 318 650 q 226 556 242 608 q 210 406 210 504 l 444 406 m 331 1067 l 428 1067 l 576 876 l 493 876 l 376 1003 l 250 876 l 167 876 l 331 1067 z "},"ế":{"ha":750,"x_min":72,"x_max":715,"o":"m 390 -8 q 201 26 269 -8 q 102 143 132 61 q 72 372 72 225 q 102 604 72 522 q 200 719 132 686 q 389 753 268 753 q 557 731 494 753 q 649 654 619 708 q 678 504 678 600 q 621 362 678 406 q 457 318 564 318 l 211 318 q 230 187 213 233 q 293 119 247 140 q 425 99 339 99 l 657 99 l 657 15 q 522 -2 581 4 q 390 -8 464 -8 m 444 406 q 527 427 501 406 q 553 503 553 449 q 516 618 553 586 q 389 650 479 650 q 280 629 318 650 q 226 556 242 608 q 210 406 210 504 l 444 406 m 715 1165 l 578 986 l 496 986 l 599 1165 l 715 1165 m 428 1018 l 576 876 l 493 876 l 376 953 l 250 876 l 167 876 l 331 1018 l 428 1018 z "},"ệ":{"ha":750,"x_min":72,"x_max":678,"o":"m 390 -8 q 201 26 269 -8 q 102 143 132 61 q 72 372 72 225 q 102 604 72 522 q 200 719 132 686 q 389 753 268 753 q 557 731 494 753 q 649 654 619 708 q 678 504 678 600 q 621 362 678 406 q 457 318 564 318 l 211 318 q 230 187 213 233 q 293 119 247 140 q 425 99 339 99 l 657 99 l 657 15 q 522 -2 581 4 q 390 -8 464 -8 m 444 406 q 527 427 501 406 q 553 503 553 449 q 516 618 553 586 q 389 650 479 650 q 280 629 318 650 q 226 556 242 608 q 210 406 210 504 l 444 406 m 331 1067 l 428 1067 l 576 876 l 493 876 l 376 1003 l 250 876 l 167 876 l 331 1067 m 338 -299 q 320 -292 326 -299 q 314 -275 314 -286 l 314 -158 q 338 -133 314 -133 l 403 -133 q 426 -158 426 -133 l 426 -275 q 420 -292 426 -286 q 403 -299 414 -299 l 338 -299 z "},"ề":{"ha":750,"x_min":35,"x_max":678,"o":"m 390 -8 q 201 26 269 -8 q 102 143 132 61 q 72 372 72 225 q 102 604 72 522 q 200 719 132 686 q 389 753 268 753 q 557 731 494 753 q 649 654 619 708 q 678 504 678 600 q 621 362 678 406 q 457 318 564 318 l 211 318 q 230 187 213 233 q 293 119 247 140 q 425 99 339 99 l 657 99 l 657 15 q 522 -2 581 4 q 390 -8 464 -8 m 444 406 q 527 427 501 406 q 553 503 553 449 q 516 618 553 586 q 389 650 479 650 q 280 629 318 650 q 226 556 242 608 q 210 406 210 504 l 444 406 m 151 1165 l 256 986 l 174 986 l 35 1165 l 151 1165 m 428 1018 l 576 876 l 493 876 l 376 953 l 250 876 l 167 876 l 331 1018 l 428 1018 z "},"ể":{"ha":750,"x_min":72,"x_max":678,"o":"m 390 -8 q 201 26 269 -8 q 102 143 132 61 q 72 372 72 225 q 102 604 72 522 q 200 719 132 686 q 389 753 268 753 q 557 731 494 753 q 649 654 619 708 q 678 504 678 600 q 621 362 678 406 q 457 318 564 318 l 211 318 q 230 187 213 233 q 293 119 247 140 q 425 99 339 99 l 657 99 l 657 15 q 522 -2 581 4 q 390 -8 464 -8 m 444 406 q 527 427 501 406 q 553 503 553 449 q 516 618 553 586 q 389 650 479 650 q 280 629 318 650 q 226 556 242 608 q 210 406 210 504 l 444 406 m 528 1013 q 589 1075 589 1031 q 577 1110 589 1099 q 539 1121 565 1121 q 490 1113 524 1121 l 490 1163 q 557 1174 524 1174 q 633 1149 607 1174 q 658 1083 658 1125 q 528 950 658 986 l 528 1013 m 331 1018 l 428 1018 l 576 876 l 493 876 l 376 953 l 250 876 l 167 876 l 331 1018 z "},"ễ":{"ha":750,"x_min":72,"x_max":678,"o":"m 390 -8 q 201 26 269 -8 q 102 143 132 61 q 72 372 72 225 q 102 604 72 522 q 200 719 132 686 q 389 753 268 753 q 557 731 494 753 q 649 654 619 708 q 678 504 678 600 q 621 362 678 406 q 457 318 564 318 l 211 318 q 230 187 213 233 q 293 119 247 140 q 425 99 339 99 l 657 99 l 657 15 q 522 -2 581 4 q 390 -8 464 -8 m 444 406 q 527 427 501 406 q 553 503 553 449 q 516 618 553 586 q 389 650 479 650 q 280 629 318 650 q 226 556 242 608 q 210 406 210 504 l 444 406 m 265 1203 q 315 1196 292 1203 q 371 1174 338 1189 q 415 1156 397 1163 q 453 1150 433 1150 q 502 1165 483 1150 q 521 1207 521 1179 l 592 1207 q 559 1110 588 1140 q 475 1081 531 1081 q 368 1108 435 1081 q 317 1127 338 1121 q 279 1133 297 1133 q 238 1119 254 1133 q 219 1079 221 1104 l 149 1079 q 265 1203 156 1203 m 576 876 l 493 876 l 376 953 l 250 876 l 167 876 l 331 1018 l 428 1018 l 576 876 z "},"ȅ":{"ha":750,"x_min":72,"x_max":678,"o":"m 390 -8 q 201 26 269 -8 q 102 143 132 61 q 72 372 72 225 q 102 604 72 522 q 200 719 132 686 q 389 753 268 753 q 557 731 494 753 q 649 654 619 708 q 678 504 678 600 q 621 362 678 406 q 457 318 564 318 l 211 318 q 230 187 213 233 q 293 119 247 140 q 425 99 339 99 l 657 99 l 657 15 q 522 -2 581 4 q 390 -8 464 -8 m 444 406 q 527 427 501 406 q 553 503 553 449 q 516 618 553 586 q 389 650 479 650 q 280 629 318 650 q 226 556 242 608 q 210 406 210 504 l 444 406 m 83 1068 l 200 1068 l 335 876 l 253 876 l 83 1068 m 300 1068 l 417 1068 l 551 876 l 469 876 l 300 1068 z "},"ë":{"ha":750,"x_min":72,"x_max":678,"o":"m 390 -8 q 201 26 269 -8 q 102 143 132 61 q 72 372 72 225 q 102 604 72 522 q 200 719 132 686 q 389 753 268 753 q 557 731 494 753 q 649 654 619 708 q 678 504 678 600 q 621 362 678 406 q 457 318 564 318 l 211 318 q 230 187 213 233 q 293 119 247 140 q 425 99 339 99 l 657 99 l 657 15 q 522 -2 581 4 q 390 -8 464 -8 m 444 406 q 527 427 501 406 q 553 503 553 449 q 516 618 553 586 q 389 650 479 650 q 280 629 318 650 q 226 556 242 608 q 210 406 210 504 l 444 406 m 204 900 q 186 907 193 900 q 179 924 179 914 l 179 1040 q 204 1065 179 1065 l 268 1065 q 292 1040 292 1065 l 292 924 q 268 900 292 900 l 204 900 m 475 900 q 458 907 464 900 q 451 924 451 914 l 451 1040 q 475 1065 451 1065 l 540 1065 q 564 1040 564 1065 l 564 924 q 558 906 564 913 q 540 900 551 900 l 475 900 z "},"ė":{"ha":750,"x_min":72,"x_max":678,"o":"m 390 -8 q 201 26 269 -8 q 102 143 132 61 q 72 372 72 225 q 102 604 72 522 q 200 719 132 686 q 389 753 268 753 q 557 731 494 753 q 649 654 619 708 q 678 504 678 600 q 621 362 678 406 q 457 318 564 318 l 211 318 q 230 187 213 233 q 293 119 247 140 q 425 99 339 99 l 657 99 l 657 15 q 522 -2 581 4 q 390 -8 464 -8 m 444 406 q 527 427 501 406 q 553 503 553 449 q 516 618 553 586 q 389 650 479 650 q 280 629 318 650 q 226 556 242 608 q 210 406 210 504 l 444 406 m 340 910 q 323 917 329 910 q 317 933 317 924 l 317 1050 q 340 1075 317 1075 l 406 1075 q 429 1050 429 1075 l 429 933 q 423 916 429 922 q 406 910 417 910 l 340 910 z "},"ẹ":{"ha":750,"x_min":72,"x_max":678,"o":"m 390 -8 q 201 26 269 -8 q 102 143 132 61 q 72 372 72 225 q 102 604 72 522 q 200 719 132 686 q 389 753 268 753 q 557 731 494 753 q 649 654 619 708 q 678 504 678 600 q 621 362 678 406 q 457 318 564 318 l 211 318 q 230 187 213 233 q 293 119 247 140 q 425 99 339 99 l 657 99 l 657 15 q 522 -2 581 4 q 390 -8 464 -8 m 444 406 q 527 427 501 406 q 553 503 553 449 q 516 618 553 586 q 389 650 479 650 q 280 629 318 650 q 226 556 242 608 q 210 406 210 504 l 444 406 m 338 -299 q 320 -292 326 -299 q 314 -275 314 -286 l 314 -158 q 338 -133 314 -133 l 403 -133 q 426 -158 426 -133 l 426 -275 q 420 -292 426 -286 q 403 -299 414 -299 l 338 -299 z "},"è":{"ha":750,"x_min":72,"x_max":678,"o":"m 390 -8 q 201 26 269 -8 q 102 143 132 61 q 72 372 72 225 q 102 604 72 522 q 200 719 132 686 q 389 753 268 753 q 557 731 494 753 q 649 654 619 708 q 678 504 678 600 q 621 362 678 406 q 457 318 564 318 l 211 318 q 230 187 213 233 q 293 119 247 140 q 425 99 339 99 l 657 99 l 657 15 q 522 -2 581 4 q 390 -8 464 -8 m 444 406 q 527 427 501 406 q 553 503 553 449 q 516 618 553 586 q 389 650 479 650 q 280 629 318 650 q 226 556 242 608 q 210 406 210 504 l 444 406 m 193 1068 l 308 1068 l 444 876 l 363 876 l 193 1068 z "},"ẻ":{"ha":750,"x_min":72,"x_max":678,"o":"m 390 -8 q 201 26 269 -8 q 102 143 132 61 q 72 372 72 225 q 102 604 72 522 q 200 719 132 686 q 389 753 268 753 q 557 731 494 753 q 649 654 619 708 q 678 504 678 600 q 621 362 678 406 q 457 318 564 318 l 211 318 q 230 187 213 233 q 293 119 247 140 q 425 99 339 99 l 657 99 l 657 15 q 522 -2 581 4 q 390 -8 464 -8 m 444 406 q 527 427 501 406 q 553 503 553 449 q 516 618 553 586 q 389 650 479 650 q 280 629 318 650 q 226 556 242 608 q 210 406 210 504 l 444 406 m 346 897 q 400 928 383 908 q 417 971 417 947 q 403 1011 417 997 q 356 1025 389 1025 q 308 1017 331 1025 l 308 1074 q 374 1083 336 1083 q 462 1055 432 1083 q 492 975 492 1026 q 346 833 492 875 l 346 897 z "},"ȇ":{"ha":750,"x_min":72,"x_max":678,"o":"m 390 -8 q 201 26 269 -8 q 102 143 132 61 q 72 372 72 225 q 102 604 72 522 q 200 719 132 686 q 389 753 268 753 q 557 731 494 753 q 649 654 619 708 q 678 504 678 600 q 621 362 678 406 q 457 318 564 318 l 211 318 q 230 187 213 233 q 293 119 247 140 q 425 99 339 99 l 657 99 l 657 15 q 522 -2 581 4 q 390 -8 464 -8 m 444 406 q 527 427 501 406 q 553 503 553 449 q 516 618 553 586 q 389 650 479 650 q 280 629 318 650 q 226 556 242 608 q 210 406 210 504 l 444 406 m 374 1074 q 508 1025 458 1074 q 558 872 558 976 l 493 872 q 460 976 493 943 q 376 1008 426 1008 q 254 872 254 1008 l 186 872 q 237 1026 186 978 q 374 1074 288 1074 z "},"ē":{"ha":750,"x_min":72,"x_max":678,"o":"m 390 -8 q 201 26 269 -8 q 102 143 132 61 q 72 372 72 225 q 102 604 72 522 q 200 719 132 686 q 389 753 268 753 q 557 731 494 753 q 649 654 619 708 q 678 504 678 600 q 621 362 678 406 q 457 318 564 318 l 211 318 q 230 187 213 233 q 293 119 247 140 q 425 99 339 99 l 657 99 l 657 15 q 522 -2 581 4 q 390 -8 464 -8 m 444 406 q 527 427 501 406 q 553 503 553 449 q 516 618 553 586 q 389 650 479 650 q 280 629 318 650 q 226 556 242 608 q 210 406 210 504 l 444 406 m 183 1006 l 558 1006 l 558 922 l 183 922 l 183 1006 z "},"ḗ":{"ha":750,"x_min":72,"x_max":678,"o":"m 390 -8 q 201 26 269 -8 q 102 143 132 61 q 72 372 72 225 q 102 604 72 522 q 200 719 132 686 q 389 753 268 753 q 557 731 494 753 q 649 654 619 708 q 678 504 678 600 q 621 362 678 406 q 457 318 564 318 l 211 318 q 230 187 213 233 q 293 119 247 140 q 425 99 339 99 l 657 99 l 657 15 q 522 -2 581 4 q 390 -8 464 -8 m 444 406 q 527 427 501 406 q 553 503 553 449 q 516 618 553 586 q 389 650 479 650 q 280 629 318 650 q 226 556 242 608 q 210 406 210 504 l 444 406 m 183 1006 l 558 1006 l 558 922 l 183 922 l 183 1006 m 454 1247 l 571 1247 l 401 1056 l 319 1056 l 454 1247 z "},"ḕ":{"ha":750,"x_min":72,"x_max":678,"o":"m 390 -8 q 201 26 269 -8 q 102 143 132 61 q 72 372 72 225 q 102 604 72 522 q 200 719 132 686 q 389 753 268 753 q 557 731 494 753 q 649 654 619 708 q 678 504 678 600 q 621 362 678 406 q 457 318 564 318 l 211 318 q 230 187 213 233 q 293 119 247 140 q 425 99 339 99 l 657 99 l 657 15 q 522 -2 581 4 q 390 -8 464 -8 m 444 406 q 527 427 501 406 q 553 503 553 449 q 516 618 553 586 q 389 650 479 650 q 280 629 318 650 q 226 556 242 608 q 210 406 210 504 l 444 406 m 183 1006 l 558 1006 l 558 922 l 183 922 l 183 1006 m 175 1247 l 290 1247 l 426 1056 l 344 1056 l 175 1247 z "},"ę":{"ha":750,"x_min":72,"x_max":690,"o":"m 690 -157 l 690 -225 q 651 -228 668 -228 q 542 -192 581 -228 q 504 -104 504 -157 q 554 1 504 -43 q 390 -8 469 -8 q 201 26 269 -8 q 102 143 132 61 q 72 372 72 225 q 102 604 72 522 q 200 719 132 686 q 389 753 268 753 q 557 731 494 753 q 649 654 619 708 q 678 504 678 600 q 621 362 678 406 q 457 318 564 318 l 211 318 q 230 187 213 233 q 293 119 247 140 q 425 99 339 99 l 657 99 l 657 15 l 622 10 q 575 -74 575 -28 q 603 -135 575 -112 q 679 -157 631 -157 l 690 -157 m 389 650 q 280 629 318 650 q 226 556 242 608 q 210 406 210 504 l 444 406 q 527 427 501 406 q 553 503 553 449 q 516 618 553 586 q 389 650 479 650 z "},"ẽ":{"ha":750,"x_min":72,"x_max":678,"o":"m 390 -8 q 201 26 269 -8 q 102 143 132 61 q 72 372 72 225 q 102 604 72 522 q 200 719 132 686 q 389 753 268 753 q 557 731 494 753 q 649 654 619 708 q 678 504 678 600 q 621 362 678 406 q 457 318 564 318 l 211 318 q 230 187 213 233 q 293 119 247 140 q 425 99 339 99 l 657 99 l 657 15 q 522 -2 581 4 q 390 -8 464 -8 m 444 406 q 527 427 501 406 q 553 503 553 449 q 516 618 553 586 q 389 650 479 650 q 280 629 318 650 q 226 556 242 608 q 210 406 210 504 l 444 406 m 140 890 q 182 1010 143 972 q 276 1049 221 1049 q 336 1038 308 1049 q 399 1006 364 1026 q 449 979 429 988 q 489 971 468 971 q 544 992 524 971 q 565 1054 564 1014 l 636 1054 q 599 934 635 976 q 499 892 563 892 q 441 903 468 892 q 379 935 414 914 q 328 962 350 953 q 286 971 307 971 q 233 950 254 971 q 211 890 213 929 l 140 890 z "},"ə":{"ha":750,"x_min":72,"x_max":678,"o":"m 360 753 q 549 718 481 753 q 648 601 618 683 q 678 372 678 519 q 648 140 678 222 q 550 25 618 58 q 361 -8 482 -8 q 193 14 256 -8 q 101 90 131 36 q 72 240 72 144 q 129 383 72 339 q 293 426 186 426 l 539 426 q 520 558 538 511 q 457 625 503 604 q 325 646 411 646 l 93 646 l 93 729 q 228 747 169 740 q 360 753 286 753 m 306 339 q 223 317 249 339 q 197 242 197 296 q 234 126 197 158 q 361 94 271 94 q 470 115 432 94 q 524 188 508 136 q 540 339 540 240 l 306 339 z "},"f":{"ha":521,"x_min":31,"x_max":511,"o":"m 142 629 l 31 629 l 31 719 l 142 743 l 142 817 q 192 1007 142 946 q 365 1068 243 1068 q 511 1053 435 1068 l 511 953 l 390 953 q 303 922 326 953 q 281 824 281 892 l 281 743 l 499 743 l 499 629 l 281 629 l 281 0 l 142 0 l 142 629 z "},"ḟ":{"ha":521,"x_min":31,"x_max":511,"o":"m 142 629 l 31 629 l 31 719 l 142 743 l 142 817 q 192 1007 142 946 q 365 1068 243 1068 q 511 1053 435 1068 l 511 953 l 390 953 q 303 922 326 953 q 281 824 281 892 l 281 743 l 499 743 l 499 629 l 281 629 l 281 0 l 142 0 l 142 629 m 332 1207 q 315 1214 321 1207 q 308 1231 308 1221 l 308 1347 q 332 1372 308 1372 l 397 1372 q 421 1347 421 1372 l 421 1231 q 415 1213 421 1219 q 397 1207 408 1207 l 332 1207 z "},"g":{"ha":803,"x_min":38,"x_max":774,"o":"m 774 665 l 622 650 q 683 585 660 622 q 706 471 706 547 q 642 308 706 372 q 440 244 579 244 l 318 244 q 204 175 204 244 q 226 132 204 146 q 278 118 247 118 l 513 118 q 706 67 642 118 q 771 -92 771 17 l 771 -118 q 701 -283 771 -225 q 494 -342 631 -342 l 282 -342 q 105 -294 172 -342 q 38 -160 38 -247 l 38 -129 q 70 -28 38 -71 q 157 39 103 15 q 103 87 122 57 q 85 153 85 117 q 117 242 85 207 q 210 289 150 276 q 110 376 140 319 q 81 504 81 433 q 374 744 81 744 l 774 744 l 774 665 m 425 351 q 544 388 511 351 q 578 488 578 425 q 435 638 578 638 l 357 638 q 245 604 283 638 q 207 496 207 571 q 343 351 207 351 l 425 351 m 313 11 q 210 -18 251 11 q 169 -104 169 -47 l 169 -131 q 318 -242 169 -242 l 481 -242 q 598 -212 556 -242 q 640 -125 640 -183 l 640 -99 q 606 -17 640 -46 q 492 11 571 11 l 313 11 z "},"ğ":{"ha":803,"x_min":38,"x_max":774,"o":"m 774 665 l 622 650 q 683 585 660 622 q 706 471 706 547 q 642 308 706 372 q 440 244 579 244 l 318 244 q 204 175 204 244 q 226 132 204 146 q 278 118 247 118 l 513 118 q 706 67 642 118 q 771 -92 771 17 l 771 -118 q 701 -283 771 -225 q 494 -342 631 -342 l 282 -342 q 105 -294 172 -342 q 38 -160 38 -247 l 38 -129 q 70 -28 38 -71 q 157 39 103 15 q 103 87 122 57 q 85 153 85 117 q 117 242 85 207 q 210 289 150 276 q 110 376 140 319 q 81 504 81 433 q 374 744 81 744 l 774 744 l 774 665 m 425 351 q 544 388 511 351 q 578 488 578 425 q 435 638 578 638 l 357 638 q 245 604 283 638 q 207 496 207 571 q 343 351 207 351 l 425 351 m 313 11 q 210 -18 251 11 q 169 -104 169 -47 l 169 -131 q 318 -242 169 -242 l 481 -242 q 598 -212 556 -242 q 640 -125 640 -183 l 640 -99 q 606 -17 640 -46 q 492 11 571 11 l 313 11 m 392 871 q 257 919 307 871 q 207 1072 207 968 l 272 1072 q 306 969 272 1003 q 389 936 339 936 q 511 1072 511 936 l 579 1072 q 528 919 579 967 q 392 871 478 871 z "},"ǧ":{"ha":803,"x_min":38,"x_max":774,"o":"m 774 665 l 622 650 q 683 585 660 622 q 706 471 706 547 q 642 308 706 372 q 440 244 579 244 l 318 244 q 204 175 204 244 q 226 132 204 146 q 278 118 247 118 l 513 118 q 706 67 642 118 q 771 -92 771 17 l 771 -118 q 701 -283 771 -225 q 494 -342 631 -342 l 282 -342 q 105 -294 172 -342 q 38 -160 38 -247 l 38 -129 q 70 -28 38 -71 q 157 39 103 15 q 103 87 122 57 q 85 153 85 117 q 117 242 85 207 q 210 289 150 276 q 110 376 140 319 q 81 504 81 433 q 374 744 81 744 l 774 744 l 774 665 m 425 351 q 544 388 511 351 q 578 488 578 425 q 435 638 578 638 l 357 638 q 245 604 283 638 q 207 496 207 571 q 343 351 207 351 l 425 351 m 313 11 q 210 -18 251 11 q 169 -104 169 -47 l 169 -131 q 318 -242 169 -242 l 481 -242 q 598 -212 556 -242 q 640 -125 640 -183 l 640 -99 q 606 -17 640 -46 q 492 11 571 11 l 313 11 m 201 1067 l 285 1067 l 401 942 l 526 1067 l 611 1067 l 447 876 l 350 876 l 201 1067 z "},"ĝ":{"ha":803,"x_min":38,"x_max":774,"o":"m 774 665 l 622 650 q 683 585 660 622 q 706 471 706 547 q 642 308 706 372 q 440 244 579 244 l 318 244 q 204 175 204 244 q 226 132 204 146 q 278 118 247 118 l 513 118 q 706 67 642 118 q 771 -92 771 17 l 771 -118 q 701 -283 771 -225 q 494 -342 631 -342 l 282 -342 q 105 -294 172 -342 q 38 -160 38 -247 l 38 -129 q 70 -28 38 -71 q 157 39 103 15 q 103 87 122 57 q 85 153 85 117 q 117 242 85 207 q 210 289 150 276 q 110 376 140 319 q 81 504 81 433 q 374 744 81 744 l 774 744 l 774 665 m 425 351 q 544 388 511 351 q 578 488 578 425 q 435 638 578 638 l 357 638 q 245 604 283 638 q 207 496 207 571 q 343 351 207 351 l 425 351 m 313 11 q 210 -18 251 11 q 169 -104 169 -47 l 169 -131 q 318 -242 169 -242 l 481 -242 q 598 -212 556 -242 q 640 -125 640 -183 l 640 -99 q 606 -17 640 -46 q 492 11 571 11 l 313 11 m 357 1067 l 454 1067 l 603 876 l 519 876 l 403 1003 l 276 876 l 193 876 l 357 1067 z "},"ģ":{"ha":803,"x_min":38,"x_max":774,"o":"m 774 665 l 622 650 q 683 585 660 622 q 706 471 706 547 q 642 308 706 372 q 440 244 579 244 l 318 244 q 204 175 204 244 q 226 132 204 146 q 278 118 247 118 l 513 118 q 706 67 642 118 q 771 -92 771 17 l 771 -118 q 701 -283 771 -225 q 494 -342 631 -342 l 282 -342 q 105 -294 172 -342 q 38 -160 38 -247 l 38 -129 q 70 -28 38 -71 q 157 39 103 15 q 103 87 122 57 q 85 153 85 117 q 117 242 85 207 q 210 289 150 276 q 110 376 140 319 q 81 504 81 433 q 374 744 81 744 l 774 744 l 774 665 m 425 351 q 544 388 511 351 q 578 488 578 425 q 435 638 578 638 l 357 638 q 245 604 283 638 q 207 496 207 571 q 343 351 207 351 l 425 351 m 313 11 q 210 -18 251 11 q 169 -104 169 -47 l 169 -131 q 318 -242 169 -242 l 481 -242 q 598 -212 556 -242 q 640 -125 640 -183 l 640 -99 q 606 -17 640 -46 q 492 11 571 11 l 313 11 m 321 856 q 334 971 321 929 q 381 1032 347 1013 q 476 1051 415 1051 l 535 1051 l 535 994 l 494 986 q 442 969 460 979 q 415 933 424 960 q 407 856 407 907 l 321 856 z "},"ġ":{"ha":803,"x_min":38,"x_max":774,"o":"m 774 665 l 622 650 q 683 585 660 622 q 706 471 706 547 q 642 308 706 372 q 440 244 579 244 l 318 244 q 204 175 204 244 q 226 132 204 146 q 278 118 247 118 l 513 118 q 706 67 642 118 q 771 -92 771 17 l 771 -118 q 701 -283 771 -225 q 494 -342 631 -342 l 282 -342 q 105 -294 172 -342 q 38 -160 38 -247 l 38 -129 q 70 -28 38 -71 q 157 39 103 15 q 103 87 122 57 q 85 153 85 117 q 117 242 85 207 q 210 289 150 276 q 110 376 140 319 q 81 504 81 433 q 374 744 81 744 l 774 744 l 774 665 m 425 351 q 544 388 511 351 q 578 488 578 425 q 435 638 578 638 l 357 638 q 245 604 283 638 q 207 496 207 571 q 343 351 207 351 l 425 351 m 313 11 q 210 -18 251 11 q 169 -104 169 -47 l 169 -131 q 318 -242 169 -242 l 481 -242 q 598 -212 556 -242 q 640 -125 640 -183 l 640 -99 q 606 -17 640 -46 q 492 11 571 11 l 313 11 m 367 910 q 349 917 356 910 q 343 933 343 924 l 343 1050 q 367 1075 343 1075 l 432 1075 q 456 1050 456 1075 l 456 933 q 449 916 456 922 q 432 910 443 910 l 367 910 z "},"ḡ":{"ha":803,"x_min":38,"x_max":774,"o":"m 774 665 l 622 650 q 683 585 660 622 q 706 471 706 547 q 642 308 706 372 q 440 244 579 244 l 318 244 q 204 175 204 244 q 226 132 204 146 q 278 118 247 118 l 513 118 q 706 67 642 118 q 771 -92 771 17 l 771 -118 q 701 -283 771 -225 q 494 -342 631 -342 l 282 -342 q 105 -294 172 -342 q 38 -160 38 -247 l 38 -129 q 70 -28 38 -71 q 157 39 103 15 q 103 87 122 57 q 85 153 85 117 q 117 242 85 207 q 210 289 150 276 q 110 376 140 319 q 81 504 81 433 q 374 744 81 744 l 774 744 l 774 665 m 425 351 q 544 388 511 351 q 578 488 578 425 q 435 638 578 638 l 357 638 q 245 604 283 638 q 207 496 207 571 q 343 351 207 351 l 425 351 m 313 11 q 210 -18 251 11 q 169 -104 169 -47 l 169 -131 q 318 -242 169 -242 l 481 -242 q 598 -212 556 -242 q 640 -125 640 -183 l 640 -99 q 606 -17 640 -46 q 492 11 571 11 l 313 11 m 210 1006 l 585 1006 l 585 922 l 210 922 l 210 1006 z "},"h":{"ha":819,"x_min":97,"x_max":726,"o":"m 97 1060 l 236 1060 l 236 663 q 358 728 289 701 q 497 756 428 756 q 669 685 613 756 q 726 501 726 615 l 726 0 l 588 0 l 588 485 q 549 590 588 550 q 447 629 511 629 q 341 613 389 629 q 236 563 293 596 l 236 0 l 97 0 l 97 1060 z "},"ħ":{"ha":819,"x_min":1,"x_max":726,"o":"m 497 756 q 669 685 613 756 q 726 501 726 615 l 726 0 l 588 0 l 588 485 q 549 590 588 550 q 447 629 511 629 q 341 613 389 629 q 236 563 293 596 l 236 0 l 97 0 l 97 868 l 1 868 l 1 926 l 97 926 l 97 1060 l 236 1060 l 236 926 l 417 926 l 417 868 l 236 868 l 236 663 q 358 728 289 701 q 497 756 428 756 z "},"ḫ":{"ha":819,"x_min":97,"x_max":726,"o":"m 97 1060 l 236 1060 l 236 663 q 358 728 289 701 q 497 756 428 756 q 669 685 613 756 q 726 501 726 615 l 726 0 l 588 0 l 588 485 q 549 590 588 550 q 447 629 511 629 q 341 613 389 629 q 236 563 293 596 l 236 0 l 97 0 l 97 1060 m 408 -310 q 274 -261 324 -310 q 224 -108 224 -212 l 289 -108 q 322 -212 289 -179 q 406 -244 354 -244 q 528 -108 528 -244 l 596 -108 q 545 -262 596 -214 q 408 -310 494 -310 z "},"ĥ":{"ha":819,"x_min":13,"x_max":726,"o":"m 97 1060 l 236 1060 l 236 663 q 358 728 289 701 q 497 756 428 756 q 669 685 613 756 q 726 501 726 615 l 726 0 l 588 0 l 588 485 q 549 590 588 550 q 447 629 511 629 q 341 613 389 629 q 236 563 293 596 l 236 0 l 97 0 l 97 1060 m 176 1322 l 274 1322 l 422 1132 l 339 1132 l 222 1258 l 96 1132 l 13 1132 l 176 1322 z "},"ḥ":{"ha":819,"x_min":97,"x_max":726,"o":"m 97 1060 l 236 1060 l 236 663 q 358 728 289 701 q 497 756 428 756 q 669 685 613 756 q 726 501 726 615 l 726 0 l 588 0 l 588 485 q 549 590 588 550 q 447 629 511 629 q 341 613 389 629 q 236 563 293 596 l 236 0 l 97 0 l 97 1060 m 374 -299 q 356 -292 363 -299 q 350 -275 350 -286 l 350 -158 q 374 -133 350 -133 l 439 -133 q 463 -158 463 -133 l 463 -275 q 456 -292 463 -286 q 439 -299 450 -299 l 374 -299 z "},"i":{"ha":333,"x_min":92,"x_max":242,"o":"m 117 868 q 99 874 106 868 q 92 892 92 881 l 92 1008 q 117 1033 92 1033 l 219 1033 q 236 1026 231 1033 q 242 1008 242 1019 l 242 892 q 219 868 242 868 l 117 868 m 97 743 l 236 743 l 236 0 l 97 0 l 97 743 z "},"ı":{"ha":331,"x_min":97,"x_max":236,"o":"m 97 743 l 236 743 l 236 0 l 97 0 l 97 743 z "},"í":{"ha":331,"x_min":97,"x_max":368,"o":"m 97 743 l 236 743 l 236 0 l 97 0 l 97 743 m 251 1068 l 368 1068 l 199 876 l 117 876 l 251 1068 z "},"ĭ":{"ha":331,"x_min":-28,"x_max":344,"o":"m 97 743 l 236 743 l 236 0 l 97 0 l 97 743 m 157 871 q 22 919 72 871 q -28 1072 -28 968 l 38 1072 q 71 969 38 1003 q 154 936 104 936 q 276 1072 276 936 l 344 1072 q 294 919 344 967 q 157 871 243 871 z "},"î":{"ha":331,"x_min":-42,"x_max":368,"o":"m 97 743 l 236 743 l 236 0 l 97 0 l 97 743 m 122 1067 l 219 1067 l 368 876 l 285 876 l 168 1003 l 42 876 l -42 876 l 122 1067 z "},"ȉ":{"ha":331,"x_min":-125,"x_max":343,"o":"m 97 743 l 236 743 l 236 0 l 97 0 l 97 743 m -125 1068 l -8 1068 l 126 876 l 44 876 l -125 1068 m 92 1068 l 208 1068 l 343 876 l 261 876 l 92 1068 z "},"ï":{"ha":331,"x_min":-29,"x_max":356,"o":"m 97 743 l 236 743 l 236 0 l 97 0 l 97 743 m -4 900 q -22 907 -15 900 q -29 924 -29 914 l -29 1040 q -4 1065 -29 1065 l 60 1065 q 83 1040 83 1065 l 83 924 q 60 900 83 900 l -4 900 m 267 900 q 249 907 256 900 q 243 924 243 914 l 243 1040 q 267 1065 243 1065 l 332 1065 q 356 1040 356 1065 l 356 924 q 349 906 356 913 q 332 900 343 900 l 267 900 z "},"ḯ":{"ha":331,"x_min":-29,"x_max":363,"o":"m 97 743 l 236 743 l 236 0 l 97 0 l 97 743 m -4 900 q -22 907 -15 900 q -29 924 -29 914 l -29 1040 q -4 1065 -29 1065 l 60 1065 q 83 1040 83 1065 l 83 924 q 60 900 83 900 l -4 900 m 267 900 q 249 907 256 900 q 243 924 243 914 l 243 1040 q 267 1065 243 1065 l 332 1065 q 356 1040 356 1065 l 356 924 q 349 906 356 913 q 332 900 343 900 l 267 900 m 246 1308 l 363 1308 l 193 1117 l 111 1117 l 246 1308 z "},"ị":{"ha":333,"x_min":92,"x_max":242,"o":"m 117 868 q 99 874 106 868 q 92 892 92 881 l 92 1008 q 117 1033 92 1033 l 219 1033 q 236 1026 231 1033 q 242 1008 242 1019 l 242 892 q 219 868 242 868 l 117 868 m 97 743 l 236 743 l 236 0 l 97 0 l 97 743 m 129 -299 q 112 -292 118 -299 q 106 -275 106 -286 l 106 -158 q 129 -133 106 -133 l 194 -133 q 218 -158 218 -133 l 218 -275 q 212 -292 218 -286 q 194 -299 206 -299 l 129 -299 z "},"ì":{"ha":331,"x_min":-15,"x_max":236,"o":"m 97 743 l 236 743 l 236 0 l 97 0 l 97 743 m -15 1068 l 100 1068 l 236 876 l 154 876 l -15 1068 z "},"ỉ":{"ha":331,"x_min":97,"x_max":283,"o":"m 97 743 l 236 743 l 236 0 l 97 0 l 97 743 m 138 897 q 192 928 175 908 q 208 971 208 947 q 194 1011 208 997 q 147 1025 181 1025 q 100 1017 122 1025 l 100 1074 q 165 1083 128 1083 q 253 1055 224 1083 q 283 975 283 1026 q 138 833 283 875 l 138 897 z "},"ȋ":{"ha":331,"x_min":-22,"x_max":350,"o":"m 97 743 l 236 743 l 236 0 l 97 0 l 97 743 m 165 1074 q 300 1025 250 1074 q 350 872 350 976 l 285 872 q 251 976 285 943 q 168 1008 218 1008 q 46 872 46 1008 l -22 872 q 28 1026 -22 978 q 165 1074 79 1074 z "},"ī":{"ha":331,"x_min":-25,"x_max":350,"o":"m 97 743 l 236 743 l 236 0 l 97 0 l 97 743 m -25 1006 l 350 1006 l 350 922 l -25 922 l -25 1006 z "},"į":{"ha":333,"x_min":83,"x_max":269,"o":"m 117 868 q 99 874 106 868 q 92 892 92 881 l 92 1008 q 117 1033 92 1033 l 219 1033 q 236 1026 231 1033 q 242 1008 242 1019 l 242 892 q 219 868 242 868 l 117 868 m 97 743 l 236 743 l 236 0 l 97 0 l 97 743 m 231 -261 q 122 -226 160 -261 q 83 -137 83 -190 q 108 -59 83 -94 q 183 0 133 -24 l 236 0 q 154 -107 154 -46 q 182 -168 154 -146 q 258 -190 210 -190 l 269 -190 l 269 -258 q 231 -261 247 -261 z "},"ĩ":{"ha":331,"x_min":-68,"x_max":428,"o":"m 97 743 l 236 743 l 236 0 l 97 0 l 97 743 m -68 890 q -26 1010 -65 972 q 68 1049 13 1049 q 128 1038 100 1049 q 190 1006 156 1026 q 240 979 221 988 q 281 971 260 971 q 335 992 315 971 q 357 1054 356 1014 l 428 1054 q 390 934 426 976 q 290 892 354 892 q 233 903 260 892 q 171 935 206 914 q 120 962 142 953 q 78 971 99 971 q 25 950 46 971 q 3 890 4 929 l -68 890 z "},"j":{"ha":333,"x_min":92,"x_max":242,"o":"m 115 868 q 99 875 106 868 q 92 892 92 882 l 92 1008 q 115 1033 92 1033 l 219 1033 q 236 1026 231 1033 q 242 1008 242 1019 l 242 892 q 219 868 242 868 l 115 868 m 97 743 l 236 743 l 236 18 q 226 -170 236 -76 q 201 -329 217 -264 l 97 -329 l 97 743 z "},"ȷ":{"ha":333,"x_min":97,"x_max":236,"o":"m 97 743 l 236 743 l 236 18 q 226 -170 236 -76 q 201 -329 217 -264 l 97 -329 l 97 743 z "},"ĵ":{"ha":333,"x_min":-42,"x_max":368,"o":"m 97 743 l 236 743 l 236 18 q 226 -170 236 -76 q 201 -329 217 -264 l 97 -329 l 97 743 m 122 1067 l 219 1067 l 368 876 l 285 876 l 168 1003 l 42 876 l -42 876 l 122 1067 z "},"k":{"ha":724,"x_min":97,"x_max":707,"o":"m 97 1060 l 236 1060 l 236 458 l 338 458 l 544 743 l 689 743 l 440 396 l 707 0 l 563 0 l 333 333 l 236 333 l 236 0 l 97 0 l 97 1060 z "},"ķ":{"ha":724,"x_min":97,"x_max":707,"o":"m 97 1060 l 236 1060 l 236 458 l 338 458 l 544 743 l 689 743 l 440 396 l 707 0 l 563 0 l 333 333 l 236 333 l 236 0 l 97 0 l 97 1060 m 249 -229 l 289 -222 q 342 -205 324 -215 q 368 -169 360 -194 q 376 -92 376 -143 l 463 -92 q 449 -206 463 -165 q 402 -267 436 -247 q 307 -286 368 -286 l 249 -286 l 249 -229 z "},"ĸ":{"ha":724,"x_min":97,"x_max":707,"o":"m 97 750 l 236 750 l 236 450 l 333 450 l 540 743 l 689 743 l 440 386 l 707 0 l 561 0 l 333 325 l 236 325 l 236 0 l 97 0 l 97 750 z "},"l":{"ha":417,"x_min":97,"x_max":401,"o":"m 304 -1 q 148 54 199 -1 q 97 239 97 110 l 97 1060 l 236 1060 l 236 257 q 259 144 236 175 q 332 107 282 114 l 401 99 l 401 -1 l 304 -1 z "},"ĺ":{"ha":417,"x_min":97,"x_max":401,"o":"m 304 -1 q 148 54 199 -1 q 97 239 97 110 l 97 1060 l 236 1060 l 236 257 q 259 144 236 175 q 332 107 282 114 l 401 99 l 401 -1 l 304 -1 m 251 1385 l 368 1385 l 199 1193 l 117 1193 l 251 1385 z "},"ľ":{"ha":417,"x_min":97,"x_max":450,"o":"m 304 -1 q 148 54 199 -1 q 97 239 97 110 l 97 1060 l 236 1060 l 236 257 q 259 144 236 175 q 332 107 282 114 l 401 99 l 401 -1 l 304 -1 m 322 1003 l 322 1088 l 450 1088 l 450 1003 l 440 808 l 332 808 l 322 1003 z "},"ļ":{"ha":417,"x_min":97,"x_max":401,"o":"m 304 -1 q 148 54 199 -1 q 97 239 97 110 l 97 1060 l 236 1060 l 236 257 q 259 144 236 175 q 332 107 282 114 l 401 99 l 401 -1 l 304 -1 m 122 -229 l 163 -222 q 215 -205 197 -215 q 242 -169 233 -194 q 250 -92 250 -143 l 336 -92 q 323 -206 336 -165 q 276 -267 310 -247 q 181 -286 242 -286 l 122 -286 l 122 -229 z "},"ŀ":{"ha":469,"x_min":97,"x_max":468,"o":"m 304 -1 q 148 54 199 -1 q 97 239 97 110 l 97 1060 l 236 1060 l 236 257 q 259 144 236 175 q 332 107 282 114 l 401 99 l 401 -1 l 304 -1 m 364 456 q 347 463 354 456 q 340 479 340 469 l 340 563 q 364 588 340 588 l 443 588 q 468 563 468 588 l 468 479 q 443 456 468 456 l 364 456 z "},"ḷ":{"ha":417,"x_min":97,"x_max":401,"o":"m 304 -1 q 148 54 199 -1 q 97 239 97 110 l 97 1060 l 236 1060 l 236 257 q 259 144 236 175 q 332 107 282 114 l 401 99 l 401 -1 l 304 -1 m 201 -299 q 184 -292 190 -299 q 178 -275 178 -286 l 178 -158 q 201 -133 178 -133 l 267 -133 q 290 -158 290 -133 l 290 -275 q 284 -292 290 -286 q 267 -299 278 -299 l 201 -299 z "},"ḻ":{"ha":417,"x_min":49,"x_max":424,"o":"m 304 -1 q 148 54 199 -1 q 97 239 97 110 l 97 1060 l 236 1060 l 236 257 q 259 144 236 175 q 332 107 282 114 l 401 99 l 401 -1 l 304 -1 m 49 -189 l 424 -189 l 424 -272 l 49 -272 l 49 -189 z "},"ł":{"ha":417,"x_min":1,"x_max":401,"o":"m 401 99 l 401 -1 l 304 -1 q 148 54 199 -1 q 97 239 97 110 l 97 524 l 1 488 l 1 567 l 97 603 l 97 1060 l 236 1060 l 236 647 l 372 697 l 372 618 l 236 568 l 236 257 q 259 144 236 175 q 332 107 282 114 l 401 99 z "},"m":{"ha":1310,"x_min":97,"x_max":1217,"o":"m 97 743 l 208 743 l 236 663 q 363 731 299 706 q 506 756 428 756 q 621 726 572 756 q 697 647 669 697 q 833 723 753 690 q 983 756 913 756 q 1160 685 1103 756 q 1217 496 1217 615 l 1217 0 l 1078 0 l 1078 483 q 1040 590 1078 550 q 936 629 1001 629 q 826 609 883 629 q 715 556 768 589 q 726 482 726 518 l 726 0 l 588 0 l 588 483 q 550 590 588 550 q 447 629 513 629 q 341 613 389 629 q 236 563 293 596 l 236 0 l 97 0 l 97 743 z "},"ṁ":{"ha":1310,"x_min":97,"x_max":1217,"o":"m 97 743 l 208 743 l 236 663 q 363 731 299 706 q 506 756 428 756 q 621 726 572 756 q 697 647 669 697 q 833 723 753 690 q 983 756 913 756 q 1160 685 1103 756 q 1217 496 1217 615 l 1217 0 l 1078 0 l 1078 483 q 1040 590 1078 550 q 936 629 1001 629 q 826 609 883 629 q 715 556 768 589 q 726 482 726 518 l 726 0 l 588 0 l 588 483 q 550 590 588 550 q 447 629 513 629 q 341 613 389 629 q 236 563 293 596 l 236 0 l 97 0 l 97 743 m 632 910 q 615 917 621 910 q 608 933 608 924 l 608 1050 q 632 1075 608 1075 l 697 1075 q 721 1050 721 1075 l 721 933 q 715 916 721 922 q 697 910 708 910 l 632 910 z "},"ṃ":{"ha":1310,"x_min":97,"x_max":1217,"o":"m 97 743 l 208 743 l 236 663 q 363 731 299 706 q 506 756 428 756 q 621 726 572 756 q 697 647 669 697 q 833 723 753 690 q 983 756 913 756 q 1160 685 1103 756 q 1217 496 1217 615 l 1217 0 l 1078 0 l 1078 483 q 1040 590 1078 550 q 936 629 1001 629 q 826 609 883 629 q 715 556 768 589 q 726 482 726 518 l 726 0 l 588 0 l 588 483 q 550 590 588 550 q 447 629 513 629 q 341 613 389 629 q 236 563 293 596 l 236 0 l 97 0 l 97 743 m 617 -299 q 599 -292 606 -299 q 593 -275 593 -286 l 593 -158 q 617 -133 593 -133 l 682 -133 q 706 -158 706 -133 l 706 -275 q 699 -292 706 -286 q 682 -299 693 -299 l 617 -299 z "},"n":{"ha":819,"x_min":97,"x_max":726,"o":"m 97 743 l 208 743 l 236 663 q 359 729 290 703 q 497 756 428 756 q 671 684 615 756 q 726 500 726 613 l 726 0 l 588 0 l 588 483 q 550 590 588 550 q 447 629 513 629 q 341 613 389 629 q 236 563 293 596 l 236 0 l 97 0 l 97 743 z "},"ń":{"ha":819,"x_min":97,"x_max":726,"o":"m 97 743 l 208 743 l 236 663 q 359 729 290 703 q 497 756 428 756 q 671 684 615 756 q 726 500 726 613 l 726 0 l 588 0 l 588 483 q 550 590 588 550 q 447 629 513 629 q 341 613 389 629 q 236 563 293 596 l 236 0 l 97 0 l 97 743 m 494 1068 l 611 1068 l 442 876 l 360 876 l 494 1068 z "},"ň":{"ha":819,"x_min":97,"x_max":726,"o":"m 97 743 l 208 743 l 236 663 q 359 729 290 703 q 497 756 428 756 q 671 684 615 756 q 726 500 726 613 l 726 0 l 588 0 l 588 483 q 550 590 588 550 q 447 629 513 629 q 341 613 389 629 q 236 563 293 596 l 236 0 l 97 0 l 97 743 m 210 1067 l 293 1067 l 410 942 l 535 1067 l 619 1067 l 456 876 l 358 876 l 210 1067 z "},"ņ":{"ha":819,"x_min":97,"x_max":726,"o":"m 97 743 l 208 743 l 236 663 q 359 729 290 703 q 497 756 428 756 q 671 684 615 756 q 726 500 726 613 l 726 0 l 588 0 l 588 483 q 550 590 588 550 q 447 629 513 629 q 341 613 389 629 q 236 563 293 596 l 236 0 l 97 0 l 97 743 m 293 -229 l 333 -222 q 386 -205 368 -215 q 413 -169 404 -194 q 421 -92 421 -143 l 507 -92 q 494 -206 507 -165 q 447 -267 481 -247 q 351 -286 413 -286 l 293 -286 l 293 -229 z "},"ṅ":{"ha":819,"x_min":97,"x_max":726,"o":"m 97 743 l 208 743 l 236 663 q 359 729 290 703 q 497 756 428 756 q 671 684 615 756 q 726 500 726 613 l 726 0 l 588 0 l 588 483 q 550 590 588 550 q 447 629 513 629 q 341 613 389 629 q 236 563 293 596 l 236 0 l 97 0 l 97 743 m 372 -299 q 355 -292 361 -299 q 349 -275 349 -286 l 349 -158 q 372 -133 349 -133 l 438 -133 q 461 -158 461 -133 l 461 -275 q 455 -292 461 -286 q 438 -299 449 -299 l 372 -299 z "},"ṇ":{"ha":819,"x_min":97,"x_max":726,"o":"m 97 743 l 208 743 l 236 663 q 359 729 290 703 q 497 756 428 756 q 671 684 615 756 q 726 500 726 613 l 726 0 l 588 0 l 588 483 q 550 590 588 550 q 447 629 513 629 q 341 613 389 629 q 236 563 293 596 l 236 0 l 97 0 l 97 743 m 372 -299 q 355 -292 361 -299 q 349 -275 349 -286 l 349 -158 q 372 -133 349 -133 l 438 -133 q 461 -158 461 -133 l 461 -275 q 455 -292 461 -286 q 438 -299 449 -299 l 372 -299 z "},"ŋ":{"ha":819,"x_min":97,"x_max":726,"o":"m 497 756 q 671 684 615 756 q 726 500 726 613 l 726 -12 q 680 -210 726 -132 q 554 -329 633 -287 l 442 -329 q 549 -203 510 -276 q 588 -17 588 -129 l 588 483 q 550 590 588 550 q 447 629 513 629 q 341 613 389 629 q 236 563 293 596 l 236 0 l 97 0 l 97 743 l 208 743 l 236 663 q 359 729 290 703 q 497 756 428 756 z "},"ṉ":{"ha":819,"x_min":97,"x_max":726,"o":"m 97 743 l 208 743 l 236 663 q 359 729 290 703 q 497 756 428 756 q 671 684 615 756 q 726 500 726 613 l 726 0 l 588 0 l 588 483 q 550 590 588 550 q 447 629 513 629 q 341 613 389 629 q 236 563 293 596 l 236 0 l 97 0 l 97 743 m 219 -189 l 594 -189 l 594 -272 l 219 -272 l 219 -189 z "},"ñ":{"ha":819,"x_min":97,"x_max":726,"o":"m 97 743 l 208 743 l 236 663 q 359 729 290 703 q 497 756 428 756 q 671 684 615 756 q 726 500 726 613 l 726 0 l 588 0 l 588 483 q 550 590 588 550 q 447 629 513 629 q 341 613 389 629 q 236 563 293 596 l 236 0 l 97 0 l 97 743 m 175 890 q 217 1010 178 972 q 311 1049 256 1049 q 371 1038 343 1049 q 433 1006 399 1026 q 483 979 464 988 q 524 971 503 971 q 578 992 558 971 q 600 1054 599 1014 l 671 1054 q 633 934 669 976 q 533 892 597 892 q 476 903 503 892 q 414 935 449 914 q 363 962 385 953 q 321 971 342 971 q 268 950 289 971 q 246 890 247 929 l 175 890 z "},"o":{"ha":800,"x_min":72,"x_max":728,"o":"m 400 -8 q 211 25 282 -8 q 106 141 140 58 q 72 372 72 224 q 107 608 72 525 q 212 722 142 690 q 400 753 282 753 q 588 721 518 753 q 693 606 658 689 q 728 372 728 524 q 694 140 728 222 q 590 24 660 57 q 400 -8 519 -8 m 400 106 q 509 124 469 106 q 569 201 549 143 q 589 374 589 258 q 569 547 589 489 q 509 622 549 604 q 400 640 469 640 q 291 622 329 640 q 233 547 253 604 q 213 374 213 489 q 233 199 213 257 q 291 124 253 142 q 400 106 329 106 z "},"ó":{"ha":800,"x_min":72,"x_max":728,"o":"m 400 -8 q 211 25 282 -8 q 106 141 140 58 q 72 372 72 224 q 107 608 72 525 q 212 722 142 690 q 400 753 282 753 q 588 721 518 753 q 693 606 658 689 q 728 372 728 524 q 694 140 728 222 q 590 24 660 57 q 400 -8 519 -8 m 400 106 q 509 124 469 106 q 569 201 549 143 q 589 374 589 258 q 569 547 589 489 q 509 622 549 604 q 400 640 469 640 q 291 622 329 640 q 233 547 253 604 q 213 374 213 489 q 233 199 213 257 q 291 124 253 142 q 400 106 329 106 m 485 1068 l 601 1068 l 432 876 l 350 876 l 485 1068 z "},"ŏ":{"ha":800,"x_min":72,"x_max":728,"o":"m 400 -8 q 211 25 282 -8 q 106 141 140 58 q 72 372 72 224 q 107 608 72 525 q 212 722 142 690 q 400 753 282 753 q 588 721 518 753 q 693 606 658 689 q 728 372 728 524 q 694 140 728 222 q 590 24 660 57 q 400 -8 519 -8 m 400 106 q 509 124 469 106 q 569 201 549 143 q 589 374 589 258 q 569 547 589 489 q 509 622 549 604 q 400 640 469 640 q 291 622 329 640 q 233 547 253 604 q 213 374 213 489 q 233 199 213 257 q 291 124 253 142 q 400 106 329 106 m 390 871 q 256 919 306 871 q 206 1072 206 968 l 271 1072 q 304 969 271 1003 q 388 936 338 936 q 510 1072 510 936 l 578 1072 q 527 919 578 967 q 390 871 476 871 z "},"ô":{"ha":800,"x_min":72,"x_max":728,"o":"m 400 -8 q 211 25 282 -8 q 106 141 140 58 q 72 372 72 224 q 107 608 72 525 q 212 722 142 690 q 400 753 282 753 q 588 721 518 753 q 693 606 658 689 q 728 372 728 524 q 694 140 728 222 q 590 24 660 57 q 400 -8 519 -8 m 400 106 q 509 124 469 106 q 569 201 549 143 q 589 374 589 258 q 569 547 589 489 q 509 622 549 604 q 400 640 469 640 q 291 622 329 640 q 233 547 253 604 q 213 374 213 489 q 233 199 213 257 q 291 124 253 142 q 400 106 329 106 m 356 1067 l 453 1067 l 601 876 l 518 876 l 401 1003 l 275 876 l 192 876 l 356 1067 z "},"ố":{"ha":800,"x_min":72,"x_max":740,"o":"m 400 -8 q 211 25 282 -8 q 106 141 140 58 q 72 372 72 224 q 107 608 72 525 q 212 722 142 690 q 400 753 282 753 q 588 721 518 753 q 693 606 658 689 q 728 372 728 524 q 694 140 728 222 q 590 24 660 57 q 400 -8 519 -8 m 400 106 q 509 124 469 106 q 569 201 549 143 q 589 374 589 258 q 569 547 589 489 q 509 622 549 604 q 400 640 469 640 q 291 622 329 640 q 233 547 253 604 q 213 374 213 489 q 233 199 213 257 q 291 124 253 142 q 400 106 329 106 m 740 1165 l 603 986 l 521 986 l 624 1165 l 740 1165 m 453 1018 l 601 876 l 518 876 l 401 953 l 275 876 l 192 876 l 356 1018 l 453 1018 z "},"ộ":{"ha":800,"x_min":72,"x_max":728,"o":"m 400 -8 q 211 25 282 -8 q 106 141 140 58 q 72 372 72 224 q 107 608 72 525 q 212 722 142 690 q 400 753 282 753 q 588 721 518 753 q 693 606 658 689 q 728 372 728 524 q 694 140 728 222 q 590 24 660 57 q 400 -8 519 -8 m 400 106 q 509 124 469 106 q 569 201 549 143 q 589 374 589 258 q 569 547 589 489 q 509 622 549 604 q 400 640 469 640 q 291 622 329 640 q 233 547 253 604 q 213 374 213 489 q 233 199 213 257 q 291 124 253 142 q 400 106 329 106 m 356 1067 l 453 1067 l 601 876 l 518 876 l 401 1003 l 275 876 l 192 876 l 356 1067 m 363 -299 q 345 -292 351 -299 q 339 -275 339 -286 l 339 -158 q 363 -133 339 -133 l 428 -133 q 451 -158 451 -133 l 451 -275 q 445 -292 451 -286 q 428 -299 439 -299 l 363 -299 z "},"ồ":{"ha":800,"x_min":60,"x_max":728,"o":"m 400 -8 q 211 25 282 -8 q 106 141 140 58 q 72 372 72 224 q 107 608 72 525 q 212 722 142 690 q 400 753 282 753 q 588 721 518 753 q 693 606 658 689 q 728 372 728 524 q 694 140 728 222 q 590 24 660 57 q 400 -8 519 -8 m 400 106 q 509 124 469 106 q 569 201 549 143 q 589 374 589 258 q 569 547 589 489 q 509 622 549 604 q 400 640 469 640 q 291 622 329 640 q 233 547 253 604 q 213 374 213 489 q 233 199 213 257 q 291 124 253 142 q 400 106 329 106 m 176 1165 l 281 986 l 199 986 l 60 1165 l 176 1165 m 453 1018 l 601 876 l 518 876 l 401 953 l 275 876 l 192 876 l 356 1018 l 453 1018 z "},"ổ":{"ha":800,"x_min":72,"x_max":728,"o":"m 400 -8 q 211 25 282 -8 q 106 141 140 58 q 72 372 72 224 q 107 608 72 525 q 212 722 142 690 q 400 753 282 753 q 588 721 518 753 q 693 606 658 689 q 728 372 728 524 q 694 140 728 222 q 590 24 660 57 q 400 -8 519 -8 m 400 106 q 509 124 469 106 q 569 201 549 143 q 589 374 589 258 q 569 547 589 489 q 509 622 549 604 q 400 640 469 640 q 291 622 329 640 q 233 547 253 604 q 213 374 213 489 q 233 199 213 257 q 291 124 253 142 q 400 106 329 106 m 553 1013 q 614 1075 614 1031 q 602 1110 614 1099 q 564 1121 590 1121 q 515 1113 549 1121 l 515 1163 q 582 1174 549 1174 q 658 1149 632 1174 q 683 1083 683 1125 q 553 950 683 986 l 553 1013 m 356 1018 l 453 1018 l 601 876 l 518 876 l 401 953 l 275 876 l 192 876 l 356 1018 z "},"ỗ":{"ha":800,"x_min":72,"x_max":728,"o":"m 400 -8 q 211 25 282 -8 q 106 141 140 58 q 72 372 72 224 q 107 608 72 525 q 212 722 142 690 q 400 753 282 753 q 588 721 518 753 q 693 606 658 689 q 728 372 728 524 q 694 140 728 222 q 590 24 660 57 q 400 -8 519 -8 m 400 106 q 509 124 469 106 q 569 201 549 143 q 589 374 589 258 q 569 547 589 489 q 509 622 549 604 q 400 640 469 640 q 291 622 329 640 q 233 547 253 604 q 213 374 213 489 q 233 199 213 257 q 291 124 253 142 q 400 106 329 106 m 290 1203 q 340 1196 317 1203 q 396 1174 363 1189 q 440 1156 422 1163 q 478 1150 458 1150 q 527 1165 508 1150 q 546 1207 546 1179 l 617 1207 q 584 1110 613 1140 q 500 1081 556 1081 q 393 1108 460 1081 q 342 1127 363 1121 q 304 1133 322 1133 q 263 1119 279 1133 q 244 1079 246 1104 l 174 1079 q 290 1203 181 1203 m 601 876 l 518 876 l 401 953 l 275 876 l 192 876 l 356 1018 l 453 1018 l 601 876 z "},"ȍ":{"ha":800,"x_min":72,"x_max":728,"o":"m 400 -8 q 211 25 282 -8 q 106 141 140 58 q 72 372 72 224 q 107 608 72 525 q 212 722 142 690 q 400 753 282 753 q 588 721 518 753 q 693 606 658 689 q 728 372 728 524 q 694 140 728 222 q 590 24 660 57 q 400 -8 519 -8 m 400 106 q 509 124 469 106 q 569 201 549 143 q 589 374 589 258 q 569 547 589 489 q 509 622 549 604 q 400 640 469 640 q 291 622 329 640 q 233 547 253 604 q 213 374 213 489 q 233 199 213 257 q 291 124 253 142 q 400 106 329 106 m 108 1068 l 225 1068 l 360 876 l 278 876 l 108 1068 m 325 1068 l 442 1068 l 576 876 l 494 876 l 325 1068 z "},"ö":{"ha":800,"x_min":72,"x_max":728,"o":"m 400 -8 q 211 25 282 -8 q 106 141 140 58 q 72 372 72 224 q 107 608 72 525 q 212 722 142 690 q 400 753 282 753 q 588 721 518 753 q 693 606 658 689 q 728 372 728 524 q 694 140 728 222 q 590 24 660 57 q 400 -8 519 -8 m 400 106 q 509 124 469 106 q 569 201 549 143 q 589 374 589 258 q 569 547 589 489 q 509 622 549 604 q 400 640 469 640 q 291 622 329 640 q 233 547 253 604 q 213 374 213 489 q 233 199 213 257 q 291 124 253 142 q 400 106 329 106 m 229 900 q 211 907 218 900 q 204 924 204 914 l 204 1040 q 229 1065 204 1065 l 293 1065 q 317 1040 317 1065 l 317 924 q 293 900 317 900 l 229 900 m 500 900 q 483 907 489 900 q 476 924 476 914 l 476 1040 q 500 1065 476 1065 l 565 1065 q 589 1040 589 1065 l 589 924 q 583 906 589 913 q 565 900 576 900 l 500 900 z "},"ȫ":{"ha":800,"x_min":72,"x_max":728,"o":"m 400 -8 q 211 25 282 -8 q 106 141 140 58 q 72 372 72 224 q 107 608 72 525 q 212 722 142 690 q 400 753 282 753 q 588 721 518 753 q 693 606 658 689 q 728 372 728 524 q 694 140 728 222 q 590 24 660 57 q 400 -8 519 -8 m 400 106 q 509 124 469 106 q 569 201 549 143 q 589 374 589 258 q 569 547 589 489 q 509 622 549 604 q 400 640 469 640 q 291 622 329 640 q 233 547 253 604 q 213 374 213 489 q 233 199 213 257 q 291 124 253 142 q 400 106 329 106 m 229 900 q 211 907 218 900 q 204 924 204 914 l 204 1040 q 229 1065 204 1065 l 293 1065 q 317 1040 317 1065 l 317 924 q 293 900 317 900 l 229 900 m 500 900 q 483 907 489 900 q 476 924 476 914 l 476 1040 q 500 1065 476 1065 l 565 1065 q 589 1040 589 1065 l 589 924 q 583 906 589 913 q 565 900 576 900 l 500 900 m 208 1246 l 583 1246 l 583 1163 l 208 1163 l 208 1246 z "},"ȱ":{"ha":800,"x_min":72,"x_max":728,"o":"m 400 -8 q 211 25 282 -8 q 106 141 140 58 q 72 372 72 224 q 107 608 72 525 q 212 722 142 690 q 400 753 282 753 q 588 721 518 753 q 693 606 658 689 q 728 372 728 524 q 694 140 728 222 q 590 24 660 57 q 400 -8 519 -8 m 400 106 q 509 124 469 106 q 569 201 549 143 q 589 374 589 258 q 569 547 589 489 q 509 622 549 604 q 400 640 469 640 q 291 622 329 640 q 233 547 253 604 q 213 374 213 489 q 233 199 213 257 q 291 124 253 142 q 400 106 329 106 m 365 910 q 348 917 354 910 q 342 933 342 924 l 342 1050 q 365 1075 342 1075 l 431 1075 q 454 1050 454 1075 l 454 933 q 448 916 454 922 q 431 910 442 910 l 365 910 m 208 1238 l 583 1238 l 583 1154 l 208 1154 l 208 1238 z "},"ọ":{"ha":800,"x_min":72,"x_max":728,"o":"m 400 -8 q 211 25 282 -8 q 106 141 140 58 q 72 372 72 224 q 107 608 72 525 q 212 722 142 690 q 400 753 282 753 q 588 721 518 753 q 693 606 658 689 q 728 372 728 524 q 694 140 728 222 q 590 24 660 57 q 400 -8 519 -8 m 400 106 q 509 124 469 106 q 569 201 549 143 q 589 374 589 258 q 569 547 589 489 q 509 622 549 604 q 400 640 469 640 q 291 622 329 640 q 233 547 253 604 q 213 374 213 489 q 233 199 213 257 q 291 124 253 142 q 400 106 329 106 m 363 -299 q 345 -292 351 -299 q 339 -275 339 -286 l 339 -158 q 363 -133 339 -133 l 428 -133 q 451 -158 451 -133 l 451 -275 q 445 -292 451 -286 q 428 -299 439 -299 l 363 -299 z "},"ò":{"ha":800,"x_min":72,"x_max":728,"o":"m 400 -8 q 211 25 282 -8 q 106 141 140 58 q 72 372 72 224 q 107 608 72 525 q 212 722 142 690 q 400 753 282 753 q 588 721 518 753 q 693 606 658 689 q 728 372 728 524 q 694 140 728 222 q 590 24 660 57 q 400 -8 519 -8 m 400 106 q 509 124 469 106 q 569 201 549 143 q 589 374 589 258 q 569 547 589 489 q 509 622 549 604 q 400 640 469 640 q 291 622 329 640 q 233 547 253 604 q 213 374 213 489 q 233 199 213 257 q 291 124 253 142 q 400 106 329 106 m 218 1068 l 333 1068 l 469 876 l 388 876 l 218 1068 z "},"ỏ":{"ha":800,"x_min":72,"x_max":728,"o":"m 400 -8 q 211 25 282 -8 q 106 141 140 58 q 72 372 72 224 q 107 608 72 525 q 212 722 142 690 q 400 753 282 753 q 588 721 518 753 q 693 606 658 689 q 728 372 728 524 q 694 140 728 222 q 590 24 660 57 q 400 -8 519 -8 m 400 106 q 509 124 469 106 q 569 201 549 143 q 589 374 589 258 q 569 547 589 489 q 509 622 549 604 q 400 640 469 640 q 291 622 329 640 q 233 547 253 604 q 213 374 213 489 q 233 199 213 257 q 291 124 253 142 q 400 106 329 106 m 371 897 q 425 928 408 908 q 442 971 442 947 q 428 1011 442 997 q 381 1025 414 1025 q 333 1017 356 1025 l 333 1074 q 399 1083 361 1083 q 487 1055 457 1083 q 517 975 517 1026 q 371 833 517 875 l 371 897 z "},"ơ":{"ha":800,"x_min":72,"x_max":772,"o":"m 772 899 q 740 749 772 804 q 651 675 707 693 q 709 557 690 631 q 728 372 728 483 q 694 140 728 222 q 590 24 660 57 q 400 -8 519 -8 q 211 25 282 -8 q 106 141 140 58 q 72 372 72 224 q 107 608 72 525 q 212 722 142 690 q 400 753 282 753 q 518 743 469 753 l 567 743 q 645 779 618 743 q 672 899 672 815 l 772 899 m 400 106 q 509 124 469 106 q 569 201 549 143 q 589 374 589 258 q 569 547 589 489 q 509 622 549 604 q 400 640 469 640 q 291 622 329 640 q 233 547 253 604 q 213 374 213 489 q 233 199 213 257 q 291 124 253 142 q 400 106 329 106 z "},"ớ":{"ha":800,"x_min":72,"x_max":772,"o":"m 772 899 q 740 749 772 804 q 651 675 707 693 q 709 557 690 631 q 728 372 728 483 q 694 140 728 222 q 590 24 660 57 q 400 -8 519 -8 q 211 25 282 -8 q 106 141 140 58 q 72 372 72 224 q 107 608 72 525 q 212 722 142 690 q 400 753 282 753 q 518 743 469 753 l 567 743 q 645 779 618 743 q 672 899 672 815 l 772 899 m 400 106 q 509 124 469 106 q 569 201 549 143 q 589 374 589 258 q 569 547 589 489 q 509 622 549 604 q 400 640 469 640 q 291 622 329 640 q 233 547 253 604 q 213 374 213 489 q 233 199 213 257 q 291 124 253 142 q 400 106 329 106 m 486 1068 l 603 1068 l 433 876 l 351 876 l 486 1068 z "},"ợ":{"ha":800,"x_min":72,"x_max":772,"o":"m 772 899 q 740 749 772 804 q 651 675 707 693 q 709 557 690 631 q 728 372 728 483 q 694 140 728 222 q 590 24 660 57 q 400 -8 519 -8 q 211 25 282 -8 q 106 141 140 58 q 72 372 72 224 q 107 608 72 525 q 212 722 142 690 q 400 753 282 753 q 518 743 469 753 l 567 743 q 645 779 618 743 q 672 899 672 815 l 772 899 m 400 106 q 509 124 469 106 q 569 201 549 143 q 589 374 589 258 q 569 547 589 489 q 509 622 549 604 q 400 640 469 640 q 291 622 329 640 q 233 547 253 604 q 213 374 213 489 q 233 199 213 257 q 291 124 253 142 q 400 106 329 106 m 375 -299 q 358 -292 364 -299 q 351 -275 351 -286 l 351 -158 q 375 -133 351 -133 l 440 -133 q 464 -158 464 -133 l 464 -275 q 458 -292 464 -286 q 440 -299 451 -299 l 375 -299 z "},"ờ":{"ha":800,"x_min":72,"x_max":772,"o":"m 772 899 q 740 749 772 804 q 651 675 707 693 q 709 557 690 631 q 728 372 728 483 q 694 140 728 222 q 590 24 660 57 q 400 -8 519 -8 q 211 25 282 -8 q 106 141 140 58 q 72 372 72 224 q 107 608 72 525 q 212 722 142 690 q 400 753 282 753 q 518 743 469 753 l 567 743 q 645 779 618 743 q 672 899 672 815 l 772 899 m 400 106 q 509 124 469 106 q 569 201 549 143 q 589 374 589 258 q 569 547 589 489 q 509 622 549 604 q 400 640 469 640 q 291 622 329 640 q 233 547 253 604 q 213 374 213 489 q 233 199 213 257 q 291 124 253 142 q 400 106 329 106 m 204 1068 l 319 1068 l 456 876 l 374 876 l 204 1068 z "},"ở":{"ha":800,"x_min":72,"x_max":772,"o":"m 772 899 q 740 749 772 804 q 651 675 707 693 q 709 557 690 631 q 728 372 728 483 q 694 140 728 222 q 590 24 660 57 q 400 -8 519 -8 q 211 25 282 -8 q 106 141 140 58 q 72 372 72 224 q 107 608 72 525 q 212 722 142 690 q 400 753 282 753 q 518 743 469 753 l 567 743 q 645 779 618 743 q 672 899 672 815 l 772 899 m 400 106 q 509 124 469 106 q 569 201 549 143 q 589 374 589 258 q 569 547 589 489 q 509 622 549 604 q 400 640 469 640 q 291 622 329 640 q 233 547 253 604 q 213 374 213 489 q 233 199 213 257 q 291 124 253 142 q 400 106 329 106 m 374 897 q 428 928 411 908 q 444 971 444 947 q 431 1011 444 997 q 383 1025 417 1025 q 336 1017 358 1025 l 336 1074 q 401 1083 364 1083 q 490 1055 460 1083 q 519 975 519 1026 q 374 833 519 875 l 374 897 z "},"ỡ":{"ha":800,"x_min":72,"x_max":772,"o":"m 772 899 q 740 749 772 804 q 651 675 707 693 q 709 557 690 631 q 728 372 728 483 q 694 140 728 222 q 590 24 660 57 q 400 -8 519 -8 q 211 25 282 -8 q 106 141 140 58 q 72 372 72 224 q 107 608 72 525 q 212 722 142 690 q 400 753 282 753 q 518 743 469 753 l 567 743 q 645 779 618 743 q 672 899 672 815 l 772 899 m 400 106 q 509 124 469 106 q 569 201 549 143 q 589 374 589 258 q 569 547 589 489 q 509 622 549 604 q 400 640 469 640 q 291 622 329 640 q 233 547 253 604 q 213 374 213 489 q 233 199 213 257 q 291 124 253 142 q 400 106 329 106 m 139 890 q 181 1010 142 972 q 275 1049 219 1049 q 335 1038 307 1049 q 397 1006 363 1026 q 447 979 428 988 q 488 971 467 971 q 542 992 522 971 q 564 1054 563 1014 l 635 1054 q 597 934 633 976 q 497 892 561 892 q 440 903 467 892 q 378 935 413 914 q 327 962 349 953 q 285 971 306 971 q 232 950 253 971 q 210 890 211 929 l 139 890 z "},"ő":{"ha":800,"x_min":72,"x_max":728,"o":"m 400 -8 q 211 25 282 -8 q 106 141 140 58 q 72 372 72 224 q 107 608 72 525 q 212 722 142 690 q 400 753 282 753 q 588 721 518 753 q 693 606 658 689 q 728 372 728 524 q 694 140 728 222 q 590 24 660 57 q 400 -8 519 -8 m 400 106 q 509 124 469 106 q 569 201 549 143 q 589 374 589 258 q 569 547 589 489 q 509 622 549 604 q 400 640 469 640 q 291 622 329 640 q 233 547 253 604 q 213 374 213 489 q 233 199 213 257 q 291 124 253 142 q 400 106 329 106 m 354 1068 l 465 1068 l 308 876 l 226 876 l 354 1068 m 569 1068 l 679 1068 l 522 876 l 440 876 l 569 1068 z "},"ȏ":{"ha":800,"x_min":72,"x_max":728,"o":"m 400 -8 q 211 25 282 -8 q 106 141 140 58 q 72 372 72 224 q 107 608 72 525 q 212 722 142 690 q 400 753 282 753 q 588 721 518 753 q 693 606 658 689 q 728 372 728 524 q 694 140 728 222 q 590 24 660 57 q 400 -8 519 -8 m 400 106 q 509 124 469 106 q 569 201 549 143 q 589 374 589 258 q 569 547 589 489 q 509 622 549 604 q 400 640 469 640 q 291 622 329 640 q 233 547 253 604 q 213 374 213 489 q 233 199 213 257 q 291 124 253 142 q 400 106 329 106 m 399 1074 q 533 1025 483 1074 q 583 872 583 976 l 518 872 q 485 976 518 943 q 401 1008 451 1008 q 279 872 279 1008 l 211 872 q 262 1026 211 978 q 399 1074 313 1074 z "},"ō":{"ha":800,"x_min":72,"x_max":728,"o":"m 400 -8 q 211 25 282 -8 q 106 141 140 58 q 72 372 72 224 q 107 608 72 525 q 212 722 142 690 q 400 753 282 753 q 588 721 518 753 q 693 606 658 689 q 728 372 728 524 q 694 140 728 222 q 590 24 660 57 q 400 -8 519 -8 m 400 106 q 509 124 469 106 q 569 201 549 143 q 589 374 589 258 q 569 547 589 489 q 509 622 549 604 q 400 640 469 640 q 291 622 329 640 q 233 547 253 604 q 213 374 213 489 q 233 199 213 257 q 291 124 253 142 q 400 106 329 106 m 208 1006 l 583 1006 l 583 922 l 208 922 l 208 1006 z "},"ṓ":{"ha":800,"x_min":72,"x_max":728,"o":"m 400 -8 q 211 25 282 -8 q 106 141 140 58 q 72 372 72 224 q 107 608 72 525 q 212 722 142 690 q 400 753 282 753 q 588 721 518 753 q 693 606 658 689 q 728 372 728 524 q 694 140 728 222 q 590 24 660 57 q 400 -8 519 -8 m 400 106 q 509 124 469 106 q 569 201 549 143 q 589 374 589 258 q 569 547 589 489 q 509 622 549 604 q 400 640 469 640 q 291 622 329 640 q 233 547 253 604 q 213 374 213 489 q 233 199 213 257 q 291 124 253 142 q 400 106 329 106 m 208 1006 l 583 1006 l 583 922 l 208 922 l 208 1006 m 478 1247 l 594 1247 l 425 1056 l 343 1056 l 478 1247 z "},"ṑ":{"ha":800,"x_min":72,"x_max":728,"o":"m 400 -8 q 211 25 282 -8 q 106 141 140 58 q 72 372 72 224 q 107 608 72 525 q 212 722 142 690 q 400 753 282 753 q 588 721 518 753 q 693 606 658 689 q 728 372 728 524 q 694 140 728 222 q 590 24 660 57 q 400 -8 519 -8 m 400 106 q 509 124 469 106 q 569 201 549 143 q 589 374 589 258 q 569 547 589 489 q 509 622 549 604 q 400 640 469 640 q 291 622 329 640 q 233 547 253 604 q 213 374 213 489 q 233 199 213 257 q 291 124 253 142 q 400 106 329 106 m 208 1006 l 583 1006 l 583 922 l 208 922 l 208 1006 m 206 1247 l 321 1247 l 457 1056 l 375 1056 l 206 1247 z "},"ǫ":{"ha":800,"x_min":72,"x_max":728,"o":"m 467 -6 q 394 -107 394 -50 q 422 -168 394 -146 q 499 -190 450 -190 l 510 -190 l 510 -258 q 471 -261 488 -261 q 362 -226 400 -261 q 324 -137 324 -190 q 408 -8 324 -56 l 400 -8 q 211 25 282 -8 q 106 141 140 58 q 72 372 72 224 q 107 608 72 525 q 212 722 142 690 q 400 753 282 753 q 588 721 518 753 q 693 606 658 689 q 728 372 728 524 q 701 158 728 238 q 617 40 674 78 q 467 -6 560 3 m 213 374 q 233 199 213 257 q 291 124 253 142 q 400 106 329 106 q 509 124 469 106 q 569 201 549 143 q 589 374 589 258 q 569 547 589 489 q 509 622 549 604 q 400 640 469 640 q 291 622 329 640 q 233 547 253 604 q 213 374 213 489 z "},"ø":{"ha":800,"x_min":61,"x_max":739,"o":"m 667 654 q 713 542 699 610 q 728 372 728 474 q 694 140 728 222 q 590 24 660 57 q 400 -8 519 -8 q 267 6 324 -8 q 172 50 211 19 l 132 0 l 61 0 l 135 90 q 88 203 103 133 q 72 372 72 272 q 107 608 72 525 q 212 722 142 690 q 400 753 282 753 q 535 740 479 753 q 629 694 590 726 l 668 743 l 739 743 l 667 654 m 213 374 q 231 207 213 263 l 544 592 q 488 630 522 619 q 400 640 454 640 q 291 622 329 640 q 233 547 253 604 q 213 374 213 489 m 589 374 q 571 538 589 482 l 257 153 q 312 115 278 125 q 400 106 346 106 q 509 124 469 106 q 569 201 549 143 q 589 374 589 258 z "},"ǿ":{"ha":800,"x_min":61,"x_max":739,"o":"m 667 654 q 713 542 699 610 q 728 372 728 474 q 694 140 728 222 q 590 24 660 57 q 400 -8 519 -8 q 267 6 324 -8 q 172 50 211 19 l 132 0 l 61 0 l 135 90 q 88 203 103 133 q 72 372 72 272 q 107 608 72 525 q 212 722 142 690 q 400 753 282 753 q 535 740 479 753 q 629 694 590 726 l 668 743 l 739 743 l 667 654 m 213 374 q 231 207 213 263 l 544 592 q 488 630 522 619 q 400 640 454 640 q 291 622 329 640 q 233 547 253 604 q 213 374 213 489 m 589 374 q 571 538 589 482 l 257 153 q 312 115 278 125 q 400 106 346 106 q 509 124 469 106 q 569 201 549 143 q 589 374 589 258 m 485 1068 l 601 1068 l 432 876 l 350 876 l 485 1068 z "},"õ":{"ha":800,"x_min":72,"x_max":728,"o":"m 400 -8 q 211 25 282 -8 q 106 141 140 58 q 72 372 72 224 q 107 608 72 525 q 212 722 142 690 q 400 753 282 753 q 588 721 518 753 q 693 606 658 689 q 728 372 728 524 q 694 140 728 222 q 590 24 660 57 q 400 -8 519 -8 m 400 106 q 509 124 469 106 q 569 201 549 143 q 589 374 589 258 q 569 547 589 489 q 509 622 549 604 q 400 640 469 640 q 291 622 329 640 q 233 547 253 604 q 213 374 213 489 q 233 199 213 257 q 291 124 253 142 q 400 106 329 106 m 165 890 q 207 1010 168 972 q 301 1049 246 1049 q 361 1038 333 1049 q 424 1006 389 1026 q 474 979 454 988 q 514 971 493 971 q 569 992 549 971 q 590 1054 589 1014 l 661 1054 q 624 934 660 976 q 524 892 588 892 q 466 903 493 892 q 404 935 439 914 q 353 962 375 953 q 311 971 332 971 q 258 950 279 971 q 236 890 238 929 l 165 890 z "},"ṍ":{"ha":800,"x_min":72,"x_max":728,"o":"m 400 -8 q 211 25 282 -8 q 106 141 140 58 q 72 372 72 224 q 107 608 72 525 q 212 722 142 690 q 400 753 282 753 q 588 721 518 753 q 693 606 658 689 q 728 372 728 524 q 694 140 728 222 q 590 24 660 57 q 400 -8 519 -8 m 400 106 q 509 124 469 106 q 569 201 549 143 q 589 374 589 258 q 569 547 589 489 q 509 622 549 604 q 400 640 469 640 q 291 622 329 640 q 233 547 253 604 q 213 374 213 489 q 233 199 213 257 q 291 124 253 142 q 400 106 329 106 m 165 890 q 207 1010 168 972 q 301 1049 246 1049 q 361 1038 333 1049 q 424 1006 389 1026 q 474 979 454 988 q 514 971 493 971 q 569 992 549 971 q 590 1054 589 1014 l 661 1054 q 624 934 660 976 q 524 892 588 892 q 466 903 493 892 q 404 935 439 914 q 353 962 375 953 q 311 971 332 971 q 258 950 279 971 q 236 890 238 929 l 165 890 m 478 1283 l 594 1283 l 425 1092 l 343 1092 l 478 1283 z "},"ṏ":{"ha":800,"x_min":72,"x_max":728,"o":"m 400 -8 q 211 25 282 -8 q 106 141 140 58 q 72 372 72 224 q 107 608 72 525 q 212 722 142 690 q 400 753 282 753 q 588 721 518 753 q 693 606 658 689 q 728 372 728 524 q 694 140 728 222 q 590 24 660 57 q 400 -8 519 -8 m 400 106 q 509 124 469 106 q 569 201 549 143 q 589 374 589 258 q 569 547 589 489 q 509 622 549 604 q 400 640 469 640 q 291 622 329 640 q 233 547 253 604 q 213 374 213 489 q 233 199 213 257 q 291 124 253 142 q 400 106 329 106 m 165 890 q 207 1010 168 972 q 301 1049 246 1049 q 361 1038 333 1049 q 424 1006 389 1026 q 474 979 454 988 q 514 971 493 971 q 569 992 549 971 q 590 1054 589 1014 l 661 1054 q 624 934 660 976 q 524 892 588 892 q 466 903 493 892 q 404 935 439 914 q 353 962 375 953 q 311 971 332 971 q 258 950 279 971 q 236 890 238 929 l 165 890 m 243 1121 q 225 1128 232 1121 q 218 1144 218 1135 l 218 1261 q 243 1286 218 1286 l 307 1286 q 331 1261 331 1286 l 331 1144 q 307 1121 331 1121 l 243 1121 m 514 1121 q 497 1128 503 1121 q 490 1144 490 1135 l 490 1261 q 514 1286 490 1286 l 579 1286 q 603 1261 603 1286 l 603 1144 q 597 1127 603 1133 q 579 1121 590 1121 l 514 1121 z "},"ȭ":{"ha":800,"x_min":72,"x_max":728,"o":"m 400 -8 q 211 25 282 -8 q 106 141 140 58 q 72 372 72 224 q 107 608 72 525 q 212 722 142 690 q 400 753 282 753 q 588 721 518 753 q 693 606 658 689 q 728 372 728 524 q 694 140 728 222 q 590 24 660 57 q 400 -8 519 -8 m 400 106 q 509 124 469 106 q 569 201 549 143 q 589 374 589 258 q 569 547 589 489 q 509 622 549 604 q 400 640 469 640 q 291 622 329 640 q 233 547 253 604 q 213 374 213 489 q 233 199 213 257 q 291 124 253 142 q 400 106 329 106 m 208 1246 l 583 1246 l 583 1163 l 208 1163 l 208 1246 m 149 890 q 190 1010 151 972 q 285 1049 229 1049 q 344 1038 317 1049 q 407 1006 372 1026 q 457 979 438 988 q 497 971 476 971 q 552 992 532 971 q 574 1054 572 1014 l 644 1054 q 607 934 643 976 q 507 892 571 892 q 449 903 476 892 q 388 935 422 914 q 337 962 358 953 q 294 971 315 971 q 242 950 263 971 q 219 890 221 929 l 149 890 z "},"œ":{"ha":1260,"x_min":72,"x_max":1188,"o":"m 721 318 q 770 149 722 200 q 929 99 818 99 l 1167 99 l 1167 15 q 890 -8 1014 -8 q 749 19 807 -8 q 657 104 690 46 q 560 17 622 42 q 397 -8 497 -8 q 210 25 281 -8 q 106 141 140 58 q 72 372 72 224 q 107 608 72 525 q 212 722 142 690 q 400 753 282 753 q 559 728 497 753 q 656 644 621 704 q 746 726 689 700 q 890 753 803 753 q 1060 731 997 753 q 1156 653 1124 710 q 1188 492 1188 597 q 1131 361 1188 404 q 982 318 1075 318 l 721 318 m 890 650 q 756 594 793 650 q 719 406 719 538 l 956 406 q 1035 427 1008 406 q 1063 504 1063 449 q 1023 620 1063 590 q 890 650 983 650 m 400 99 q 509 117 469 99 q 569 196 549 136 q 589 374 589 256 q 569 550 589 492 q 509 627 549 608 q 400 646 469 646 q 291 627 329 646 q 233 550 253 608 q 213 374 213 492 q 233 195 213 254 q 292 117 253 136 q 400 99 331 99 z "},"p":{"ha":806,"x_min":97,"x_max":733,"o":"m 97 743 l 211 743 l 236 668 q 344 727 282 701 q 468 753 407 753 q 669 649 604 753 q 733 372 733 544 q 670 86 733 182 q 468 -10 607 -10 q 349 8 411 -10 q 236 54 288 25 l 236 -329 l 97 -329 l 97 743 m 426 107 q 594 372 594 107 q 548 574 594 510 q 428 639 501 639 q 236 583 339 639 l 236 160 q 328 121 279 135 q 426 107 378 107 z "},"ṗ":{"ha":806,"x_min":97,"x_max":733,"o":"m 97 743 l 211 743 l 236 668 q 344 727 282 701 q 468 753 407 753 q 669 649 604 753 q 733 372 733 544 q 670 86 733 182 q 468 -10 607 -10 q 349 8 411 -10 q 236 54 288 25 l 236 -329 l 97 -329 l 97 743 m 426 107 q 594 372 594 107 q 548 574 594 510 q 428 639 501 639 q 236 583 339 639 l 236 160 q 328 121 279 135 q 426 107 378 107 m 351 910 q 334 917 340 910 q 328 933 328 924 l 328 1050 q 351 1075 328 1075 l 417 1075 q 440 1050 440 1075 l 440 933 q 434 916 440 922 q 417 910 428 910 l 351 910 z "},"þ":{"ha":806,"x_min":97,"x_max":733,"o":"m 97 1060 l 236 1060 l 236 668 q 344 727 282 701 q 468 753 407 753 q 667 647 600 753 q 733 372 733 542 q 468 -10 733 -10 q 349 8 411 -10 q 236 54 288 25 l 236 -329 l 97 -329 l 97 1060 m 426 107 q 594 367 594 107 q 548 573 594 507 q 428 639 501 639 q 236 583 339 639 l 236 160 q 328 121 279 135 q 426 107 378 107 z "},"q":{"ha":801,"x_min":72,"x_max":708,"o":"m 569 74 q 456 15 518 38 q 339 -8 394 -8 q 133 83 193 -8 q 72 372 72 175 q 140 662 72 571 q 351 753 207 753 q 708 731 511 753 l 708 -329 l 569 -329 l 569 74 m 375 106 q 569 161 469 106 l 569 646 l 389 646 q 252 578 292 646 q 213 376 213 510 q 228 217 213 275 q 280 132 244 158 q 375 106 315 106 z "},"r":{"ha":578,"x_min":97,"x_max":544,"o":"m 97 743 l 204 743 l 236 618 q 347 717 289 682 q 478 753 406 753 q 544 744 515 753 l 544 601 q 461 608 500 608 q 342 584 393 608 q 236 507 290 560 l 236 0 l 97 0 l 97 743 z "},"ŕ":{"ha":578,"x_min":97,"x_max":544,"o":"m 97 743 l 204 743 l 236 618 q 347 717 289 682 q 478 753 406 753 q 544 744 515 753 l 544 601 q 461 608 500 608 q 342 584 393 608 q 236 507 290 560 l 236 0 l 97 0 l 97 743 m 382 1068 l 499 1068 l 329 876 l 247 876 l 382 1068 z "},"ř":{"ha":578,"x_min":97,"x_max":544,"o":"m 97 743 l 204 743 l 236 618 q 347 717 289 682 q 478 753 406 753 q 544 744 515 753 l 544 601 q 461 608 500 608 q 342 584 393 608 q 236 507 290 560 l 236 0 l 97 0 l 97 743 m 97 1067 l 181 1067 l 297 942 l 422 1067 l 507 1067 l 343 876 l 246 876 l 97 1067 z "},"ŗ":{"ha":578,"x_min":50,"x_max":544,"o":"m 97 743 l 204 743 l 236 618 q 347 717 289 682 q 478 753 406 753 q 544 744 515 753 l 544 601 q 461 608 500 608 q 342 584 393 608 q 236 507 290 560 l 236 0 l 97 0 l 97 743 m 50 -229 l 90 -222 q 143 -205 125 -215 q 169 -169 161 -194 q 178 -92 178 -143 l 264 -92 q 251 -206 264 -165 q 203 -267 238 -247 q 108 -286 169 -286 l 50 -286 l 50 -229 z "}}}
